<svg width="115" height="36" viewBox="0 0 115 36" fill="none" xmlns="http://www.w3.org/2000/svg">
<path d="M89.1896 7.24141C89.1896 10.9508 89.1647 14.0312 89.1273 14.0796C89.0899 14.128 88.7283 13.757 88.3168 13.2409C87.5064 12.2249 86.1722 11.2895 85.0126 10.9024C84.6136 10.7734 83.7658 10.6605 83.1299 10.6605C79.1274 10.6605 75.7609 14.128 74.5763 19.4824C74.3394 20.5307 74.2896 21.1435 74.2896 23.0789C74.302 25.7722 74.4516 26.7721 75.2247 28.8526C76.3219 31.8201 77.9678 33.7877 80.2745 34.9005C81.5713 35.5134 83.6785 35.6908 84.9503 35.2715C86.1972 34.8683 87.469 33.9812 88.3168 32.9491C88.7283 32.433 89.1024 32.0459 89.1273 32.0943C89.1647 32.1265 89.1896 32.8039 89.1896 33.5942V35.0134H91.1846H93.1796V17.7567V0.5H91.1846H89.1896V7.24141ZM85.262 15.5633C86.5961 16.0149 87.6435 16.9826 88.3667 18.4018C89.1772 19.9823 89.3767 20.8855 89.3767 23.0789C89.3767 25.2561 89.1772 26.1754 88.3916 27.7075C87.3692 29.6913 86.06 30.6428 84.1897 30.7879C82.4316 30.9008 81.0601 30.1751 79.8755 28.5139C78.8282 27.0463 78.3918 25.3851 78.4167 22.9176C78.4292 21.1113 78.6536 20.0146 79.2646 18.6437C79.6511 17.8212 80.6486 16.5955 81.3219 16.1601C82.4939 15.3859 84.0525 15.144 85.262 15.5633Z" fill="#091A5A"/>
<path d="M0.288086 18.7246V35.0137H6.27306H12.258L12.2331 32.4171L12.1957 29.8044L8.45508 29.7883L4.71447 29.7721L4.67706 16.0958L4.65213 2.43559H2.47011H0.288086V18.7246Z" fill="#091A5A"/>
<path d="M20.2632 10.9831C17.6697 11.8863 15.2882 14.5957 14.2907 17.7729C13.5301 20.1921 13.3057 23.337 13.6922 25.8045C14.378 30.159 16.5351 33.4975 19.6148 34.9328C20.8492 35.5134 23.0063 35.6747 24.2282 35.2715C25.5125 34.8522 26.7718 33.9813 27.6197 32.9007C28.0312 32.3846 28.3928 31.9492 28.4177 31.9492C28.4427 31.9492 28.4676 32.6427 28.4676 33.4813V35.0135H30.4626H32.4576V23.0789V11.1444H30.4626H28.4676V12.6765C28.4676 13.5152 28.4427 14.2087 28.4052 14.2087C28.3803 14.2087 28.0935 13.8861 27.7818 13.499C26.9464 12.4507 25.8118 11.5153 24.8641 11.1283C23.6671 10.6122 21.4976 10.5477 20.2632 10.9831ZM24.702 15.644C26.6721 16.4182 28.0437 18.3374 28.5175 20.9823C29.0786 24.0305 28.4177 27.0464 26.7718 29.0301C25.6497 30.3848 24.9265 30.7235 23.1684 30.7235C21.3978 30.7235 20.6871 30.3848 19.54 29.0139C16.6223 25.482 17.1336 18.5954 20.4876 16.2408C21.8093 15.3053 23.3056 15.0957 24.702 15.644Z" fill="#091A5A"/>
<path d="M59.2646 10.9667C56.1475 12.0473 53.8657 15.0632 52.8308 19.4499C52.5315 20.7079 52.4941 21.1917 52.4817 22.9981C52.4692 25.2559 52.6188 26.272 53.2422 28.2396C54.0777 30.8845 55.6487 33.1585 57.4691 34.3359C58.6412 35.0939 59.9878 35.4971 61.3843 35.4971C63.479 35.4971 65.0127 34.7391 66.484 32.9811L67.3693 31.9167V33.465V35.0132H69.3643H71.3593V23.0787V11.1441H69.3643H67.3693V12.6924V14.2407L66.5837 13.3053C65.686 12.2086 64.4142 11.2893 63.3045 10.9184C62.2821 10.5797 60.3245 10.5958 59.2646 10.9667ZM63.504 15.5793C66.0975 16.4663 67.6186 19.2564 67.6186 23.0787C67.6186 27.6267 65.3618 30.82 62.1324 30.82C60.5364 30.82 59.1275 30.0298 58.1424 28.5944C57.0327 26.9977 56.6088 25.4172 56.6213 22.9174C56.6213 20.4983 57.307 18.4178 58.5664 17.0147C59.8507 15.5793 61.8207 14.9987 63.504 15.5793Z" fill="#091A5A"/>
<path d="M102.843 10.967C101.771 11.3218 101.185 11.6605 100.312 12.3863C95.8357 16.0795 94.5889 24.4337 97.6188 30.3526C98.3794 31.8363 99.8382 33.5943 100.898 34.2716C102.332 35.207 103.566 35.5457 105.262 35.4651C107.432 35.3361 108.853 34.5458 110.312 32.6266L110.885 31.8847V33.4491V35.0135H112.943H115V23.079V11.1444H112.943H110.885V12.6927V14.2409L110.075 13.2733C109.14 12.1605 107.918 11.2896 106.821 10.9186C105.798 10.5799 103.965 10.5961 102.843 10.967ZM107.157 15.6279C108.23 16.015 108.978 16.5956 109.651 17.5633C110.698 19.0632 111.147 20.7404 111.147 23.079C111.147 25.3852 110.711 27.0625 109.713 28.5301C107.893 31.1912 104.564 31.5944 102.357 29.4172C101.609 28.6753 100.748 27.0948 100.462 25.9336C100.15 24.6595 100.088 22.0952 100.349 20.8211C101.16 16.7891 104.102 14.5312 107.157 15.6279Z" fill="#091A5A"/>
<path d="M35.8488 13.4347L35.8862 15.741L40.6618 15.7894C43.2802 15.8055 45.4248 15.87 45.4248 15.9184C45.4248 15.9668 44.8512 16.9022 44.1405 17.9666C42.8438 19.9665 41.1979 22.4824 37.6568 27.9497L35.6992 30.9817V32.9977V35.0137H43.3051H50.911V32.6751V30.3366H45.9859C43.2802 30.3366 41.0608 30.2882 41.0608 30.2399C41.0608 30.1915 41.4722 29.5141 41.971 28.7561C44.9136 24.2403 45.5744 23.2081 46.4223 21.8857C46.9335 21.0793 47.5071 20.1923 47.6816 19.9342C47.8562 19.66 48.6043 18.5311 49.34 17.4022L50.6616 15.3539V13.2412V11.1446H43.2428H35.8114L35.8488 13.4347Z" fill="#091A5A"/>
</svg>
