<svg width="63" height="63" viewBox="0 0 63 63" fill="none" xmlns="http://www.w3.org/2000/svg">
<g clip-path="url(#clip0_220_38)">
<path d="M41.1545 50.9139C40.3958 50.9139 39.617 50.8594 38.8216 50.7505C33.1095 49.9706 29.2257 44.901 29.981 39.2133C30.2735 37.0074 31.4784 35.1562 33.3702 34.001C35.4023 32.7619 38.0946 32.422 40.944 33.0474C43.4323 33.5948 45.8689 36.0627 46.7012 38.036C47.4081 39.7122 47.3078 41.4266 46.4187 42.8629C45.543 44.2785 43.9822 45.2674 42.0302 45.6471C40.4927 45.9488 38.9536 45.1835 37.4646 44.4433C37.1838 44.3035 36.8997 44.1652 36.6139 44.0298C36.0307 43.7561 35.6079 43.2911 35.4625 42.751C35.3154 42.2153 35.4391 41.6606 35.8118 41.1882L38.5475 37.7314C38.9452 37.2311 39.7273 37.1134 40.2922 37.4577C40.8587 37.805 40.9974 38.4937 40.603 38.9955L38.0612 42.208C38.2751 42.3095 38.4857 42.4155 38.6962 42.52C39.7273 43.0306 40.9005 43.6016 41.4921 43.4912C42.7271 43.2513 43.6964 42.6539 44.2211 41.8048C44.7559 40.9365 44.8061 39.8726 44.3548 38.8013C43.6914 37.2282 41.7762 35.5049 40.339 35.1885C38.2016 34.722 36.2312 34.9443 34.799 35.8184C33.5072 36.6071 32.68 37.9036 32.4728 39.4694C31.8745 43.9754 34.8325 47.9707 39.2076 48.5711C45.0066 49.3717 48.3255 46.5727 50.0836 44.0843C52.0205 41.3412 51.8684 38.1199 49.6625 35.0208C49.3349 34.5602 49.0709 34.0687 48.8068 33.5757C48.6999 33.3726 48.5912 33.1739 48.4793 32.9723C48.1684 32.4293 48.4208 31.7671 49.0391 31.4919C49.6591 31.2197 50.4112 31.4389 50.7203 31.9864C50.8423 32.2012 50.9593 32.4205 51.0746 32.6383C51.2952 33.0518 51.5125 33.4668 51.7849 33.8494C54.4888 37.6461 54.6443 41.8004 52.2094 45.2498C49.5956 48.9493 45.7252 50.9124 41.1545 50.9139Z" fill="black"/>
<path d="M49.8816 30.3205C49.1613 30.3205 48.436 30.0807 47.9213 29.626L46.1515 28.0675C45.346 27.3582 45.1104 26.1368 45.61 25.2318L45.722 25.0287C46.1515 24.2488 46.9002 23.4615 47.567 23.0377L51.0915 20.792C51.6513 20.4359 52.4385 20.5463 52.8429 21.0407C53.2456 21.5352 53.122 22.2254 52.5588 22.5815L49.0326 24.8271C48.7034 25.0361 48.2238 25.5408 48.0433 25.8705C48.0416 25.8734 47.9681 26.0058 47.9631 26.0088L47.8661 26.1839C47.831 26.2634 47.8661 26.4488 47.9246 26.5062L49.691 28.0617C49.7362 28.0955 49.8899 28.1191 49.9484 28.0985C54.9085 25.5821 55.0004 23.7278 54.3603 22.0988C53.7838 20.6331 51.8419 18.9187 50.286 18.5037C47.7191 17.815 45.3827 18.826 44.0391 21.1952L42.3679 24.1399C42.0588 24.6859 41.3051 24.9066 40.6851 24.6314C40.0668 24.3577 39.8144 23.6955 40.1269 23.1495L41.7964 20.2093C43.6765 16.8953 47.2946 15.3957 51.0146 16.3905C53.3309 17.0086 55.8928 19.2454 56.7301 21.3762C58.4447 25.7321 54.3937 28.3942 51.1934 30.0159C50.7974 30.2234 50.3395 30.3205 49.8816 30.3205Z" fill="black"/>
<path d="M22.8753 14.9483C22.4492 14.9483 22.0314 14.7555 21.7975 14.4097C19.4227 10.8941 20.8683 5.41244 24.8925 2.67235C29.032 -0.144259 34.4048 -0.777041 39.2696 0.978559C44.37 2.81951 47.8661 6.83988 48.6182 11.7358C48.7117 12.3407 48.2304 12.8954 47.5419 12.9778C46.8584 13.0706 46.225 12.6394 46.1314 12.0316C45.5014 7.92885 42.5785 4.5604 38.317 3.02112C34.2928 1.57014 29.8475 2.09253 26.4249 4.42058C23.3934 6.48374 22.2119 10.7057 23.9533 13.281C24.3076 13.8049 24.112 14.4818 23.5154 14.7938C23.3132 14.8997 23.0926 14.9483 22.8753 14.9483Z" fill="black"/>
<path d="M10.3147 26.2619C9.93371 26.2619 9.56939 26.2162 9.24853 26.1206C3.13369 24.2708 1.45249 20.1769 0.143963 15.7857C-0.058249 15.1132 -0.0766426 14.0183 0.279318 13.2266C1.9789 9.45344 5.51513 6.86493 9.73986 6.29984C14.1217 5.71709 18.5653 7.36232 21.6186 10.7013C22.0514 11.1767 21.9662 11.8713 21.428 12.2553C20.8916 12.6379 20.1011 12.5629 19.665 12.0876C17.1766 9.36367 13.6053 8.01865 10.1125 8.48514C6.73006 8.93544 3.99435 10.9618 2.60728 14.0418C2.49196 14.2994 2.47021 14.9071 2.56714 15.225C3.78208 19.3013 5.1057 22.5358 10.0574 24.0339C10.2546 24.0942 10.7944 24.0442 11.0484 23.9132L17.2284 20.739C17.825 20.4329 18.5937 20.6095 18.9413 21.1378C19.2889 21.6661 19.0867 22.3401 18.4884 22.6462L12.3068 25.8219C11.7486 26.1073 11.0099 26.2619 10.3147 26.2619Z" fill="black"/>
<path d="M11.7619 55.6627C11.0784 55.6627 10.3748 55.6215 9.64788 55.5258C8.5917 55.389 7.53891 54.5855 7.19799 53.6584L3.16376 42.6789C2.8429 41.8018 3.09521 40.6555 3.76368 39.9476L5.4984 38.1229C5.84267 37.7623 6.22533 37.1737 6.30053 36.8897C6.68323 35.4961 6.37572 34.0878 6.05318 32.5941C5.51005 30.0909 4.89511 27.2508 8.12716 24.7785C8.65024 24.3783 9.44236 24.4283 9.89692 24.8889C10.3498 25.3495 10.2946 26.0456 9.77156 26.4458C7.72604 28.0101 7.94666 29.5641 8.51486 32.1791C8.85745 33.7567 9.24517 35.5446 8.73881 37.4047C8.54328 38.1229 7.91826 39.0161 7.42025 39.5371L5.68557 41.3618C5.57193 41.484 5.49003 41.843 5.54685 42.0005L9.58107 52.98C9.63121 53.1168 9.89191 53.317 10.0122 53.342C14.4927 53.9247 18.0907 52.1677 21.9043 50.312C23.4936 49.5409 25.1397 48.7418 26.8477 48.1252C27.4927 47.8942 28.2214 48.1635 28.4838 48.7271C28.7445 49.2936 28.4386 49.9353 27.7986 50.1678C26.2226 50.7358 24.7136 51.4687 23.1176 52.2457C19.6583 53.9291 16.0936 55.6627 11.7619 55.6627Z" fill="black"/>
<path d="M28.4368 15.4384C27.8 15.4384 27.2536 15.0146 27.1901 14.4421C27.1332 13.9315 27.0631 13.4223 26.9929 12.9087C26.8391 11.7859 26.6787 10.6234 26.6553 9.44905C26.5667 5.32861 30.5124 4.83268 32.8671 4.53836L33.2799 4.48539C35.18 4.23964 40.2319 3.5833 41.1778 7.77584C41.4853 9.15324 40.6447 10.4924 39.8309 11.7889L39.4381 12.4246C38.9936 13.1648 37.9875 13.9124 36.913 13.8167C35.9053 13.7225 35.0112 12.9691 34.6051 12.3098L33.462 10.4468C33.1328 9.91111 33.3584 9.24007 33.9667 8.95017C34.5767 8.65733 35.3354 8.85746 35.6679 9.39459L36.8094 11.2591C36.8796 11.3724 36.9949 11.4769 37.0935 11.5475C37.1386 11.5063 37.187 11.4533 37.2221 11.393L37.6383 10.7205C38.2065 9.81694 38.8515 8.78977 38.7195 8.20555C38.3636 6.6339 37.0333 6.22628 33.6458 6.67069L33.2214 6.72515C30.3052 7.09157 29.122 7.43591 29.1621 9.4093C29.1855 10.4718 29.3292 11.5269 29.4812 12.6453C29.5531 13.1707 29.625 13.699 29.6851 14.2273C29.7537 14.8336 29.249 15.3722 28.5604 15.4325C28.5203 15.4369 28.4785 15.4384 28.4368 15.4384Z" fill="black"/>
<path d="M28.2014 34.3541C27.1435 34.3541 26.0071 34.207 24.7988 33.9068C18.0673 32.2321 17.6429 27.083 17.2318 22.1032L17.1733 21.4145C17.0947 20.483 17.6613 19.4205 18.5219 18.8863L26.0004 14.2391C26.8109 13.7284 28.1078 13.5607 29.0804 13.8417C36.5305 16.0491 39.425 15.949 43.1584 13.3561C47.9981 9.99059 52.0424 11.5313 55.7724 13.3914C60.1292 15.5694 62.7613 18.801 62.9869 22.2563C63.1974 25.4525 61.2789 28.5252 57.5823 30.9092C53.7002 33.4153 48.1953 33.0459 43.892 29.9924C43.2871 29.5597 42.5718 28.8107 42.1757 28.2942L34.0922 17.8959C33.9535 17.7179 33.8833 17.5163 33.875 17.3147C32.2122 17.0292 30.3822 16.5539 28.2883 15.9343C28.0827 15.8755 27.6231 15.9284 27.4544 16.0344L19.9692 20.6861C19.8304 20.7744 19.6633 21.0907 19.6767 21.2453L19.7352 21.9398C20.1747 27.2611 20.686 30.5854 25.4806 31.7774C29.5951 32.7957 32.2707 31.695 33.4288 28.4987C33.524 28.2412 33.4923 27.6364 33.3686 27.3185L31.6289 22.8508C31.5721 22.7051 31.2964 22.4976 31.1643 22.474C27.2922 21.9222 25.1046 22.7492 23.6089 25.3127C23.5738 25.3878 23.5939 25.5791 23.6457 25.6438C25.1932 26.9388 26.6672 26.387 29.1322 25.2921L29.5517 25.1067C30.1717 24.8359 30.9237 25.0567 31.2329 25.6026C31.5437 26.1486 31.2897 26.8108 30.6697 27.0831L30.2602 27.2641C27.8387 28.3368 24.8222 29.6775 21.906 27.2317C21.0588 26.5283 20.8264 25.2392 21.3829 24.3018C23.3833 20.873 26.6171 19.5986 31.5621 20.2976C32.6183 20.4462 33.6461 21.2203 34.0003 22.1385L35.74 26.6063C36.0007 27.2758 36.111 28.3721 35.8152 29.1771C34.5886 32.5617 31.8896 34.3541 28.2014 34.3541ZM36.9115 17.6222L44.248 27.061C44.5655 27.4774 45.132 28.044 45.4663 28.2839C48.8738 30.7017 53.147 31.0416 56.0983 29.1344C59.1281 27.1816 60.6472 24.8492 60.4851 22.3902C60.3097 19.6972 58.1405 17.119 54.5341 15.3163C50.6185 13.3605 48.0232 12.7866 44.7109 15.094C42.0838 16.9159 39.7107 17.6458 36.9115 17.6222Z" fill="black"/>
<path d="M18.9732 20.8332C18.4234 20.8332 17.9204 20.5124 17.7666 20.0239L16.291 15.3471C16.2158 15.1043 15.8815 14.7644 15.6626 14.6791L12.5091 13.4503C12.4055 13.4091 12.1147 13.4517 12.0211 13.5239L7.6861 16.9983C8.59188 18.0446 9.17175 18.2359 9.43245 18.255C9.95887 18.3212 10.619 17.7297 11.2724 17.1822C11.9493 16.6142 12.6528 16.027 13.5419 15.7459C14.1953 15.5414 14.9106 15.8401 15.1429 16.4155C15.3769 16.9924 15.0376 17.6207 14.3825 17.8253C13.9931 17.9474 13.4851 18.3727 12.9937 18.7818C12.0445 19.5765 10.853 20.558 9.2336 20.4535C8.01364 20.3682 6.8438 19.6677 5.66562 18.3124C4.90524 17.4471 5.05234 16.1242 5.99488 15.3648L10.3299 11.8904C11.1555 11.2311 12.494 11.0369 13.5168 11.4283L16.677 12.6615C17.5828 13.0162 18.4301 13.8815 18.6925 14.7173L20.1815 19.4352C20.3653 20.0209 19.9743 20.6301 19.3075 20.792C19.1955 20.82 19.0835 20.8332 18.9732 20.8332Z" fill="black"/>
<path d="M41.8044 62.0199C41.4836 62.0199 41.1627 61.9125 40.9187 61.6962L40.3839 61.2135C40.0313 60.8927 39.6787 60.5704 39.301 60.2761C36.5636 58.1438 31.9813 54.5737 35.718 49.0729C36.0723 48.5491 36.8444 48.3798 37.4343 48.6918C38.0276 49.0052 38.2248 49.6822 37.8671 50.2031C35.6111 53.526 37.1385 55.6436 40.9638 58.6235C41.39 58.9561 41.7877 59.3166 42.1838 59.6786L42.6935 60.1363C43.1832 60.5675 43.1832 61.268 42.6935 61.6991C42.4462 61.9125 42.1253 62.0199 41.8044 62.0199Z" fill="black"/>
<path d="M20.0861 63C19.4277 63 18.8745 62.5467 18.8361 61.9611L18.2813 53.6245C18.2428 53.0168 18.7676 52.4929 19.4594 52.4576C20.153 52.4134 20.7446 52.8873 20.783 53.495L21.3379 61.8316C21.378 62.4393 20.8515 62.9647 20.1597 62.9985C20.1346 63 20.1095 63 20.0861 63Z" fill="black"/>
<path d="M19.5329 37.0118C19.4694 37.0118 19.406 37.0074 19.3408 36.9986L12.1012 36.0185C11.4194 35.9258 10.9498 35.3637 11.0534 34.7618C11.1587 34.1584 11.8021 33.742 12.4823 33.8376L19.7218 34.8177C20.4053 34.9104 20.8733 35.4711 20.7696 36.0744C20.6761 36.6204 20.1413 37.0118 19.5329 37.0118Z" fill="black"/>
<path d="M42.3595 29.6568H35.6782C34.9863 29.6568 34.4248 29.1624 34.4248 28.5532C34.4248 27.9439 34.9863 27.4495 35.6782 27.4495H42.3595C43.0514 27.4495 43.6129 27.9439 43.6129 28.5532C43.6129 29.1624 43.0514 29.6568 42.3595 29.6568Z" fill="black"/>
</g>
<defs>
<clipPath id="clip0_220_38">
<rect width="63" height="63" fill="white"/>
</clipPath>
</defs>
</svg>
