<svg width="41" height="35" viewBox="0 0 41 35" fill="none" xmlns="http://www.w3.org/2000/svg">
<path d="M37.2577 0H3.75914C2.89476 0 2.06578 0.442408 1.45458 1.2299C0.843372 2.01739 0.5 3.08545 0.5 4.19913L0.5 30.8009C0.5 31.3523 0.5843 31.8983 0.748087 32.4078C0.911874 32.9173 1.15194 33.3802 1.45458 33.7701C1.75722 34.16 2.1165 34.4693 2.51192 34.6804C2.90733 34.8914 3.33114 35 3.75914 35H37.2577C38.122 35 38.951 34.5576 39.5622 33.7701C40.1734 32.9826 40.5168 31.9145 40.5168 30.8009V4.19913C40.5168 3.08545 40.1734 2.01739 39.5622 1.2299C38.951 0.442408 38.122 0 37.2577 0ZM2.17997 8.07359H38.82V13.1818H2.17997V8.07359ZM3.75914 2.1645H37.2577C37.6765 2.1645 38.0782 2.37886 38.3743 2.76043C38.6705 3.142 38.8368 3.65952 38.8368 4.19913V5.90909H2.17997V4.19913C2.17997 3.65952 2.34634 3.142 2.64249 2.76043C2.93865 2.37886 3.34031 2.1645 3.75914 2.1645ZM37.2577 32.8355H3.75914C3.34031 32.8355 2.93865 32.6211 2.64249 32.2396C2.34634 31.858 2.17997 31.3405 2.17997 30.8009V15.3463H38.82V30.7792C38.8223 31.0464 38.7836 31.3116 38.7063 31.5595C38.629 31.8075 38.5145 32.0333 38.3694 32.2243C38.2243 32.4152 38.0515 32.5675 37.8607 32.6724C37.67 32.7772 37.465 32.8327 37.2577 32.8355Z" fill="black"/>
<path d="M33.1419 21.1905C32.6842 21.1905 32.2319 21.3159 31.8148 21.5585C31.3977 21.8011 31.0254 22.1552 30.7227 22.5974C30.2836 21.9581 29.7036 21.5064 29.0602 21.3026C28.4168 21.0988 27.7404 21.1525 27.1212 21.4565C26.5021 21.7606 25.9696 22.3006 25.5947 23.0046C25.2198 23.7085 25.0204 24.543 25.023 25.3967C25.0256 26.2504 25.2301 27.0828 25.6092 27.783C25.9883 28.4831 26.5241 29.0177 27.1451 29.3156C27.766 29.6134 28.4427 29.6603 29.0849 29.45C29.7271 29.2397 30.3043 28.7822 30.7395 28.1385C31.1006 28.6562 31.5563 29.0495 32.0653 29.2826C32.5744 29.5157 33.1205 29.5812 33.6542 29.4732C34.1878 29.3652 34.6921 29.0872 35.1212 28.6643C35.5502 28.2414 35.8905 27.6871 36.111 27.0517C36.3316 26.4164 36.4254 25.7201 36.384 25.0261C36.3426 24.3321 36.1672 23.6625 35.8739 23.078C35.5806 22.4935 35.1786 22.0128 34.7044 21.6793C34.2302 21.3459 33.6989 21.1704 33.1587 21.1688L33.1419 21.1905ZM28.3204 27.4026C28.008 27.4026 27.7027 27.2833 27.443 27.0597C27.1833 26.8361 26.9809 26.5184 26.8614 26.1466C26.7419 25.7748 26.7106 25.3657 26.7715 24.971C26.8325 24.5763 26.9829 24.2138 27.2037 23.9293C27.4246 23.6447 27.706 23.4509 28.0123 23.3724C28.3186 23.2939 28.6361 23.3342 28.9247 23.4882C29.2132 23.6422 29.4599 23.903 29.6334 24.2376C29.8069 24.5722 29.8995 24.9655 29.8995 25.368C29.8995 25.9076 29.7332 26.4251 29.437 26.8067C29.1409 27.1882 28.7392 27.4026 28.3204 27.4026ZM33.1419 27.4026C32.8295 27.4026 32.5242 27.2833 32.2645 27.0597C32.0048 26.8361 31.8024 26.5184 31.6829 26.1466C31.5634 25.7748 31.5321 25.3657 31.593 24.971C31.654 24.5763 31.8044 24.2138 32.0252 23.9293C32.2461 23.6447 32.5275 23.4509 32.8338 23.3724C33.1401 23.2939 33.4576 23.3342 33.7462 23.4882C34.0347 23.6422 34.2814 23.903 34.4549 24.2376C34.6284 24.5722 34.721 24.9655 34.721 25.368C34.721 25.9076 34.5547 26.4251 34.2585 26.8067C33.9624 27.1882 33.5607 27.4026 33.1419 27.4026Z" fill="black"/>
</svg>
