<svg width="30" height="30" viewBox="0 0 30 30" fill="none" xmlns="http://www.w3.org/2000/svg">
<path fill-rule="evenodd" clip-rule="evenodd" d="M14.85 0.29834C10.8168 0.29834 10.3119 0.31517 8.72786 0.38744C7.14683 0.45971 6.06674 0.711171 5.12227 1.07846C4.13227 1.4507 3.23434 2.0348 2.49184 2.79117C1.73668 3.53281 1.15222 4.43011 0.779132 5.42061C0.413821 6.36508 0.16137 7.44616 0.0891002 9.02719C0.0178201 10.6102 0 11.1141 0 15.1484C0 19.1826 0.01683 19.6866 0.0891002 21.2706C0.16137 22.8516 0.412831 23.9317 0.780122 24.8761C1.15236 25.8661 1.73646 26.7641 2.49283 27.5066C3.23449 28.2617 4.13179 28.8462 5.12227 29.2193C6.06674 29.5856 7.14683 29.837 8.72786 29.9093C10.3119 29.9816 10.8168 29.9984 14.85 29.9984C18.8833 29.9984 19.3882 29.9816 20.9722 29.9093C22.5532 29.837 23.6333 29.5856 24.5778 29.2183C25.5678 28.8461 26.4657 28.262 27.2082 27.5056C27.9634 26.7639 28.5479 25.8666 28.9209 24.8761C29.2872 23.9317 29.5387 22.8516 29.611 21.2706C29.6832 19.6866 29.7001 19.1817 29.7001 15.1484C29.7001 11.1151 29.6832 10.6102 29.611 9.0262C29.5387 7.44517 29.2872 6.36508 28.92 5.42061C28.5471 4.42968 27.9626 3.53201 27.2073 2.79018C26.4656 2.03502 25.5683 1.45056 24.5778 1.07747C23.6333 0.712161 22.5523 0.45971 20.9712 0.38744C19.3882 0.31616 18.8843 0.29834 14.85 0.29834ZM14.85 2.97432C18.815 2.97432 19.2853 2.98917 20.8514 3.06045C22.2988 3.12678 23.0849 3.36735 23.6086 3.57228C24.3016 3.84057 24.7966 4.16331 25.3163 4.68207C25.8361 5.20182 26.1579 5.69682 26.4261 6.38983C26.6301 6.91354 26.8716 7.6996 26.938 9.14698C27.0093 10.7132 27.0241 11.1834 27.0241 15.1484C27.0241 19.1133 27.0093 19.5836 26.938 21.1498C26.8716 22.5972 26.6311 23.3832 26.4261 23.9069C26.1885 24.552 25.8092 25.1355 25.3163 25.6147C24.8373 26.1077 24.2537 26.4869 23.6086 26.7245C23.0849 26.9284 22.2988 27.17 20.8514 27.2363C19.2853 27.3076 18.816 27.3224 14.85 27.3224C10.8841 27.3224 10.4148 27.3076 8.84864 27.2363C7.40126 27.17 6.6152 26.9294 6.09149 26.7245C5.44646 26.4868 4.8629 26.1076 4.38373 25.6147C3.89089 25.1355 3.51167 24.5519 3.27394 23.9069C3.07 23.3832 2.82844 22.5972 2.76211 21.1498C2.69083 19.5836 2.67598 19.1133 2.67598 15.1484C2.67598 11.1834 2.69083 10.7132 2.76211 9.14698C2.82844 7.6996 3.06901 6.91354 3.27394 6.38983C3.54223 5.69682 3.86497 5.20182 4.38373 4.68207C4.86283 4.18909 5.44641 3.80985 6.09149 3.57228C6.6152 3.36834 7.40126 3.12678 8.84864 3.06045C10.4148 2.98917 10.8851 2.97432 14.85 2.97432Z" fill="white"/>
<path fill-rule="evenodd" clip-rule="evenodd" d="M14.8497 20.1035C14.199 20.1035 13.5547 19.9754 12.9535 19.7263C12.3524 19.4773 11.8061 19.1124 11.346 18.6522C10.8859 18.1921 10.5209 17.6459 10.2719 17.0447C10.0229 16.4436 9.89475 15.7993 9.89475 15.1486C9.89475 14.4979 10.0229 13.8535 10.2719 13.2524C10.5209 12.6512 10.8859 12.105 11.346 11.6449C11.8061 11.1848 12.3524 10.8198 12.9535 10.5708C13.5547 10.3218 14.199 10.1936 14.8497 10.1936C16.1639 10.1936 17.4242 10.7156 18.3534 11.6449C19.2826 12.5741 19.8047 13.8344 19.8047 15.1486C19.8047 16.4627 19.2826 17.723 18.3534 18.6522C17.4242 19.5815 16.1639 20.1035 14.8497 20.1035ZM14.8497 7.51563C12.8253 7.51563 10.8839 8.31981 9.45243 9.75126C8.02098 11.1827 7.2168 13.1242 7.2168 15.1486C7.2168 17.1729 8.02098 19.1144 9.45243 20.5458C10.8839 21.9773 12.8253 22.7815 14.8497 22.7815C16.8741 22.7815 18.8156 21.9773 20.247 20.5458C21.6785 19.1144 22.4826 17.1729 22.4826 15.1486C22.4826 13.1242 21.6785 11.1827 20.247 9.75126C18.8156 8.31981 16.8741 7.51563 14.8497 7.51563ZM24.7032 7.37703C24.7032 7.85556 24.5131 8.31448 24.1747 8.65285C23.8364 8.99122 23.3775 9.18131 22.8989 9.18131C22.4204 9.18131 21.9615 8.99122 21.6231 8.65285C21.2847 8.31448 21.0946 7.85556 21.0946 7.37703C21.0946 6.89851 21.2847 6.43958 21.6231 6.10122C21.9615 5.76285 22.4204 5.57275 22.8989 5.57275C23.3775 5.57275 23.8364 5.76285 24.1747 6.10122C24.5131 6.43958 24.7032 6.89851 24.7032 7.37703Z" fill="white"/>
</svg>
