<svg width="25" height="25" viewBox="0 0 25 25" fill="none" xmlns="http://www.w3.org/2000/svg">
<path d="M12.5 0.000488281C9.1052 0.000488281 8.67952 0.0148777 7.34627 0.0757104C6.01579 0.136444 5.10712 0.347721 4.31198 0.656747C3.48999 0.976193 2.7929 1.40361 2.09798 2.09852C1.40307 2.79343 0.975655 3.49053 0.656209 4.31251C0.347183 5.10761 0.135906 6.01628 0.0751725 7.34675C0.0143398 8.68001 0 9.10569 0 12.5005C0 15.8953 0.0143398 16.321 0.0751725 17.6542C0.135906 18.9847 0.347183 19.8934 0.656209 20.6885C0.975655 21.5104 1.40307 22.2075 2.09798 22.9025C2.7929 23.5974 3.48999 24.0248 4.31198 24.3443C5.10712 24.6533 6.01579 24.8646 7.34627 24.9253C8.67952 24.9861 9.1052 25.0005 12.5 25.0005C15.8948 25.0005 16.3205 24.9861 17.6537 24.9253C18.9842 24.8646 19.8929 24.6533 20.688 24.3443C21.51 24.0248 22.2071 23.5974 22.902 22.9025C23.5969 22.2075 24.0243 21.5104 24.3438 20.6885C24.6528 19.8934 24.8641 18.9847 24.9248 17.6542C24.9856 16.321 25 15.8953 25 12.5005C25 9.10569 24.9856 8.68001 24.9248 7.34675C24.8641 6.01628 24.6528 5.10761 24.3438 4.31251C24.0243 3.49053 23.5969 2.79343 22.902 2.09852C22.2071 1.40361 21.51 0.976193 20.688 0.656747C19.8929 0.347721 18.9842 0.136444 17.6537 0.0757104C16.3205 0.0148777 15.8948 0.000488281 12.5 0.000488281ZM12.5 2.25279C15.8376 2.25279 16.233 2.26549 17.5511 2.32563C18.7698 2.38125 19.4317 2.58489 19.8721 2.75602C20.4556 2.98278 20.872 3.2537 21.3094 3.69109C21.7468 4.12848 22.0177 4.54493 22.2445 5.12835C22.4157 5.56881 22.6193 6.23068 22.6749 7.44942C22.735 8.76749 22.7478 9.16285 22.7478 12.5005C22.7478 15.8381 22.735 16.2335 22.6749 17.5516C22.6193 18.7703 22.4157 19.4322 22.2445 19.8726C22.0177 20.4561 21.7468 20.8725 21.3094 21.3099C20.872 21.7473 20.4556 22.0182 19.8721 22.245C19.4317 22.4161 18.7698 22.6198 17.5511 22.6754C16.2332 22.7355 15.8379 22.7482 12.5 22.7482C9.16212 22.7482 8.76685 22.7355 7.44893 22.6754C6.23019 22.6198 5.56832 22.4161 5.12786 22.245C4.54439 22.0182 4.12799 21.7473 3.69055 21.3099C3.25316 20.8725 2.98224 20.4561 2.75553 19.8726C2.58435 19.4322 2.38071 18.7703 2.32509 17.5516C2.26495 16.2335 2.25225 15.8381 2.25225 12.5005C2.25225 9.16285 2.26495 8.76749 2.32509 7.44942C2.38071 6.23068 2.58435 5.56881 2.75553 5.12835C2.98224 4.54493 3.25316 4.12848 3.69055 3.69109C4.12799 3.2537 4.54439 2.98278 5.12786 2.75602C5.56832 2.58489 6.23019 2.38125 7.44893 2.32563C8.767 2.26549 9.16236 2.25279 12.5 2.25279Z" fill="#889CBA"/>
<path d="M12.5 16.6671C10.1988 16.6671 8.3333 14.8017 8.3333 12.5005C8.3333 10.1993 10.1988 8.33379 12.5 8.33379C14.8012 8.33379 16.6666 10.1993 16.6666 12.5005C16.6666 14.8017 14.8012 16.6671 12.5 16.6671ZM12.5 6.08154C8.95488 6.08154 6.08105 8.95537 6.08105 12.5005C6.08105 16.0455 8.95488 18.9194 12.5 18.9194C16.0451 18.9194 18.9189 16.0455 18.9189 12.5005C18.9189 8.95537 16.0451 6.08154 12.5 6.08154Z" fill="#889CBA"/>
<path d="M20.6729 5.8281C20.6729 6.65654 20.0013 7.32808 19.1728 7.32808C18.3444 7.32808 17.6729 6.65654 17.6729 5.8281C17.6729 4.99967 18.3444 4.32812 19.1728 4.32812C20.0013 4.32812 20.6729 4.99967 20.6729 5.8281Z" fill="#889CBA"/>
</svg>
