<svg width="63" height="63" viewBox="0 0 63 63" fill="none" xmlns="http://www.w3.org/2000/svg">
<g clip-path="url(#clip0_220_64)">
<path d="M51.1875 34.4531C51.1924 23.0491 54.5383 12.0045 60.8659 2.51508L61.8857 0.984375H58.655L58.3665 1.2728C49.9285 9.71086 45.2812 20.9298 45.2812 32.8634V34.4531H33.3388C34.7002 26.5919 37.6789 19.0841 42.1628 12.3588L43.1826 10.8281H39.9518L39.6634 11.1165C33.2049 17.575 28.978 25.6636 27.345 34.4531H14.0913C15.0462 25.1646 18.2326 16.2619 23.4596 8.42133L24.4794 6.89062H21.2487L20.9603 7.17905C13.548 14.5914 9.06413 24.1497 8.0827 34.4531H0.984375V62.0156H62.0156V34.4531H51.1875ZM60.0469 38.4418C57.8675 38.6761 56.6144 39.6772 55.4932 40.574C54.3178 41.515 53.3019 42.3262 51.1875 42.3281V36.4219H60.0469V38.4418ZM47.25 47.4695V32.8634C47.25 23.4527 50.272 14.5087 55.8584 7.13672C51.4976 15.5649 49.2188 24.8998 49.2188 34.4797V47.4685L49.5436 47.7619C49.9688 48.1458 50.2031 48.6636 50.2031 49.2188C50.2031 50.3045 49.3201 51.1875 48.2344 51.1875C47.1486 51.1875 46.2656 50.3045 46.2656 49.2188C46.2656 48.6636 46.4999 48.1458 46.9252 47.7629L47.25 47.4695ZM45.2812 36.4219V39.4232C44.3018 38.8385 43.0822 38.3906 41.3349 38.3906C38.5284 38.3906 37.0785 39.5512 35.7988 40.575C34.8341 41.3477 33.9668 42.0249 32.5218 42.2464C32.5917 40.2895 32.7669 38.3473 33.0317 36.4229L45.2812 36.4219ZM28.5469 42.7071C28.5469 33.2965 31.5689 24.3525 37.1552 16.9805C32.7945 25.4087 30.5156 34.7435 30.5156 44.3235V48.3092L31.1053 48.5671C32.5415 49.1961 33.4688 50.6107 33.4688 52.1719C33.4688 54.3434 31.7028 56.1094 29.5312 56.1094C27.3597 56.1094 25.5938 54.3434 25.5938 52.1719C25.5938 50.6107 26.521 49.1961 27.9572 48.5671L28.5469 48.3092V42.7071ZM27.0211 36.4219C26.8488 37.6563 26.7258 38.9025 26.6559 40.1586C25.4894 39.2608 24.0778 38.3906 21.6484 38.3906C18.8429 38.3906 17.3929 39.5512 16.1132 40.575C15.369 41.1705 14.6977 41.704 13.7812 42.023V40.3869C13.7812 39.06 13.8315 37.738 13.921 36.4229L27.0211 36.4219ZM9.84375 46.4851V38.7696C9.84375 29.359 12.8658 20.415 18.4521 13.043C14.0913 21.4712 11.8125 30.806 11.8125 40.386V46.4842L12.1373 46.7775C12.5626 47.1614 12.7969 47.6792 12.7969 48.2344C12.7969 49.3201 11.9139 50.2031 10.8281 50.2031C9.74236 50.2031 8.85938 49.3201 8.85938 48.2344C8.85938 47.6792 9.09366 47.1614 9.51891 46.7785L9.84375 46.4851ZM7.938 36.4219C7.89764 37.2015 7.875 37.9831 7.875 38.7696V40.8614C7.75195 40.7649 7.62891 40.6754 7.50389 40.5759C6.38367 39.6792 5.13155 38.6771 2.95312 38.4418V36.4219H7.938ZM2.95312 60.0469V54.2154C4.42477 54.429 5.29889 55.1132 6.27244 55.8928C7.55212 56.9175 9.00211 58.0781 11.8076 58.0781C14.613 58.0781 16.063 56.9175 17.3427 55.8938C18.5181 54.9527 19.5339 54.1406 21.6484 54.1406V52.1719C18.8419 52.1719 17.3919 53.3325 16.1123 54.3572C14.9369 55.2973 13.923 56.1094 11.8076 56.1094C9.69216 56.1094 8.67727 55.2973 7.50291 54.3562C6.38269 53.4594 5.13056 52.4583 2.95312 52.2231V40.4342C4.42575 40.6478 5.29988 41.3319 6.27342 42.1125C6.76758 42.5073 7.2765 42.9119 7.875 43.2672V45.6455C7.24402 46.3631 6.89062 47.2835 6.89062 48.2344C6.89062 50.4059 8.65659 52.1719 10.8281 52.1719C12.9997 52.1719 14.7656 50.4059 14.7656 48.2344C14.7656 47.2835 14.4122 46.3631 13.7812 45.6455V44.0685C15.373 43.6807 16.4135 42.8557 17.3437 42.1116C18.5181 41.1715 19.5339 40.3594 21.6484 40.3594C23.7628 40.3594 24.7797 41.1715 25.955 42.1116C26.1598 42.275 26.3714 42.4315 26.5811 42.591C26.5811 42.6293 26.5781 42.6677 26.5781 42.7061V47.061C24.7649 48.1084 23.625 50.0496 23.625 52.1709C23.625 55.4282 26.274 58.0771 29.5312 58.0771C32.7885 58.0771 35.4375 55.4282 35.4375 52.1709C35.4375 50.0496 34.2976 48.1084 32.4844 47.061V44.3235C32.4844 44.2969 32.4854 44.2713 32.4854 44.2447C34.6598 44.0085 35.91 43.0083 37.0292 42.1125C38.2056 41.1715 39.2205 40.3594 41.3349 40.3594C43.2377 40.3594 44.2467 41.013 45.2812 41.8251V46.6298C44.6503 47.3475 44.2969 48.2678 44.2969 49.2188C44.2969 51.3903 46.0628 53.1562 48.2344 53.1562C50.4059 53.1562 52.1719 51.3903 52.1719 49.2188C52.1719 48.2678 51.8185 47.3475 51.1875 46.6298V44.2969C53.992 44.2959 55.442 43.1363 56.7226 42.1125C57.6982 41.3319 58.5723 40.6478 60.0469 40.4342V52.2231C57.8675 52.4573 56.6144 53.4585 55.4932 54.3552C54.3168 55.2973 53.3 56.1094 51.1826 56.1094C49.0662 56.1094 48.0493 55.2973 46.874 54.3562C45.5933 53.3325 44.1423 52.1719 41.3349 52.1719C39.7264 52.1719 38.3877 52.5538 37.1218 53.3728L38.1908 55.0266C38.8671 54.5875 39.7697 54.1406 41.3349 54.1406C43.4513 54.1406 44.4682 54.9527 45.6435 55.8938C46.9242 56.9175 48.3761 58.0781 51.1826 58.0781C53.991 58.0781 55.441 56.9175 56.7226 55.8938C57.6982 55.1132 58.5723 54.429 60.0469 54.2154V60.0469H2.95312Z" fill="black"/>
</g>
<defs>
<clipPath id="clip0_220_64">
<rect width="63" height="63" fill="white"/>
</clipPath>
</defs>
</svg>
