<svg width="192" height="34" viewBox="0 0 192 34" fill="none" xmlns="http://www.w3.org/2000/svg">
<path d="M5.02026 0.806282C4.19626 1.35028 3.81001 2.43828 3.60401 4.85228L3.42376 6.82428H6.53951C8.44501 6.82428 9.65526 6.96028 9.65526 7.16428C9.65526 7.36828 8.41926 7.50428 6.43651 7.50428C4.65976 7.50428 3.21776 7.57228 3.21776 7.64028C3.21776 7.70828 3.03751 8.96628 2.83151 10.4283C2.62551 11.8903 2.49676 13.1483 2.57401 13.2163C2.62551 13.2843 3.96451 13.3523 5.53526 13.3183C9.57801 13.2163 9.68101 13.7603 5.66401 13.9643L2.31651 14.1343L2.00751 16.3443C1.44101 20.3563 1.20926 20.0503 4.84001 20.1863L7.98151 20.2883L4.73701 20.3563L1.49251 20.4243L1.20926 22.1923C1.05476 23.1783 0.84876 24.5723 0.74576 25.2523L0.59126 26.5443H3.83576C5.94726 26.5443 7.05451 26.6803 6.95151 26.8843C6.84851 27.0883 5.45801 27.2243 3.62976 27.2243H0.46251L0.15351 29.2303C-0.20699 31.6783 0.0505097 32.8003 1.10626 33.2763C1.95601 33.6503 16.1443 33.8543 16.4018 33.4803C16.5048 33.3783 16.1185 32.6643 15.5778 31.9843C14.419 30.4883 14.3418 30.2843 15.0628 30.2843C15.346 30.2843 15.5778 30.1143 15.5778 29.9443C15.5778 29.7403 15.3718 29.6043 15.14 29.6723C14.8825 29.7403 14.7023 29.6043 14.728 29.4003C14.7538 29.1623 14.5735 29.0603 14.316 29.1623C14.0585 29.2643 13.4405 29.0263 12.977 28.6863L12.1015 28.0743L12.9513 27.9723C13.4148 27.9043 14.1358 28.0743 14.5478 28.3803C15.2945 28.8563 15.3203 28.8563 15.3718 27.9723C15.3975 27.4623 15.3975 26.6123 15.3718 26.1023C15.346 25.5583 15.5005 24.8103 15.7065 24.4023C15.9125 23.9943 16.0928 23.3483 16.0928 22.9403C16.0928 21.6823 14.8053 18.3843 14.007 17.6363C13.595 17.2283 13.2603 16.6503 13.2603 16.3103C13.2603 16.0043 13.08 15.5623 12.8483 15.2903C12.2303 14.6103 11.6638 13.0123 11.9728 12.7743C12.3333 12.4683 12.2818 11.5843 11.9213 11.5843C11.741 11.5843 11.3033 11.1763 10.9685 10.7343C10.3248 9.85028 10.3763 8.86428 11.0715 8.86428C11.3033 8.86428 11.4063 8.69428 11.329 8.52428C11.226 8.28628 11.0458 8.28628 10.8655 8.45628C10.4535 8.86428 8.88276 9.27228 8.88276 8.93228C8.90851 8.45628 10.196 7.43628 10.5823 7.64028C10.7625 7.74228 10.9428 7.67428 10.9428 7.50428C10.9428 6.72228 11.4063 7.26628 11.844 8.52428C12.1015 9.27228 12.3848 9.78228 12.5135 9.68028C12.6165 9.61228 12.668 9.30628 12.565 9.03428C12.4878 8.69428 12.5908 8.52428 12.874 8.52428C13.183 8.52428 13.286 8.72828 13.183 9.20428C13.0028 10.1223 13.595 10.7343 14.0328 10.0543C14.213 9.78228 14.4448 9.54428 14.5478 9.54428C14.6508 9.54428 15.1915 9.30628 15.7323 9.00028C16.582 8.52428 16.6593 8.42228 16.2473 8.11628C15.8868 7.84428 15.7065 7.87828 15.552 8.21828C15.3975 8.55828 15.3203 8.49028 15.3203 7.94628C15.3203 7.40228 15.2173 7.23228 14.934 7.36828C14.728 7.50428 14.5478 7.40228 14.5478 7.19828C14.5478 6.99428 14.6765 6.82428 14.831 6.82428C14.9598 6.82428 15.0113 6.65428 14.934 6.48428C14.8568 6.28028 14.4448 6.14428 14.007 6.14428C13.595 6.14428 13.2603 6.00828 13.2603 5.87228C13.2603 5.29428 15.037 4.75028 16.0155 4.98828C16.5563 5.15828 17.2258 5.22628 17.509 5.15828C17.7923 5.09028 17.9468 5.15828 17.818 5.32828C17.715 5.46428 17.7923 5.80428 17.9983 6.11028C18.5648 6.99428 18.6678 8.15028 18.2043 8.55828C17.6378 9.03428 18.1013 8.83028 19.9553 7.84428C21.2685 7.13028 21.3973 6.92628 21.7578 5.46428C22.041 4.34228 22.0925 3.56028 21.938 2.91428C21.7835 2.30228 21.7835 1.89428 21.9895 1.62228C22.144 1.41828 22.2728 1.04428 22.2728 0.806282C22.2728 0.160282 5.97301 0.160282 5.02026 0.806282ZM13.1058 7.02828C13.3375 7.13028 13.5178 7.40228 13.5178 7.60628C13.5178 7.81028 13.4405 7.84428 13.3375 7.74228C13.2603 7.60628 13.0285 7.67428 12.8225 7.87828C12.565 8.18428 12.3848 8.15028 12.1015 7.84428C11.432 7.09628 12.1273 6.51828 13.1058 7.02828ZM9.99001 17.0923C10.0415 17.3303 10.3248 17.5683 10.6338 17.5683C10.9428 17.6023 11.5093 17.6363 11.9213 17.6703C12.5908 17.7383 12.5908 17.7383 12.1273 18.2143C11.844 18.4863 11.7668 18.7243 11.9213 18.7243C12.1015 18.7243 12.462 19.0303 12.771 19.4383L13.3118 20.1523L13.6723 19.4383C14.1873 18.4863 14.3933 18.5543 14.728 19.7443C14.9855 20.6623 14.9598 20.8323 14.2903 21.4443L13.5435 22.1583L12.4363 21.2403C11.8183 20.7303 10.917 19.9143 10.402 19.3703C9.75826 18.6903 9.11451 18.3843 8.16176 18.2823C6.56526 18.1123 6.30776 17.6363 7.67251 17.3303C8.18751 17.2283 8.70251 17.0243 8.80551 16.9223C9.08876 16.5143 9.86126 16.6503 9.99001 17.0923Z" fill="#091A5A"/>
<path d="M22.9163 3.73041C22.9163 5.90641 22.7876 7.26641 22.5816 7.57241C22.4013 7.87841 21.5773 8.52441 20.7533 9.03441C19.5688 9.78241 19.2856 10.1224 19.3886 10.6324C19.4401 10.9724 19.3886 11.4484 19.2341 11.6864C19.1053 11.8904 18.5388 13.1484 18.0238 14.4744C17.4831 15.7664 16.9423 16.9564 16.8136 17.0584C16.6333 17.1944 16.6333 17.5004 16.8136 17.9084C17.2771 19.1324 17.7406 23.2804 17.4316 23.4164C17.2513 23.4844 17.1226 24.0964 17.1226 24.7764C17.0968 25.4564 16.9423 26.6464 16.7363 27.3944C16.5303 28.1424 16.3501 29.1624 16.3501 29.6384C16.3501 30.6924 17.0453 33.0724 17.4573 33.4124C17.8693 33.7524 22.4786 33.6504 23.4571 33.3104C24.5643 32.9024 24.9506 31.9504 25.4398 28.5844C25.6716 26.9864 26.5986 20.5604 27.5256 14.2704C28.4526 7.98041 29.2251 2.50641 29.2251 2.13241C29.2251 0.806412 28.2981 0.364414 25.4913 0.364414H22.9163V3.73041Z" fill="#091A5A"/>
<path d="M15.4489 5.80404C15.3716 5.97404 15.4231 6.14404 15.5519 6.14404C15.7064 6.14404 15.8351 5.97404 15.8351 5.80404C15.8351 5.60004 15.7836 5.46404 15.7321 5.46404C15.6549 5.46404 15.5261 5.60004 15.4489 5.80404Z" fill="black"/>
<path d="M149.581 8.8301C149.349 11.1761 149.272 11.2781 147.933 10.8701C146.645 10.4961 143.684 10.9721 142.551 11.7541C140.929 12.8421 139.693 15.6641 139.641 18.3841C139.616 19.9481 140.208 21.3761 141.212 22.1921C142.01 22.8721 142.474 22.9741 144.457 22.9401C145.744 22.9061 147.881 22.8721 149.22 22.8721L151.667 22.8381L152.645 15.2561C153.186 11.0741 153.598 7.5721 153.598 7.4021C153.598 7.2661 152.722 7.1641 151.667 7.1641H149.761L149.581 8.8301ZM148.783 13.3861C149.04 14.2701 148.01 20.5261 147.521 21.0021C146.98 21.5461 145.77 21.5801 145.1 21.1041C143.993 20.3221 144.276 15.9361 145.538 13.9301C146.079 13.0801 146.362 12.9441 147.418 12.9441C148.19 12.9441 148.705 13.1141 148.783 13.3861Z" fill="#091A5A"/>
<path d="M11.0715 9.54428C10.9943 9.71428 11.0973 9.88428 11.3033 9.88428C11.535 9.88428 11.7153 9.71428 11.7153 9.54428C11.7153 9.34028 11.6123 9.20428 11.4835 9.20428C11.329 9.20428 11.1488 9.34028 11.0715 9.54428Z" fill="black"/>
<path d="M58.3227 10.3605C54.2799 11.7885 52.0654 16.1405 53.7392 19.4045C55.1039 22.1245 59.1724 23.5185 62.2882 22.3285C63.6529 21.7845 65.9962 19.5745 65.6614 19.1325C65.5842 19.0305 64.8117 18.9965 63.9619 19.0305C62.5199 19.0985 62.3139 19.2005 61.5414 20.2885C60.8462 21.2405 60.5114 21.4445 59.6359 21.4445C58.2454 21.4445 57.4214 20.4585 57.6532 18.9965C57.7304 18.4185 57.8077 17.7385 57.8077 17.5005C57.8077 17.1265 58.6574 17.0245 62.3139 17.0245H66.8202V16.0045C66.8202 11.4825 62.7517 8.76251 58.3227 10.3605ZM62.5199 11.8225C62.7774 12.1625 62.9577 12.8765 62.9577 13.6585C62.9577 15.9365 62.9062 16.0045 60.3312 16.0045H58.0137L58.1939 14.3725C58.3999 12.5025 58.8634 11.6865 59.9707 11.2785C60.9234 10.9045 61.9019 11.1085 62.5199 11.8225Z" fill="#091A5A"/>
<path d="M39.7568 10.5303C39.3963 10.7003 38.8298 11.0063 38.5208 11.2443C38.1088 11.5163 37.8513 11.5503 37.7483 11.2783C37.6453 11.1083 36.8471 10.8703 35.9458 10.7683C33.9888 10.5983 34.0918 10.3603 33.3451 16.6843C33.0361 19.2003 32.7271 21.6143 32.6498 22.0563C32.5211 22.8383 32.5468 22.8383 34.4008 22.7363L36.2806 22.6343L36.8213 18.3843C37.1303 16.0383 37.4393 13.9643 37.5423 13.7263C37.8256 13.1143 39.4736 12.5023 40.2203 12.7743C40.8641 12.9783 40.8641 13.0123 40.7096 15.0863C40.6066 16.2423 40.4263 17.9423 40.2976 18.8943C40.1946 19.8123 40.0143 21.1043 39.9371 21.6823L39.8083 22.8043H41.6623H43.5421L44.0313 18.5203C44.3146 15.9703 44.6751 13.9643 44.9068 13.5563C45.1386 13.1823 45.7823 12.8083 46.3746 12.7063C48.0483 12.4343 48.1256 12.8423 47.5333 17.7723C47.2243 20.0503 46.9926 22.1583 46.9926 22.3623C46.9926 22.6683 47.5076 22.8043 48.7693 22.8043C50.8293 22.8043 50.5203 23.5523 51.3701 16.7523C51.6791 14.4403 51.8336 12.2643 51.7563 11.8903C51.6533 11.5163 51.2413 11.0063 50.7778 10.7003C49.7993 10.0203 46.9926 10.1903 45.7566 11.0403C44.9841 11.5843 44.8811 11.5503 43.9026 10.9043C42.8726 10.1903 41.0186 10.0543 39.7568 10.5303Z" fill="#091A5A"/>
<path d="M83.4033 10.7002C80.6223 11.8562 78.7168 14.9162 79 17.7722C79.309 20.6962 81.987 22.8042 85.4633 22.8042C87.8065 22.8042 89.4803 22.0562 90.7163 20.4582L91.669 19.2342L89.8923 19.1322C88.476 19.0642 88.064 19.1322 87.8838 19.5742C87.1628 21.2402 85.8238 21.9542 84.5363 21.3762C83.3518 20.8322 83.2745 20.2202 83.7895 16.1402C84.356 11.8902 84.6908 11.2442 86.5448 11.2442C87.9353 11.2442 88.8365 12.2302 88.6048 13.4882C88.4503 14.3042 88.4503 14.3042 90.3815 14.3042C91.4373 14.3042 92.3128 14.1682 92.3128 13.9982C92.3128 13.3182 90.8708 11.4482 89.8665 10.8702C88.6305 10.1222 85.0513 10.0202 83.4033 10.7002Z" fill="#091A5A"/>
<path d="M183.159 10.6661C182.515 10.9381 181.691 11.3801 181.33 11.6861C179.811 12.9781 178.627 16.3441 178.961 18.3501C179.142 19.4721 180.12 20.9001 181.227 21.6821C182.129 22.2941 184.575 22.4641 185.991 21.9881L186.815 21.6821L186.661 22.8381C186.403 24.6401 186.094 25.1161 185.064 25.5241C183.622 26.0341 182.566 25.9321 181.845 25.1841C181.408 24.7421 180.815 24.5041 180.069 24.5041L178.961 24.5381L179.734 25.3541C181.845 27.6661 186.867 27.1221 189.313 24.3341C190.214 23.3141 190.214 23.2461 191.064 16.9221L191.888 10.5301L189.673 10.5981C188.463 10.6321 186.764 10.5641 185.914 10.4281C184.935 10.2921 183.931 10.3941 183.159 10.6661ZM187.562 12.2301C187.871 12.5021 187.845 13.1141 187.459 16.3101C186.944 20.4581 186.815 20.7641 185.167 20.7641C184.137 20.7641 183.21 19.5401 183.21 18.1461C183.21 15.4261 184.498 12.5021 185.862 12.1621C186.841 11.9241 187.201 11.9241 187.562 12.2301Z" fill="#091A5A"/>
<path d="M69.1375 10.8362C69.1375 11.1422 67.9273 20.4242 67.6955 21.8522L67.541 22.8042H69.4723H71.4035L71.9958 18.5202C72.3305 16.1402 72.7425 14.1682 72.897 14.0662C73.0515 13.9982 73.5408 14.4062 73.9785 14.9502C74.5193 15.6642 75.0085 16.0042 75.575 16.0042C77.2488 16.0042 78.9225 14.4402 78.9225 12.8422C78.9225 12.5022 78.6393 11.8562 78.2788 11.4142C77.1973 9.9522 74.4935 10.3942 73.6953 12.1622C73.3348 12.9102 73 12.6382 73 11.5842V10.5642H71.0688C70.013 10.5642 69.1375 10.6662 69.1375 10.8362Z" fill="#091A5A"/>
<path d="M94.6304 10.6323C94.6304 10.7003 94.3471 12.7063 93.9866 15.1543C93.3429 19.4383 93.3429 19.5743 93.8064 20.4243C94.0639 20.9003 94.7849 21.6143 95.4286 22.0563C96.4329 22.7703 96.8449 22.8383 99.2654 22.7363C101.557 22.6343 102.149 22.4983 103.102 21.7843C104.827 20.4923 105.162 19.6763 105.729 15.1203C105.986 12.9103 106.218 10.9723 106.218 10.8023C106.218 10.6663 105.342 10.5643 104.287 10.5643C103.231 10.5643 102.355 10.6323 102.355 10.6663C102.355 10.7343 102.072 12.8423 101.712 15.3583C101.222 18.9623 100.965 20.0503 100.527 20.4923C99.8834 21.2063 98.5186 21.2743 97.8491 20.6283C97.3599 20.1523 97.4114 19.2003 98.4156 11.6523L98.5444 10.5643H96.5874C95.5059 10.5643 94.6304 10.5983 94.6304 10.6323Z" fill="#091A5A"/>
<path d="M108.329 10.8701C108.2 10.9721 107.763 13.7261 107.351 16.9221L106.578 22.8041H108.458C110.595 22.8041 110.312 23.3481 111.084 17.9421C111.342 16.1061 111.677 14.4401 111.805 14.2701C111.986 14.0321 112.32 14.2701 112.861 14.9501C113.428 15.7321 113.891 16.0041 114.561 16.0041C117.187 16.0041 118.809 13.0121 117.136 11.2781C115.951 10.0541 113.968 10.4621 112.604 12.1961L111.883 13.0801V11.9921C111.883 11.1421 111.754 10.8701 111.316 10.7681C110.518 10.5641 108.612 10.6321 108.329 10.8701Z" fill="#091A5A"/>
<path d="M119.222 10.9723C119.17 11.2103 118.887 13.1483 118.578 15.2903C118.063 18.8603 118.063 19.2003 118.449 19.9823C119.196 21.4783 120.973 22.2603 123.676 22.2603C126.354 22.2943 126.509 22.4643 125.299 24.2323C124.603 25.2863 124.423 25.3543 122.955 25.3543C121.745 25.3543 121.282 25.2183 121.05 24.7423C120.792 24.3343 120.355 24.1643 119.376 24.1643C117.831 24.1643 117.831 24.5043 119.428 25.5923C120.329 26.2043 120.947 26.3403 122.955 26.3403C125.762 26.3403 127.153 25.7283 128.543 23.8243C129.65 22.3283 130.037 20.8323 130.68 15.6643C130.964 13.3183 131.273 11.2103 131.324 10.9723C131.401 10.6663 130.938 10.5643 129.522 10.5643H127.616L127.359 12.3323C127.204 13.3183 126.972 15.1203 126.818 16.3443C126.38 19.9143 126.329 20.0843 125.453 20.7643C123.805 22.0903 121.925 21.3083 121.925 19.3023C121.925 18.3163 122.492 13.3183 122.827 11.3123C122.955 10.5983 122.904 10.5643 121.153 10.5643C119.917 10.5643 119.299 10.7003 119.222 10.9723Z" fill="#091A5A"/>
<path d="M155.4 10.7342C155.4 10.8362 155.066 13.4542 154.628 16.5822C154.216 19.6762 153.855 22.3622 153.855 22.4982C153.855 22.6682 154.705 22.8042 155.735 22.8042H157.641L158.233 18.5542C158.542 16.2082 158.928 14.2022 159.083 14.0662C159.237 13.9642 159.546 14.1682 159.778 14.5422C160.731 16.1062 162.43 16.4462 163.795 15.3582C165.185 14.2362 165.391 11.7882 164.181 10.9382C162.971 10.0882 160.344 10.9042 159.752 12.2982C159.314 13.3862 158.98 13.0462 159.16 11.7542L159.314 10.5642H157.357C156.276 10.5642 155.4 10.6322 155.4 10.7342Z" fill="#091A5A"/>
<path d="M166.885 11.1423C166.808 11.4823 166.499 13.4883 166.19 15.6303C165.649 19.4383 165.649 19.5063 166.138 20.3903C166.421 20.8663 167.142 21.6143 167.786 22.0563C168.79 22.7703 169.202 22.8383 171.52 22.7363C173.657 22.6343 174.327 22.4643 175.357 21.7843C177.159 20.5603 177.52 19.7103 177.957 15.8343C178.163 13.9643 178.395 12.0263 178.472 11.4823L178.627 10.5643H176.67C174.867 10.5643 174.713 10.6323 174.61 11.3123C174.533 11.7543 174.224 13.8623 173.915 16.0043C173.322 20.3223 172.962 21.1043 171.52 21.1043C171.056 21.1043 170.464 20.9003 170.207 20.6283C169.743 20.1863 169.743 20.0503 170.181 16.3103C170.413 14.1683 170.696 12.0263 170.773 11.4823L170.902 10.5643H168.971C167.348 10.5643 167.014 10.6663 166.885 11.1423Z" fill="#091A5A"/>
<path d="M14.2128 12.2304C13.6978 12.6724 13.5691 12.9104 13.8266 13.0464C14.0841 13.2164 14.0841 13.3184 13.7493 13.6924C13.3373 14.1344 13.3373 14.2364 13.7236 15.1544C14.1356 16.1404 14.1613 16.1404 14.2386 15.3924C14.2901 14.9844 14.4703 14.6444 14.6763 14.6444C14.8566 14.6444 15.1656 14.1004 15.3201 13.4544C15.5003 12.7404 15.7836 12.2644 16.0411 12.2304C16.4016 12.2304 16.3758 12.1624 15.9638 11.9244C15.1913 11.4824 15.0111 11.5164 14.2128 12.2304Z" fill="black"/>
</svg>
