<svg width="101" height="50" viewBox="0 0 101 50" fill="none" xmlns="http://www.w3.org/2000/svg">
<path d="M23.7669 8.14357C20.3965 8.72227 18.0261 10.5973 16.8409 13.6528C16.452 14.6482 16.3224 15.3426 16.2669 16.9399C16.1743 19.3936 16.4891 20.8288 17.5261 22.4491C18.3965 23.8149 19.6743 24.8102 22.6187 26.4075C27.8594 29.2547 28.4891 29.7408 28.8039 31.176C29.1928 32.9121 28.2483 34.8102 26.6187 35.5973C25.9706 35.9214 25.2298 36.0139 23.5446 36.0139C21.5261 36.0139 21.2298 35.9676 20.2669 35.3889C18.9891 34.6482 18.5631 33.8612 18.2669 31.7547L18.0631 30.2269L15.8965 30.3889C14.7113 30.4584 13.5261 30.551 13.2854 30.551C12.8594 30.5741 12.8409 30.6204 12.9335 32.2408C13.1928 36.8473 15.415 39.7871 19.6557 41.1297C21.4335 41.6852 25.6557 41.7084 27.3409 41.1528C30.3224 40.1575 32.5631 38.051 33.6928 35.2269C34.2483 33.8149 34.2854 33.5602 34.2854 31.2686C34.2854 29.0232 34.2483 28.7454 33.7483 27.6343C32.7483 25.3658 31.6002 24.4167 26.7113 21.7547C25.0817 20.8751 23.3594 19.8334 22.878 19.4399C21.2854 18.1667 21.0261 16.0371 22.3039 14.5556C23.1187 13.6065 23.6187 13.3982 25.3039 13.2593C28.2483 13.051 30.1372 14.301 30.7298 16.8473C30.9891 17.9121 31.0261 17.9584 31.6743 17.9352C32.0446 17.9352 33.2298 17.9121 34.3039 17.8889L36.2854 17.8426L36.1743 16.8241C35.8594 14.0232 34.2113 11.0371 32.1743 9.67135C30.2669 8.37505 26.4891 7.68061 23.7669 8.14357Z" fill="#091A5A"/>
<path d="M68.4838 8.86147C68.4283 9.09295 64.0764 33.8615 63.1875 39.0235C63.0764 39.6485 62.9468 40.3661 62.8912 40.5744C62.8172 40.968 63.0394 40.9911 65.5949 40.9911C68.0764 40.9911 68.3727 40.9448 68.4653 40.5744C68.5209 40.3661 69.0209 37.4726 69.5949 34.1624C70.169 30.8522 70.6875 28.005 70.7246 27.8198C70.7801 27.5652 71.2431 27.5189 72.9838 27.6115C75.4283 27.7272 75.9838 27.9587 76.9097 29.3476C77.6134 30.3892 79.132 34.255 80.3542 38.1439L81.2616 40.968L84.2801 41.0374C85.9283 41.0837 87.2801 41.1068 87.2801 41.0837C87.2801 41.0837 86.9468 40.1346 86.5579 39.0004C84.7986 33.9078 82.7431 29.3244 81.6505 28.0513C81.0579 27.3568 81.0394 27.1022 81.5579 27.1022C82.2431 27.1022 84.1875 26.3846 85.2246 25.7596C88.2616 23.9078 89.9097 19.8568 89.3727 15.5513C88.8912 11.755 87.1875 9.50962 84.2246 8.83832C82.5949 8.46795 68.5949 8.4911 68.4838 8.86147ZM82.706 14.4402C84.3172 15.7596 84.2986 18.5142 82.6875 20.5513C81.3542 22.1948 79.4838 22.7041 74.669 22.7041C72.4468 22.7041 71.7246 22.6346 71.7246 22.4263C71.7246 22.1254 72.9838 14.7179 73.132 14.1855C73.1875 13.9309 74.0949 13.8846 77.706 13.9541C81.669 14.0235 82.2616 14.0698 82.706 14.4402Z" fill="#091A5A"/>
<path d="M48.7666 12.3104C47.0629 12.8197 45.3777 14.4864 44.6926 16.4308C44.1185 18.0049 44.174 20.2734 44.8222 22.3336C45.0815 23.2132 45.2852 23.954 45.2666 23.9771C45.2296 24.0234 44.7852 24.3012 44.2852 24.6253C42.1926 25.9215 40.5815 27.8428 39.7111 30.0651C39.3592 30.991 39.2852 31.5234 39.2852 33.4678C39.2852 35.5975 39.3222 35.8753 39.8222 37.0095C40.9333 39.5095 42.9703 41.0604 45.637 41.4308C48.3222 41.8012 51.2666 41.0836 53.1185 39.6253L53.9333 38.9771L54.6555 39.7873C55.0629 40.2271 55.7111 40.8521 56.1 41.1762L56.8037 41.7549L58.2666 39.9493L59.7296 38.1438L58.6 36.8475L57.4889 35.5512L58.7111 33.491C59.3963 32.3799 59.9148 31.3382 59.8778 31.1993C59.7852 30.829 56.7481 28.6762 56.6 28.8845C56.5444 29.0003 56.137 29.6715 55.6926 30.3891C55.2481 31.1299 54.8037 31.7317 54.7111 31.7317C54.6 31.7317 54.3407 31.454 54.1185 31.1067C53.4518 30.0882 51.0444 25.6438 51.0444 25.4586C51.0444 25.366 51.5259 24.9493 52.1185 24.5558C55.1926 22.5188 57.0074 18.9771 56.4148 16.2225C56.0815 14.7178 54.6185 12.9123 53.2852 12.4262C52.1926 12.0327 49.9333 11.9632 48.7666 12.3104ZM52.1926 16.2225C52.637 16.8938 52.6185 18.0049 52.1555 18.954C51.7666 19.741 49.637 21.616 49.3037 21.4771C48.9703 21.3382 48.4333 18.7225 48.5629 17.9586C48.7481 16.9632 49.1926 16.1993 49.8407 15.8521C50.6 15.4123 51.7852 15.5975 52.1926 16.2225ZM47.5815 28.954C47.8777 29.6021 48.7481 31.1762 49.5259 32.4725C50.3037 33.7688 51.0259 34.9493 51.137 35.1114C51.3777 35.528 50.8592 35.991 49.4148 36.5697C46.5259 37.7734 44.1185 36.5234 43.7296 33.5836C43.5629 32.2873 44.0444 30.6206 44.8963 29.6021C45.5074 28.8614 46.7296 27.7965 46.9703 27.7965C47.0259 27.7965 47.3037 28.329 47.5815 28.954Z" fill="#091A5A"/>
</svg>
