<svg width="25" height="25" viewBox="0 0 25 25" fill="none" xmlns="http://www.w3.org/2000/svg">
<path d="M12.5 0.000488281C5.59644 0.000488281 0 5.59692 0 12.5005C0 19.4041 5.59644 25.0005 12.5 25.0005C19.4036 25.0005 25 19.4041 25 12.5005C25 5.59692 19.4036 0.000488281 12.5 0.000488281ZM18.8291 11.3473C17.5018 11.3473 16.2103 10.9165 15.2158 10.1876L15.2079 15.1437C15.2071 16.062 14.9262 16.9582 14.4028 17.7128C13.8793 18.4673 13.1382 19.0443 12.2784 19.3667C11.4185 19.6891 10.4807 19.7416 9.59024 19.5172C8.69975 19.2928 7.89887 18.8022 7.29447 18.1108C6.69008 17.4194 6.31091 16.5601 6.20758 15.6476C6.10425 14.7351 6.28165 13.8128 6.71613 13.0037C7.15061 12.1947 7.82149 11.5374 8.63926 11.1195C9.45702 10.7016 10.3828 10.5431 11.293 10.6651V13.0989C10.8636 12.9721 10.4052 12.9836 9.98279 13.132C9.56037 13.2803 9.19538 13.5578 8.93957 13.9253C8.68376 14.2927 8.55013 14.7313 8.55762 15.179C8.56512 15.6266 8.71337 16.0605 8.98134 16.4192C9.2493 16.7778 9.62339 17.043 10.0505 17.1771C10.4777 17.3112 10.9362 17.3074 11.3611 17.1662C11.786 17.0251 12.1556 16.7538 12.4176 16.3907C12.6796 16.0277 12.8206 15.5914 12.8207 15.1437V5.33901H15.3244C15.3244 5.79924 15.415 6.25496 15.5911 6.68016C15.7673 7.10535 16.0254 7.49169 16.3508 7.81712C16.6763 8.14254 17.0626 8.40069 17.4878 8.5768C17.913 8.75292 18.3687 8.84356 18.829 8.84355L18.8291 11.3473Z" fill="#B6CBE0" fill-opacity="0.733333"/>
</svg>
