<svg width="34" height="26" viewBox="0 0 34 26" fill="none" xmlns="http://www.w3.org/2000/svg">
<path d="M30.3218 6.69711C30.342 6.97591 30.342 7.2547 30.342 7.53607C30.342 16.1095 23.5315 25.9972 11.0782 25.9972V25.9921C7.39942 25.9972 3.7971 24.9874 0.700195 23.0833C1.23511 23.145 1.77272 23.1758 2.31166 23.1771C5.36029 23.1797 8.32179 22.1994 10.7202 20.3942C7.82307 20.3416 5.28254 18.5313 4.39503 15.8885C5.4099 16.0761 6.4556 16.0375 7.45171 15.7767C4.29314 15.1652 2.02074 12.5056 2.02074 9.417C2.02074 9.38874 2.02074 9.36176 2.02074 9.33478C2.96187 9.83713 4.01562 10.1159 5.0935 10.1468C2.1186 8.24142 1.2016 4.44873 2.99807 1.48343C6.43549 5.53694 11.5072 8.00117 16.9515 8.26198C16.4059 6.00846 17.1513 3.64702 18.9102 2.06287C21.6371 -0.393644 25.9259 -0.267735 28.4892 2.34424C30.0055 2.05773 31.4587 1.52455 32.7886 0.76909C32.2832 2.27101 31.2254 3.5468 29.8124 4.35751C31.1544 4.2059 32.4655 3.86158 33.7003 3.3361C32.7913 4.64144 31.6464 5.77848 30.3218 6.69711Z" fill="white"/>
</svg>
