<svg id="visual" viewBox="0 0 1900 1000" width="1900" height="1000" xmlns="http://www.w3.org/2000/svg" xmlns:xlink="http://www.w3.org/1999/xlink" version="1.1"><path d="M0 161L63.3 204.3C126.7 247.7 253.3 334.3 380 317.7C506.7 301 633.3 181 760 179.3C886.7 177.7 1013.3 294.3 1140 376C1266.7 457.7 1393.3 504.3 1520 517.7C1646.7 531 1773.3 511 1836.7 501L1900 491L1900 0L1836.7 0C1773.3 0 1646.7 0 1520 0C1393.3 0 1266.7 0 1140 0C1013.3 0 886.7 0 760 0C633.3 0 506.7 0 380 0C253.3 0 126.7 0 63.3 0L0 0Z" fill="#6198ff"></path><path d="M0 411L63.3 431C126.7 451 253.3 491 380 464.3C506.7 437.7 633.3 344.3 760 344.3C886.7 344.3 1013.3 437.7 1140 494.3C1266.7 551 1393.3 571 1520 574.3C1646.7 577.7 1773.3 564.3 1836.7 557.7L1900 551L1900 489L1836.7 499C1773.3 509 1646.7 529 1520 515.7C1393.3 502.3 1266.7 455.7 1140 374C1013.3 292.3 886.7 175.7 760 177.3C633.3 179 506.7 299 380 315.7C253.3 332.3 126.7 245.7 63.3 202.3L0 159Z" fill="#3c80ff"></path><path d="M0 621L63.3 637.7C126.7 654.3 253.3 687.7 380 661C506.7 634.3 633.3 547.7 760 556C886.7 564.3 1013.3 667.7 1140 731C1266.7 794.3 1393.3 817.7 1520 812.7C1646.7 807.7 1773.3 774.3 1836.7 757.7L1900 741L1900 549L1836.7 555.7C1773.3 562.3 1646.7 575.7 1520 572.3C1393.3 569 1266.7 549 1140 492.3C1013.3 435.7 886.7 342.3 760 342.3C633.3 342.3 506.7 435.7 380 462.3C253.3 489 126.7 449 63.3 429L0 409Z" fill="#0066ff"></path><path d="M0 891L63.3 902.7C126.7 914.3 253.3 937.7 380 932.7C506.7 927.7 633.3 894.3 760 877.7C886.7 861 1013.3 861 1140 874.3C1266.7 887.7 1393.3 914.3 1520 911C1646.7 907.7 1773.3 874.3 1836.7 857.7L1900 841L1900 739L1836.7 755.7C1773.3 772.3 1646.7 805.7 1520 810.7C1393.3 815.7 1266.7 792.3 1140 729C1013.3 665.7 886.7 562.3 760 554C633.3 545.7 506.7 632.3 380 659C253.3 685.7 126.7 652.3 63.3 635.7L0 619Z" fill="#0059dd"></path><path d="M0 1001L63.3 1001C126.7 1001 253.3 1001 380 1001C506.7 1001 633.3 1001 760 1001C886.7 1001 1013.3 1001 1140 1001C1266.7 1001 1393.3 1001 1520 1001C1646.7 1001 1773.3 1001 1836.7 1001L1900 1001L1900 839L1836.7 855.7C1773.3 872.3 1646.7 905.7 1520 909C1393.3 912.3 1266.7 885.7 1140 872.3C1013.3 859 886.7 859 760 875.7C633.3 892.3 506.7 925.7 380 930.7C253.3 935.7 126.7 912.3 63.3 900.7L0 889Z" fill="#004cbb"></path></svg>