<svg id="visual" viewBox="0 0 1900 1000" width="1900" height="1000" xmlns="http://www.w3.org/2000/svg" xmlns:xlink="http://www.w3.org/1999/xlink" version="1.1"><rect x="0" y="0" width="1900" height="1000" fill="#0F5B33"></rect><path d="M0 306L271 495L543 423L814 540L1086 542L1357 420L1629 482L1900 408L1900 1001L1629 1001L1357 1001L1086 1001L814 1001L543 1001L271 1001L0 1001Z" fill="#0c954c"></path><path d="M0 617L271 367L543 350L814 600L1086 327L1357 371L1629 356L1900 490L1900 1001L1629 1001L1357 1001L1086 1001L814 1001L543 1001L271 1001L0 1001Z" fill="#0c8c49"></path><path d="M0 493L271 589L543 618L814 503L1086 637L1357 689L1629 607L1900 589L1900 1001L1629 1001L1357 1001L1086 1001L814 1001L543 1001L271 1001L0 1001Z" fill="#0c8445"></path><path d="M0 614L271 504L543 753L814 682L1086 564L1357 747L1629 753L1900 544L1900 1001L1629 1001L1357 1001L1086 1001L814 1001L543 1001L271 1001L0 1001Z" fill="#0d7b42"></path><path d="M0 721L271 611L543 742L814 678L1086 609L1357 726L1629 784L1900 591L1900 1001L1629 1001L1357 1001L1086 1001L814 1001L543 1001L271 1001L0 1001Z" fill="#0d733e"></path><path d="M0 839L271 844L543 788L814 851L1086 863L1357 753L1629 792L1900 809L1900 1001L1629 1001L1357 1001L1086 1001L814 1001L543 1001L271 1001L0 1001Z" fill="#0e6b3a"></path><path d="M0 916L271 861L543 798L814 813L1086 797L1357 898L1629 773L1900 783L1900 1001L1629 1001L1357 1001L1086 1001L814 1001L543 1001L271 1001L0 1001Z" fill="#0f6337"></path><path d="M0 850L271 921L543 841L814 873L1086 884L1357 970L1629 926L1900 929L1900 1001L1629 1001L1357 1001L1086 1001L814 1001L543 1001L271 1001L0 1001Z" fill="#0f5b33"></path></svg>