<svg id="visual" viewBox="0 0 1900 1000" width="1900" height="1000" xmlns="http://www.w3.org/2000/svg" xmlns:xlink="http://www.w3.org/1999/xlink" version="1.1"><path d="M0 31L158 81L317 61L475 31L633 71L792 21L950 111L1108 21L1267 111L1425 41L1583 21L1742 41L1900 61L1900 0L1742 0L1583 0L1425 0L1267 0L1108 0L950 0L792 0L633 0L475 0L317 0L158 0L0 0Z" fill="#0ab359"></path><path d="M0 61L158 141L317 131L475 111L633 141L792 71L950 171L1108 111L1267 151L1425 81L1583 111L1742 141L1900 141L1900 59L1742 39L1583 19L1425 39L1267 109L1108 19L950 109L792 19L633 69L475 29L317 59L158 79L0 29Z" fill="#09a955"></path><path d="M0 171L158 291L317 211L475 341L633 251L792 101L950 241L1108 311L1267 371L1425 351L1583 241L1742 331L1900 291L1900 139L1742 139L1583 109L1425 79L1267 149L1108 109L950 169L792 69L633 139L475 109L317 129L158 139L0 59Z" fill="#099f51"></path><path d="M0 241L158 341L317 261L475 351L633 301L792 151L950 251L1108 391L1267 381L1425 411L1583 271L1742 341L1900 371L1900 289L1742 329L1583 239L1425 349L1267 369L1108 309L950 239L792 99L633 249L475 339L317 209L158 289L0 169Z" fill="#0a954c"></path><path d="M0 351L158 381L317 321L475 411L633 441L792 241L950 311L1108 481L1267 421L1425 441L1583 401L1742 441L1900 471L1900 369L1742 339L1583 269L1425 409L1267 379L1108 389L950 249L792 149L633 299L475 349L317 259L158 339L0 239Z" fill="#0b8b48"></path><path d="M0 441L158 511L317 401L475 491L633 701L792 541L950 631L1108 541L1267 631L1425 511L1583 481L1742 671L1900 571L1900 469L1742 439L1583 399L1425 439L1267 419L1108 479L950 309L792 239L633 439L475 409L317 319L158 379L0 349Z" fill="#0b8144"></path><path d="M0 541L158 531L317 511L475 511L633 721L792 661L950 751L1108 581L1267 731L1425 561L1583 511L1742 771L1900 661L1900 569L1742 669L1583 479L1425 509L1267 629L1108 539L950 629L792 539L633 699L475 489L317 399L158 509L0 439Z" fill="#0c7740"></path><path d="M0 831L158 841L317 831L475 821L633 891L792 811L950 841L1108 841L1267 881L1425 881L1583 861L1742 831L1900 881L1900 659L1742 769L1583 509L1425 559L1267 729L1108 579L950 749L792 659L633 719L475 509L317 509L158 529L0 539Z" fill="#0d6e3c"></path><path d="M0 911L158 861L317 871L475 881L633 941L792 881L950 881L1108 871L1267 961L1425 951L1583 921L1742 891L1900 901L1900 879L1742 829L1583 859L1425 879L1267 879L1108 839L950 839L792 809L633 889L475 819L317 829L158 839L0 829Z" fill="#0e6437"></path><path d="M0 1001L158 1001L317 1001L475 1001L633 1001L792 1001L950 1001L1108 1001L1267 1001L1425 1001L1583 1001L1742 1001L1900 1001L1900 899L1742 889L1583 919L1425 949L1267 959L1108 869L950 879L792 879L633 939L475 879L317 869L158 859L0 909Z" fill="#0f5b33"></path></svg>