<svg id="visual" viewBox="0 0 1900 1000" width="1900" height="1000" xmlns="http://www.w3.org/2000/svg" xmlns:xlink="http://www.w3.org/1999/xlink" version="1.1"><path d="M0 91L127 111L253 91L380 111L507 111L633 111L760 91L887 51L1013 51L1140 111L1267 81L1393 41L1520 61L1647 91L1773 91L1900 111L1900 0L1773 0L1647 0L1520 0L1393 0L1267 0L1140 0L1013 0L887 0L760 0L633 0L507 0L380 0L253 0L127 0L0 0Z" fill="#10ea76"></path><path d="M0 161L127 211L253 191L380 231L507 271L633 191L760 141L887 131L1013 211L1140 261L1267 191L1393 171L1520 211L1647 231L1773 241L1900 211L1900 109L1773 89L1647 89L1520 59L1393 39L1267 79L1140 109L1013 49L887 49L760 89L633 109L507 109L380 109L253 89L127 109L0 89Z" fill="#0bd16b"></path><path d="M0 231L127 251L253 231L380 281L507 371L633 261L760 251L887 251L1013 321L1140 351L1267 241L1393 291L1520 261L1647 351L1773 311L1900 321L1900 209L1773 239L1647 229L1520 209L1393 169L1267 189L1140 259L1013 209L887 129L760 139L633 189L507 269L380 229L253 189L127 209L0 159Z" fill="#0ab860"></path><path d="M0 301L127 371L253 341L380 391L507 451L633 321L760 341L887 341L1013 451L1140 451L1267 341L1393 431L1520 391L1647 391L1773 451L1900 421L1900 319L1773 309L1647 349L1520 259L1393 289L1267 239L1140 349L1013 319L887 249L760 249L633 259L507 369L380 279L253 229L127 249L0 229Z" fill="#0ba055"></path><path d="M0 381L127 571L253 491L380 581L507 581L633 521L760 461L887 491L1013 591L1140 521L1267 461L1393 521L1520 541L1647 521L1773 611L1900 611L1900 419L1773 449L1647 389L1520 389L1393 429L1267 339L1140 449L1013 449L887 339L760 339L633 319L507 449L380 389L253 339L127 369L0 299Z" fill="#0d884a"></path><path d="M0 801L127 741L253 661L380 721L507 781L633 841L760 801L887 801L1013 761L1140 761L1267 791L1393 861L1520 741L1647 651L1773 831L1900 811L1900 609L1773 609L1647 519L1520 539L1393 519L1267 459L1140 519L1013 589L887 489L760 459L633 519L507 579L380 579L253 489L127 569L0 379Z" fill="#0e713e"></path><path d="M0 1001L127 1001L253 1001L380 1001L507 1001L633 1001L760 1001L887 1001L1013 1001L1140 1001L1267 1001L1393 1001L1520 1001L1647 1001L1773 1001L1900 1001L1900 809L1773 829L1647 649L1520 739L1393 859L1267 789L1140 759L1013 759L887 799L760 799L633 839L507 779L380 719L253 659L127 739L0 799Z" fill="#0f5b33"></path></svg>