<svg width="25" height="25" viewBox="0 0 25 25" fill="none" xmlns="http://www.w3.org/2000/svg">
<path d="M13.2189 12.5628C13.0275 12.7356 12.7788 12.8312 12.521 12.8312C12.2632 12.8312 12.0145 12.7356 11.8231 12.5628L2.98975 4.53158C3.33637 4.29414 3.74668 4.16705 4.16683 4.16699H20.8335C21.2536 4.16705 21.664 4.29414 22.0106 4.53158L13.2189 12.5628Z" fill="white"/>
<path d="M22.9168 6.52148V17.709C22.9168 18.5378 22.5876 19.3326 22.0015 19.9187C21.4155 20.5047 20.6206 20.834 19.7918 20.834H5.2085C4.37969 20.834 3.58484 20.5047 2.99879 19.9187C2.41274 19.3326 2.0835 18.5378 2.0835 17.709V6.52148L11.1252 14.7715C11.5065 15.1027 11.9951 15.2841 12.5002 15.2819C13.0115 15.2808 13.5046 15.0918 13.8856 14.7507L22.9168 6.52148Z" fill="white"/>
</svg>
