<svg width="26" height="25" viewBox="0 0 26 25" fill="none" xmlns="http://www.w3.org/2000/svg">
<path d="M22.7656 6.64111V4.68799H20.8125V2.73486H14.9531V4.68799H13H11.0469V2.73486H5.1875V4.68799H3.23438V6.64111H1.28125V12.5005H3.23438V14.4536H5.1875V16.4067H7.14062V18.3599H9.09375V20.313H11.0469V22.2661H13L24.7188 10.5474V6.64111H22.7656Z" fill="white"/>
<path d="M7.14062 6.64111H5.1875V8.59424H7.14062V6.64111Z" fill="#D9D9D9"/>
<path d="M14.9531 20.313H13V22.2661H14.9531V20.313Z" fill="#D9D9D9"/>
<path d="M16.9062 18.3599H14.9531V20.313H16.9062V18.3599Z" fill="#D9D9D9"/>
<path d="M18.8594 16.4067H16.9062V18.3599H18.8594V16.4067Z" fill="#D9D9D9"/>
<path d="M20.8125 14.4536H18.8594V16.4067H20.8125V14.4536Z" fill="#D9D9D9"/>
<path d="M22.7656 12.5005H20.8125V14.4536H22.7656V12.5005Z" fill="#D9D9D9"/>
<path d="M24.7188 10.5474H22.7656V12.5005H24.7188V10.5474Z" fill="#D9D9D9"/>
</svg>
