<svg width="25" height="25" viewBox="0 0 25 25" fill="none" xmlns="http://www.w3.org/2000/svg">
<path d="M13.2603 11.9514V11.9175C13.2533 11.9289 13.2458 11.9404 13.2383 11.9514H13.2603Z" fill="#889CBA"/>
<path d="M21.7242 2.05859H3.15051C2.26152 2.05859 1.54053 2.76238 1.54053 3.62978V22.4209C1.54053 23.2878 2.26152 23.9916 3.15051 23.9916H21.7242C22.6146 23.9916 23.3355 23.2874 23.3355 22.4209V3.62978C23.3355 2.76194 22.6141 2.05859 21.7242 2.05859ZM8.14672 20.4193H4.85487V10.5155H8.14672V20.4193ZM6.50102 9.16265H6.47897C5.37477 9.16265 4.6604 8.40197 4.6604 7.45168C4.6604 6.48022 5.39682 5.74071 6.52262 5.74071C7.64887 5.74071 8.34163 6.48022 8.36368 7.45168C8.36368 8.40197 7.64842 9.16265 6.50102 9.16265ZM20.0172 20.4193H16.7254V15.1197C16.7254 13.7889 16.2491 12.8805 15.0581 12.8805C14.1488 12.8805 13.6073 13.493 13.3687 14.0848C13.2818 14.296 13.2607 14.5914 13.2607 14.8878V20.4189H9.96882C9.96882 20.4189 10.012 11.4434 9.96882 10.5151H13.2607V11.917C13.6981 11.2423 14.4804 10.2814 16.228 10.2814C18.3936 10.2814 20.0177 11.6973 20.0177 14.7396L20.0172 20.4193Z" fill="#889CBA"/>
</svg>
