<?xml version="1.0" encoding="UTF-8"?>
<svg version="1.1" viewBox="0 0 1424 1600" width="1280" height="1280" xmlns="http://www.w3.org/2000/svg">
<path transform="translate(74,151)" d="m0 0h1076v2c5.61 0.33 11.2 0.66 17 1v2c1.92-0.0309 1.92-0.0309 3.88-0.0625 3.88-0.0625 3.88-0.0625 6.12 1.06v2h6v2c1.26 0.103 2.52 0.206 3.81 0.312 2.7 0.334 3.95 0.517 6.19 2.12 1 1.56 1 1.56 1 3.56h5c0.33 0.99 0.66 1.98 1 3h5v3h3v2c1.65 0.33 3.3 0.66 5 1v2h3v3h2c1.62 1.37 1.62 1.37 3 3v2h3v3h3v3h2c1.62 1.37 1.62 1.37 3 3v2h3c0.186 1.21 0.186 1.21 0.375 2.44 0.309 1.27 0.309 1.27 0.625 2.56 0.66 0.33 1.32 0.66 2 1v3h2c0.33 1.65 0.66 3.3 1 5h2v3h3v6h2l1 7h2c0.33 1.98 0.66 3.96 1 6h2v8h3v13h2c1.12 10.2 1.14 20.4 1.12 30.7 4.37e-4 1.88 0.00131 3.77 0.00259 5.65 0.00223 5.15-0.00175 10.3-0.00678 15.4-0.00433 5.56-0.00286 11.1-0.0021 16.7 5.24e-4 9.63-0.00261 19.3-0.00824 28.9-0.00814 13.9-0.0107 27.8-0.012 41.8-0.00219 22.6-0.00883 45.2-0.0183 67.8-0.00919 21.9-0.0163 43.9-0.0205 65.8-1.32e-4 0.677-2.63e-4 1.35-3.99e-4 2.05-0.00132 6.8-0.00259 13.6-0.00384 20.4-0.0104 57-0.0281 114-0.0507 171 0.99 0.33 1.98 0.66 3 1v2c2.31 0.33 4.62 0.66 7 1v2h12v3h8v2l11 1v2c1.99-0.0326 3.97-0.0651 5.96-0.0977 2.04 0.0977 2.04 0.0977 5.04 1.1v2h14v2l13 1v2l19 1v2l2.89-0.0352c1.25-0.00902 2.51-0.018 3.8-0.0273l3.76-0.0352c3.01 0.0829 5.63 0.389 8.55 1.1v2h23v2l21 1v2h3v444h-3v3h-3v5h-2l-1 6h-2v3h-2l-1 5h-2l-1 5h-2v3h-3v5l-2 1-1 3h-2l-1 5h-2v3h-3v3h-2l-1 5h-2l-1 3h-2v5h-3v3h-3v3h-2l-1 5h-2v3h-3v3h-3v3h-2v2h-3v5h-3v3c-1.37 1.69-1.37 1.69-3 3h-2v3h-3v3h-3v2h-2v3h-3v3h-3v3h-3v2h-2v3h-3v3h-3v2c-1.38 1.62-1.38 1.62-3 3h-2v3h-3v2c-1.31 1.63-1.31 1.63-3 3h-3v3h-5v3h-3v3h-3v2h-2v3h-3v2l-5 1-1 3h-2v2h-3v3h-3v2l-5 1-1 3h-2v2h-3v3h-5v3h-3v2l-5 1v2h-3v3c-1.21 0.186-1.21 0.186-2.44 0.375-1.27 0.309-1.27 0.309-2.56 0.625l-1 2h-5v3h-3v2l-5 1v2h-3v2l-5 1v2c-1.98 0.33-3.96 0.66-6 1v2h-3v3h-5v2l-5 1v2c-1.98 0.33-3.96 0.66-6 1v2h-3v3h-5v2c-1.98 0.33-3.96 0.66-6 1v2l-5 1v2c-1.21 0.186-1.21 0.186-2.44 0.375-1.27 0.309-1.27 0.309-2.56 0.625l-1 2h-5v2c-1.98 0.33-3.96 0.66-6 1v2h-5v3h-6v3h-6v2c-2.31 0.33-4.62 0.66-7 1v2h-6v3l-8 1v2h-8v2c-2.97 0.33-5.94 0.66-9 1v2h-5v-2l-11-1v-2h-8v-3h-8v-3h-6v-2c-1.65-0.33-3.3-0.66-5-1v-2h-6v-3h-7c-0.33-0.66-0.66-1.32-1-2-2.53-0.656-2.53-0.656-5-1v-2c-1.98-0.33-3.96-0.66-6-1v-2h-5v-3h-5c-0.33-0.66-0.66-1.32-1-2-2.53-0.656-2.53-0.656-5-1v-2h-3v-3h-6v-3h-5v-3h-5v-2h-3v-3h-6v-3h-5v-3h-3v-2h-5v-3h-6v-3h-3v-2l-5-1v-2h-3v-3h-5v-3h-3v-2l-5-1v-2h-3v-3l-2.25 0.312c-2.75-0.312-2.75-0.312-4.94-2.75-0.598-0.846-1.2-1.69-1.81-2.56l-2-1v-2l-5-1v-2h-3v-3h-3v-2h-3v-3h-5v-3h-3v-3h-3v-2c-0.99-0.33-1.98-0.66-3-1v-2h-3v-3h-4c-2.12-2.44-2.12-2.44-4-5l-2-1v-2h-3v-3h-3v-3h-2v-2h-3v-3h-3v-3h-3v-2h-2v-3h-3v-3h-3v-3h-3v-3h-2v-2h-3v-3h-3v-3h-2c-4-4.47-4-4.47-4-7h-2v-3c-0.99-0.33-1.98-0.66-3-1v-2h-2v-3h-3v-3h-3v-3h-2l-1-5h-2c-1.62-1.31-1.62-1.31-3-3v-3h-3v-5h-3v-3h-2l-1-5h-2v-3h-3v-3h-2l-1-5h-2l-1-5h-2v-4h-3v-5h-2l-1-5h-2l-1-6h-2v-3h-2l-1-5h-2l-0.375-2.44-0.625-2.56-2-1c-0.407-2.32-0.744-4.66-1-7h-2v-6h-3v-6h-2c-0.33-1.65-0.66-3.3-1-5h-2v-8h-3v-8h-2l-1-9h-2c-0.33-2.64-0.66-5.28-1-8h-2c-0.33-3.63-0.66-7.26-1-11h-2v-11h-2c-1.1-4.41-1.08-8.48-1-13h-2c-0.33-4.62-0.66-9.24-1-14h-2l-1-19h-2v-20h-5v-2h-6v2h-222v-2h-38v2h-2v-2h-53v2h-2v-2h-45v2h-19v-2h-8v2h-3v-2h-2v2h-27v-2h-6v2h-28v-2h-5v2h-17v-2h-5v2h-178v-2c-0.609 0.00524-1.22 0.0105-1.84 0.0159-22.3 0.167-22.3 0.167-31.2-1.02v-2h-10c-0.495-1.49-0.495-1.49-1-3h-8v-3h-5v-2c-1.98-0.33-3.96-0.66-6-1v-2h-5v-3h-6v-3h-3v-2c-1.65-0.33-3.3-0.66-5-1v-2h-3v-3h-3v-2l-5-1v-832c2.48-0.495 2.48-0.495 5-1v-2h3v-3h3v-2c1.65-0.33 3.3-0.66 5-1v-2h3v-3c0.804-0.124 1.61-0.248 2.44-0.375 0.846-0.206 1.69-0.412 2.56-0.625 0.33-0.66 0.66-1.32 1-2h5v-2c1.65-0.33 3.3-0.66 5-1v-2c1.98-0.33 3.96-0.66 6-1v-2h6v-2c3.21-1.61 6.44-1.06 10-1v-2c8.41-0.495 8.41-0.495 17-1v-2zm0 47v2h-13c-0.33 0.66-0.66 1.32-1 2-2.56 0.625-2.56 0.625-5 1v2c-1.65 0.33-3.3 0.66-5 1v2c-1.32 0.33-2.64 0.66-4 1v2h-3v2h-2v3h-3v3c-1.65 0.33-3.3 0.66-5 1v2h-2c-0.33 1.65-0.66 3.3-1 5h-3v3h-2c-0.495 2.48-0.495 2.48-1 5h-2v6h-3v6h-2l-1 7h-2c-0.33 2.97-0.66 5.94-1 9h-2l-0.184 3.88c-0.0845 1.71-0.169 3.42-0.254 5.12-0.0393 0.839-0.0786 1.68-0.119 2.54-0.198 3.94-0.462 7.81-1.04 11.7-0.389 3.59-0.214 6.24 0.531 9.75 0.354 1.67 0.708 3.33 1.06 5 10.3 1.29 20.5 1.14 30.8 1.13 2.03 0.00104 4.06 0.00253 6.09 0.0044 5.58 0.0039 11.2 0.00156 16.7-0.00178 6.07-0.00253 12.1 7.22e-4 18.2 0.00324 10.6 0.00361 21.3 0.00353 31.9 9.53e-4 11.4-0.00275 22.8-0.00333 34.2-0.00126 0.721 1.29e-4 1.44 2.58e-4 2.19 3.91e-4 2.94 5.33e-4 5.88 0.00108 8.81 0.00165 27.4 0.00529 54.7 0.00565 82.1 0.00285 1.22-1.24e-4 1.22-1.24e-4 2.46-2.51e-4 0.812-8.29e-5 1.62-1.66e-4 2.46-2.51e-4 24.7-0.00252 49.4-0.00317 74.2-0.00198 1.66 7.75e-5 3.31 1.55e-4 4.97 2.31e-4 6.65 3.1e-4 13.3 6.29e-4 20 9.6e-4 18.6 9.17e-4 37.2 0.00149 55.8 0.00179 0.847 1.36e-5 1.69 2.73e-5 2.57 4.14e-5 27 4.09e-4 54-7.18e-4 80.9-0.00289 0.875-7.02e-5 1.75-1.4e-4 2.65-2.13e-4 14.2-0.00114 28.4-0.00236 42.6-0.00359 56.4-0.00486 113-0.00463 169 2.31e-4 14.2 0.00122 28.4 0.00243 42.6 0.00357 0.875 7.04e-5 1.75 1.41e-4 2.65 2.13e-4 27 0.00216 53.9 0.00307 80.9 0.00264 0.846-1.36e-5 1.69-2.72e-5 2.56-4.12e-5 18.6-3.12e-4 37.1-9.46e-4 55.7-0.00187 6.64-3.29e-4 13.3-6.42e-4 19.9-9.51e-4 1.65-7.74e-5 3.31-1.56e-4 4.96-2.36e-4 24.7-0.00119 49.4-1.75e-4 74.2 0.00235 0.811 8.28e-5 1.62 1.66e-4 2.46 2.51e-4 1.21 1.24e-4 1.21 1.24e-4 2.45 2.51e-4 27.3 0.00276 54.5 0.00175 81.8-0.00353 2.93-5.52e-4 5.85-0.00109 8.78-0.00161 0.718-1.3e-4 1.44-2.6e-4 2.18-3.95e-4 11.4-0.00198 22.8-5.96e-4 34.2 0.00216 11.2 0.00264 22.4 0.00164 33.6-0.00301 5.99-0.00239 12-0.00317 18 4.06e-4 5.44 0.00321 10.9 0.00189 16.3-0.00318 1.96-0.00101 3.93-3.25e-4 5.89 0.00221 2.65 0.00318 5.31 2.63e-4 7.96-0.00424 0.766 0.00239 1.53 0.00478 2.32 0.00724 6.68 0.104 6.68 0.104 12.7-2.38 1.58-2.33 1.41-4 1.19-6.75h-2c0.00786-1.42 0.00786-1.42 0.0159-2.87 0.0171-3.53 0.0296-7.05 0.0391-10.6 0.00502-1.52 0.0118-3.05 0.0205-4.57 0.0122-2.19 0.0178-4.39 0.0222-6.58 0.00786-1.98 0.00786-1.98 0.0159-4-0.0904-2.7-0.295-4.84-1.11-7.39h-2v-10h-3v-6h-2c-0.33-1.98-0.66-3.96-1-6h-2c-0.33-1.65-0.66-3.3-1-5h-2v-3h-3v-3h-2c-0.33-0.99-0.66-1.98-1-3h-2v-2h-3v-3h-3v-3h-3v-2h-3v-3h-5v-2c-1.65-0.33-3.3-0.66-5-1v-2c-2.64-0.33-5.28-0.66-8-1v-2h-17v-2c-4.17-1.01-8.09-1.13-12.4-1.13-0.738-0.0014-1.48-0.0028-2.24-0.00425-2.49-0.00349-4.97 1.64e-4 -7.46 0.00376-1.8-0.00104-3.61-0.00252-5.41-0.0044-4.98-0.00391-9.96-0.00155-14.9 0.00178-5.41 0.00253-10.8-7.19e-4 -16.2-0.00324-9.49-0.00362-19-0.0035-28.5-9.53e-4 -14.1 0.00377-28.2 0.00185-42.3-0.00121-23.7-0.00497-47.5-0.00514-71.2-0.00242-1.08 1.24e-4 -1.08 1.24e-4 -2.19 2.51e-4 -1.09 1.24e-4 -1.09 1.24e-4 -2.2 2.51e-4 -22.1 0.00252-44.1 0.00318-66.2 0.00198-1.48-7.75e-5 -2.95-1.55e-4 -4.43-2.31e-4 -5.93-3.1e-4 -11.9-6.29e-4 -17.8-9.6e-4 -16.6-9.17e-4 -33.2-0.00149-49.7-0.00179-0.755-1.36e-5 -1.51-2.73e-5 -2.29-4.14e-5 -24.1-4.09e-4 -48.1 7.18e-4 -72.2 0.00289-1.17 1.05e-4 -1.17 1.05e-4 -2.37 2.13e-4 -12.7 0.00114-25.4 0.00236-38 0.00359-50.3 0.00486-101 0.00463-151-2.31e-4 -12.7-0.00122-25.3-0.00243-38-0.00357-0.78-7.04e-5 -1.56-1.41e-4 -2.36-2.13e-4 -24-0.00216-48.1-0.00307-72.1-0.00264-0.755 1.36e-5 -1.51 2.72e-5 -2.29 4.12e-5 -16.6 3.12e-4 -33.1 9.46e-4 -49.7 0.00187-5.93 3.29e-4 -11.9 6.42e-4 -17.8 9.51e-4 -1.47 7.74e-5 -2.95 1.56e-4 -4.42 2.36e-4 -22 0.00119-44.1 1.76e-4 -66.1-0.00235-0.723-8.28e-5 -1.45-1.66e-4 -2.19-2.51e-4 -0.722-8.27e-5 -1.44-1.65e-4 -2.19-2.51e-4 -24.3-0.00276-48.7-0.00174-73 0.00353-14 0.00294-28.1 0.00312-42.1-6.46e-4 -9.36-0.00224-18.7-8.59e-4 -28.1 0.0035-5.34 0.00239-10.7 0.00317-16-4.06e-4 -4.86-0.00322-9.71-0.00187-14.6 0.00318-1.75 0.00101-3.5 3.34e-4 -5.25-0.00221-2.37-0.0032-4.74-2.43e-4 -7.11 0.00424-1.31 6.78e-5 -2.63 1.36e-4 -3.98 2.05e-4 -3.99 0.133-7.81 0.571-11.8 1.13zm-61 350v2h-2v384h2c-0.0174 0.888-0.0174 0.888-0.0352 1.79-0.0481 4.21-0.0249 8.1 1.04 12.2h2c-0.0206 0.949-0.0412 1.9-0.0625 2.88-0.163 3.03-0.163 3.03 1.06 5.12h2v5c0.99 0.33 1.98 0.66 3 1v5h3v3h2v3h3l1 3h2v2h2v3h3v3h3v2h3v3h5v3h5c0.495 1.48 0.495 1.48 1 3h5v2c2.97 0.33 5.94 0.66 9 1v2h693v-228h2v-8h3v-5h2c1.67-1.33 1.67-1.33 3-3v-2c1.99 0.0326 3.97 0.0651 5.96 0.0977 2.25-0.015 2.25-0.015 5.04-1.1v-2c0.984 0.00524 1.97 0.0105 2.98 0.0159 3.65 0.0181 7.3 0.0296 11 0.0391 1.58 0.00503 3.16 0.0119 4.74 0.0205 2.27 0.0121 4.54 0.0178 6.81 0.0222 1.06 0.00774 1.06 0.00774 2.14 0.0156 3.07 3.52e-4 5.43-0.133 8.37-1.11v-2h27v-2l19-1v-2c1.46 0.0174 1.46 0.0174 2.96 0.0352l3.86 0.0273c1.9 0.0174 1.9 0.0174 3.83 0.0352 3.35 0.0639 3.35 0.0639 6.36-1.1v-2c1.48 0.0174 1.48 0.0174 2.99 0.0352l3.88 0.0273c1.91 0.0174 1.91 0.0174 3.87 0.0352 3.14 0.134 3.14 0.134 5.26-1.1v-2h11v-2l12-1v-2c1.24 0.0206 2.48 0.0412 3.75 0.0625 2.91 0.00517 5.46-0.132 8.25-1.06v-2h9v-3h8v-2l8-1v-2h8l1-3h8v-3h8v-2c1.98-0.33 3.96-0.66 6-1v-2l8-1v-2h6v-2c2.31-0.33 4.62-0.66 7-1v-2c1.98-0.33 3.96-0.66 6-1v-2h5v-3h6v-2c1.98-0.33 3.96-0.66 6-1v-2c1.65-0.33 3.3-0.66 5-1v-2h5v-3h6v-3h5v-2c1.98-0.33 3.96-0.66 6-1v-2h3v-3h5v-2c1.65-0.33 3.3-0.66 5-1v-2c2.97-0.495 2.97-0.495 6-1v-2h3v-3h5c0.33-0.66 0.66-1.32 1-2 2.06-0.625 2.06-0.625 4-1v-2c1.32-0.33 2.64-0.66 4-1v-2h5v-3h3v-2h13v2h5l1 3h3v2c1.65 0.33 3.3 0.66 5 1v2c1.65 0.33 3.3 0.66 5 1v2h3l1 3h5v3h5v2h3v3h6v2l5 1v2l5 1v2c1.98 0.33 3.96 0.66 6 1v2h5v3h5l1 3h5v2l5 1v2h6v3h6v2h5v-14h-2v-57h2v-2h-2v-6h2v-6h-2v-2h2c0.0695-8.16 0.123-16.3 0.155-24.5 0.0157-3.79 0.0369-7.58 0.0709-11.4 0.0326-3.66 0.0505-7.31 0.0583-11 0.00555-1.4 0.0164-2.79 0.0326-4.19 0.0217-1.95 0.023-3.91 0.0234-5.86 0.00999-1.67 0.00999-1.67 0.0202-3.37-0.157-2.68-0.157-2.68-1.4-4.4-3.04-2.09-6.2-1.76-9.76-1.72-0.808-0.00383-1.62-0.00767-2.45-0.0116-2.74-0.00927-5.47 0.00305-8.21 0.0151-1.98-0.00222-3.96-0.00575-5.94-0.0105-5.48-0.00926-11 3.59e-4 -16.4 0.0128-5.94 0.0103-11.9 0.0032-17.8-0.00173-10.4-0.00624-20.9-0.00136-31.3 0.0109-11.2 0.0131-22.4 0.0197-33.6 0.0183-0.706-8.61e-5 -1.41-1.72e-4 -2.14-2.61e-4 -3.6-4.69e-4 -7.2-0.00104-10.8-0.00166-26.1-0.00423-52.2 0.00608-78.3 0.0241-25.8 0.0178-51.7 0.0293-77.5 0.0326-1.2 1.55e-4 -1.2 1.55e-4 -2.43 3.13e-4 -7.33 9.4e-4 -14.7 0.0018-22 0.00257-18.2 0.00192-36.4 0.0048-54.6 0.00833-1.24 2.4e-4 -1.24 2.4e-4 -2.51 4.85e-4 -40.4 0.00787-80.7 0.0268-121 0.0466-14 0.00687-28 0.0137-42 0.0203-0.869 4.11e-4 -1.74 8.22e-4 -2.63 0.00124-40.4 0.019-80.8 0.0302-121 0.0394-2.62 5.94e-4 -5.24 0.00119-7.86 0.00179-17.4 0.00396-34.7 0.00778-52.1 0.0115-34.6 0.00743-69.1 0.0157-104 0.0244-1.65 4.18e-4 -3.29 8.35e-4 -4.94 0.00125-74.1 0.0188-148 0.0468-222 0.0788-1.04 4.5e-4 -1.04 4.5e-4 -2.1 9.09e-4 -34.7 0.015-69.4 0.0305-104 0.0467v2h-2v-2h-37zm1266 375v3h-3v2l-5 1v2h-3v3h-3v3h-3v2c-0.99 0.33-1.98 0.66-3 1v2h-2v3h-3v3h-3v2c-0.99 0.33-1.98 0.66-3 1v2h-2v3h-3v2c-1.49 0.495-1.49 0.495-3 1v2c-1.49 0.495-1.49 0.495-3 1v2h-2v3h-3v2c-1.49 0.495-1.49 0.495-3 1v2c-1.49 0.495-1.49 0.495-3 1v2h-2v3h-3v2c-1.49 0.495-1.49 0.495-3 1v2c-1.49 0.495-1.49 0.495-3 1v2h-2v3h-3v2c-1.49 0.495-1.49 0.495-3 1v2h-2v3h-3v3h-3v2c-1.49 0.495-1.49 0.495-3 1v2h-2v3h-3v3h-3v2h-2v3h-3v3h-3v3h-3v2h-2v3h-3v3h-3v3h-3v2h-2v3h-3v3h-3v3h-3v2h-2v3h-3v3h-3v3h-3v2h-2v3h-3v3h-3v3h-3v2h-2v3h-3v3h-3v3h-2v2h-3v3h-3v3h-3v2h-2v3h-3v3h-3v3h-3v2h-2v3h-3v3h-3v3h-3v2h-2v3h-3v3h-3v2c-0.99 0.33-1.98 0.66-3 1v2h-2v3h-3v3h-3v2c-0.99 0.33-1.98 0.66-3 1v2h-2v3h-3v3h-5c-0.33-0.99-0.66-1.98-1-3h-2v-2c-1.33-1.67-1.33-1.67-3-3h-2v-3h-3v-3h-3v-3h-3v-2h-2v-3h-3v-3h-3v-2c-1.33-1.67-1.33-1.67-3-3h-2v-3h-3c-0.33-0.99-0.66-1.98-1-3h-2v-2c-1.33-1.67-1.33-1.67-3-3h-2v-3h-3v-3h-3v-2c-1.33-1.67-1.33-1.67-3-3h-2v-3h-3v-3h-3v-2h-2v-3h-3v-3h-3v-3h-3v-2h-2v-3h-3v-3h-3v-2c-1.33-1.67-1.33-1.67-3-3h-2v-3h-3v-3h-3v-2c-1.33-1.67-1.33-1.67-3-3h-2v-3h-3v-3h-3v-2h-2v-3h-3v-3h-5l-1-3h-3v-2c-3.14-1.57-6.49-1.14-9.94-1.12l-2.21-0.0117c-3.21 0.00589-5.79 0.114-8.85 1.14v2c-2.48 0.495-2.48 0.495-5 1v2c-1.98 0.495-1.98 0.495-4 1v4c-1.48 0.495-1.48 0.495-3 1v2h-2c-0.33 2.64-0.66 5.28-1 8h-2v9h2c0.495 2.47 0.495 2.47 1 5h2v3h3v5h3v3h3v3h3v3h2l1 3h2v2h3v3h2l1 3h2v2h3v3h3v3h2l1 3h2v2h3v3h3v3h2l1 3h2v2h3v3h3v3h2l1 3h2v2h3v3h3v3h2l1 3h2v2h3v3h3v3h2l1 3h2v2h3v3h2l1 3h2l1 3h2v2c1.33 1.67 1.33 1.67 3 3h2l1 3h2v2c1.65 1.35 3.32 2.69 5 4 0.33 0.66 0.66 1.32 1 2h2l1 3h2v2c1.65 1.35 3.32 2.69 5 4 0.33 0.66 0.66 1.32 1 2h2c0.495 1.49 0.495 1.49 1 3h2v2h3v3h3v3h5v3h3v2c1.65 0.33 3.3 0.66 5 1v2h6v3h5c0.33-0.99 0.66-1.98 1-3h5v-3c0.763 0.0619 1.53 0.124 2.31 0.188 2.71 0.0575 2.71 0.0575 4.5-1.56 1.38-1.56 1.38-1.56 1.19-3.62h3v-3h3v-2c0.99-0.33 1.98-0.66 3-1v-2h2v-3h3v-3h3v-2c0.99-0.33 1.98-0.66 3-1v-2h2v-3h3v-3h3v-2h2v-3h3v-3h3v-3h3v-2h2v-3h3v-3h3v-3h3v-2h2v-3h3v-3h3v-2c0.99-0.33 1.98-0.66 3-1v-2h2v-3h3v-3h3v-2c0.99-0.33 1.98-0.66 3-1v-2h2v-3h3v-3h3v-2h2v-3h3v-3h3v-3h3v-2h2v-3h3v-3h3v-2c0.99-0.33 1.98-0.66 3-1v-2h2v-3h3v-3h3v-2c0.99-0.33 1.98-0.66 3-1v-2h2v-3h3v-3h3v-2h2v-3h3v-3h3v-3h3v-2h2v-3h3v-3h3v-3h3v-2h2v-3h3v-3h3v-3h3v-2h2v-3h3v-3h3v-3h3v-2h2v-3h3v-3h3v-3h2v-2h3v-3h3v-3h3v-3h2v-2h3v-3h3v-3h3v-3h2v-2h3v-3h3v-3h2c1.67-1.33 1.67-1.33 3-3v-2h3v-3h3v-3h2c1.67-1.33 1.67-1.33 3-3v-2h3v-3c1.49-0.495 1.49-0.495 3-1v-2h2l1-5h2v-3h3v-6h2v-5h-2l0.0625-2.88c0.163-3.03 0.163-3.03-1.06-5.12h-2v-3c-1.31-1.73-1.31-1.73-3-3h-2v-3h-3v-2h-3v-3h-3v-2c-3-1.5-5.79-1.09-9.12-1.06l-3.88 0.0273c-0.987 0.0116-1.97 0.0232-2.99 0.0352z" fill="#000100"/>
<path transform="translate(191,650)" d="m0 0h154v2h52v2c1.98 0.33 3.96 0.66 6 1v2h2c0.33 0.99 0.66 1.98 1 3 0.66 0.33 1.32 0.66 2 1v7h2v211h-2v9h-3v2h-2c-0.33 1.32-0.66 2.64-1 4h-2v2h-11v2h-3v-2h-3v2h-252v-2h-10v-3h-3c-0.33-1.65-0.66-3.3-1-5h-2v-8h-2c-1.34-28.2-1.15-56.5-1.13-84.7 0.00477-6-2.5e-5 -12-0.00525-18-0.0267-36.4 0.373-72.8 1.13-109h2v-7h3v-3h3v-3h5v-3h65v-2z" fill="#000100"/>
</svg>
