<svg width="19" height="19" viewBox="0 0 19 19" fill="none" xmlns="http://www.w3.org/2000/svg">
<path d="M3.90104 8.24528C5.40104 11.1932 7.8125 13.6047 10.7656 15.1047L13.0573 12.8078C13.3437 12.5213 13.7552 12.438 14.1146 12.5526C15.2812 12.938 16.5365 13.1463 17.8333 13.1463C18.4115 13.1463 18.875 13.6099 18.875 14.188V17.8338C18.875 18.4119 18.4115 18.8755 17.8333 18.8755C8.05208 18.8755 0.125 10.9484 0.125 1.16715C0.125 0.58903 0.59375 0.125488 1.16667 0.125488H4.8125C5.39062 0.125488 5.85417 0.58903 5.85417 1.16715C5.85417 2.46403 6.0625 3.71924 6.44792 4.8859C6.5625 5.24528 6.47917 5.65674 6.19271 5.9432L3.90104 8.24528Z" fill="white"/>
</svg>
