<?xml version="1.0" encoding="UTF-8"?>
<svg version="1.1" viewBox="0 0 1600 1600" width="1280" height="1280" xmlns="http://www.w3.org/2000/svg">
<path transform="translate(360,229)" d="m0 0h36v3c3.96 0.33 7.92 0.66 12 1 0.33 0.99 0.66 1.98 1 3 3.96 0.495 3.96 0.495 8 1v4h7v4h4v4h5v4h4v4c1.32 0.33 2.64 0.66 4 1v4h3c0.33 2.64 0.66 5.28 1 8h4v11h4v37h-4v8h-4v5h-4c-0.33 2.31-0.66 4.62-1 7-1.49 0.495-1.49 0.495-3 1-0.733 2.02-0.733 2.02-1 4h-4v4h-4v4h-3v4c-0.639 0.103-1.28 0.206-1.94 0.312-1.02 0.34-1.02 0.34-2.06 0.688-0.33 0.99-0.66 1.98-1 3-0.99 0.33-1.98 0.66-3 1-0.33 0.99-0.66 1.98-1 3-0.99 0.33-1.98 0.66-3 1-0.733 2.02-0.733 2.02-1 4h-4v4h-4v4h-4v4h-4v4h-4v4h-4v4h-4v4h-4v4h-4v4h-4v4h-4v4c-1.32 0.33-2.64 0.66-4 1-0.33 1.32-0.66 2.64-1 4h-3c-0.33 1.32-0.66 2.64-1 4h-3c-0.33 1.32-0.66 2.64-1 4h-4v4h-4v7c-0.639 0.103-1.28 0.206-1.94 0.312-1.02 0.34-1.02 0.34-2.06 0.688-0.33 0.99-0.66 1.98-1 3-0.99 0.33-1.98 0.66-3 1-0.733 2.02-0.733 2.02-1 4h-4v4h-4v4h-4v4h-4v4h-4v4h-4v4h-4v4h-4v4c-2.64 0.33-5.28 0.66-8 1-0.33 2.31-0.66 4.62-1 7-2.31 0.33-4.62 0.66-7 1v4h-4v4h-4v4h-4v4h-4v4h-4v4c-0.639 0.103-1.28 0.206-1.94 0.312l-2.06 0.688c-0.33 0.99-0.66 1.98-1 3-0.99 0.33-1.98 0.66-3 1-0.33 0.99-0.66 1.98-1 3h-4v4h-4v4h-4c-0.33 1.65-0.66 3.3-1 5h-3c-0.33 2.64-0.66 5.28-1 8h9v4h960v4h40v4h21v4h15c0.33 1.32 0.66 2.64 1 4l2.48-0.0352 3.27-0.0273c1.6-0.0174 1.6-0.0174 3.23-0.0352 2.55 0.0826 4.59 0.351 7.02 1.1v3c1.24-0.0206 2.47-0.0412 3.75-0.0625 2.91-0.00517 5.46 0.132 8.25 1.06v3c3.96 0.33 7.92 0.66 12 1 0.33 0.99 0.66 1.98 1 3 2.64 0.33 5.28 0.66 8 1v4h12v4h8v4h9v4h7c0.33 0.99 0.66 1.98 1 3 2.64 0.33 5.28 0.66 8 1v4h8v4h8v4h4v4h8v4c1.65 0.33 3.3 0.66 5 1v3c2.31 0.33 4.62 0.66 7 1l1 3c2.02 0.733 2.02 0.733 4 1v3c2.31 0.33 4.62 0.66 7 1l1 3c2.02 0.733 2.02 0.733 4 1v4h4v4h4v4h8v4h4v4h4v4h4v4h4v4h4v4c1.65 0.33 3.3 0.66 5 1v3c1.32 0.33 2.64 0.66 4 1v4h4v4h4v4h4v4h4v8h4v4h4v4h4l1 8h3v4h4l1 8h3c0.103 0.639 0.206 1.28 0.312 1.94 0.227 0.681 0.454 1.36 0.688 2.06 0.99 0.33 1.98 0.66 3 1l1 8h4v4h3l1 8h4v8h4v8h4v8h4l1 8c0.99 0.33 1.98 0.66 3 1v8h4l1 12h3v8h4l1 8c0.99 0.33 1.98 0.66 3 1l1 11c0.99 0.33 1.98 0.66 3 1l1 15h3c1.1 4.41 1.08 8.48 1 13h3l1 13h3c0.87 3 1.12 5.65 1.1 8.77-0.00483 1.33-0.00483 1.33-0.00977 2.7-0.00838 0.92-0.0168 1.84-0.0254 2.79-0.00451 0.936-0.00902 1.87-0.0137 2.84-0.0118 2.3-0.0282 4.61-0.0488 6.91h4v12h4v94h-4v16h-4c0.0116 1.18 0.0232 2.36 0.0352 3.58 0.00938 1.56 0.0185 3.11 0.0273 4.67 0.00838 0.777 0.0168 1.55 0.0254 2.36 0.00322 0.754 0.00645 1.51 0.00977 2.29 0.00524 0.691 0.0105 1.38 0.0159 2.09-0.119 2.11-0.537 3.98-1.11 6.01h-3l0.0352 2.34c0.0519 6-0.123 11.7-1.04 17.7h-3l-1 16h-3c-0.33 3.96-0.66 7.92-1 12-0.99 0.33-1.98 0.66-3 1-0.33 2.64-0.66 5.28-1 8h-3c-0.33 3.96-0.66 7.92-1 12h-4v8h-4v8c-0.99 0.33-1.98 0.66-3 1-0.33 2.64-0.66 5.28-1 8h-4v8h-4v8h-4v8h-4v8h-4c-0.33 2.64-0.66 5.28-1 8h-3c-0.33 1.65-0.66 3.3-1 5h-3c-0.33 2.64-0.66 5.28-1 8h-3c-0.33 2.64-0.66 5.28-1 8h-4v4h-3c-0.33 2.64-0.66 5.28-1 8h-4v4h-4v4c-0.99 0.33-1.98 0.66-3 1-0.33 2.31-0.66 4.62-1 7h-4v4h-4v5h-4v4h-4v4h-4v4h-4v4h-4v4h-4v4h-5v4h-4v4h-4v4h-4v4h-4v4l-8 1v3h-4v4c-0.639 0.103-1.28 0.206-1.94 0.312l-2.06 0.688-1 3c-2.31 0.33-4.62 0.66-7 1l-1 4h-4v4h-8v4h-4v4h-4v4h-8v4l-8 1v3c-0.639 0.103-1.28 0.206-1.94 0.312l-2.06 0.688-1 3c-2.31 0.33-4.62 0.66-7 1-0.33 0.99-0.66 1.98-1 3-2.31 0.33-4.62 0.66-7 1-0.33 0.99-0.66 1.98-1 3-2.64 0.33-5.28 0.66-8 1v3c-2.64 0.33-5.28 0.66-8 1v3c-3.98 1.33-7.85 1.07-12 1-0.33 1.32-0.66 2.64-1 4h-8v3c-2.88 0.961-4.7 1.11-7.69 1.06-1.21-0.0135-1.21-0.0135-2.45-0.0273-0.615-0.0116-1.23-0.0232-1.86-0.0352v4h-12v4h-16v4h-13v4l-19 1c-0.33 0.99-0.66 1.98-1 3-7.92 0.33-15.8 0.66-24 1v3c-21.8 0.33-43.6 0.66-66 1v3h-571v-3c-5.28-0.33-10.6-0.66-16-1-0.33-0.99-0.66-1.98-1-3-2.31-0.33-4.62-0.66-7-1-0.33-0.99-0.66-1.98-1-3-2.31-0.33-4.62-0.66-7-1v-4h-4v-4h-4c-0.155-0.959-0.155-0.959-0.312-1.94-0.227-0.681-0.454-1.36-0.688-2.06-0.99-0.33-1.98-0.66-3-1-0.33-2.31-0.66-4.62-1-7h-4v-8h-4v-9h-4v-12h-4v-20h4v-13h4v-8h4v-8h4v-4h4v-4h4v-4h4v-4h5v-4h8v-4h12v-4c12-0.689 24-1.15 36-1v-3c202-0.33 405-0.66 613-1v-3c5.28-0.33 10.6-0.66 16-1v-3c3.96-0.33 7.92-0.66 12-1v-3c4.05-0.982 7.84-1.08 12-1 0.33-1.32 0.66-2.64 1-4h8v-3c2.64-0.33 5.28-0.66 8-1v-3c2.64-0.33 5.28-0.66 8-1v-4h8v-4h8v-4h5v-4h8v-4h4v-4h8v-4h4v-4c2.64-0.33 5.28-0.66 8-1v-4h4v-4h4c0.33-1.32 0.66-2.64 1-4h3c0.33-1.32 0.66-2.64 1-4h4v-4h4v-4h4v-4h4v-4h4v-4h4v-5h4v-4h4c0.33-2.31 0.66-4.62 1-7h3c0.33-1.65 0.66-3.3 1-5h3c0.33-2.31 0.66-4.62 1-7 0.99-0.33 1.98-0.66 3-1 0.733-2.02 0.733-2.02 1-4h4v-8h4v-8h4v-8h4v-5h3c0.33-3.96 0.66-7.92 1-12h4v-12h4v-12h4v-13h4v-20h4c-0.00524-0.585-0.0105-1.17-0.0159-1.77-0.0208-2.66-0.0338-5.32-0.0466-7.98-0.00838-0.92-0.0168-1.84-0.0254-2.79l-0.00977-2.7c-0.00786-1.23-0.00786-1.23-0.0159-2.48 0.111-2.23 0.493-4.15 1.11-6.29h3v-50h-3c-0.87-3-1.12-5.65-1.1-8.77 0.00483-1.33 0.00483-1.33 0.00977-2.7 0.00838-0.92 0.0168-1.84 0.0254-2.79 0.00451-0.936 0.00902-1.87 0.0137-2.84 0.0118-2.3 0.0282-4.61 0.0488-6.91h-4v-20h-4v-13h-4v-11h-4v-9h-4v-8h-4l-1-8c-0.99-0.33-1.98-0.66-3-1l-1-7c-0.99-0.33-1.98-0.66-3-1l-1-7c-0.99-0.33-1.98-0.66-3-1l-1-8h-3l-1-8h-4v-4h-4v-8h-4v-5h-4v-7h-4v-5h-4v-4h-4v-4h-4v-4h-4v-4h-4v-4h-4v-4h-4v-4c-1.65-0.33-3.3-0.66-5-1v-3h-4v-4c-2.64-0.33-5.28-0.66-8-1v-4h-4v-3c-2.64-0.33-5.28-0.66-8-1-0.33-0.99-0.66-1.98-1-3-2.31-0.33-4.62-0.66-7-1v-4h-5v-3c-2.64-0.33-5.28-0.66-8-1v-4h-8v-4h-8v-4h-12v-4h-8v-4h-9v-4c-1.23 0.0174-1.23 0.0174-2.48 0.0352l-3.27 0.0273c-1.6 0.0174-1.6 0.0174-3.23 0.0352-2.55-0.0826-4.59-0.351-7.02-1.1v-3c-1.24 0.0206-2.47 0.0412-3.75 0.0625-2.91 0.00517-5.46-0.132-8.25-1.06v-3c-1.26 0.0206-2.52 0.0412-3.81 0.0625-5.43 0.00865-10.8-0.497-16.2-1.06v-3h-878v3h-57v-3h-45v4h-4v4h4v4h4v4h4v4h4v4h4v4c1.65 0.33 3.3 0.66 5 1v3c2.31 0.33 4.62 0.66 7 1v4h4v4h4v4h4c0.33 0.99 0.66 1.98 1 3 2.02 0.733 2.02 0.733 4 1v4h4v4h4v4h4v4h4v4h4v4h4v4h4v4h4v4h4c0.103 0.639 0.206 1.28 0.312 1.94 0.227 0.681 0.454 1.36 0.688 2.06 0.99 0.33 1.98 0.66 3 1 0.33 0.99 0.66 1.98 1 3 2.02 0.733 2.02 0.733 4 1v4h4v4h4v4h4v4h4v4h4v4h4v4h4v4h4v4h4c0.103 0.639 0.206 1.28 0.312 1.94 0.227 0.681 0.454 1.36 0.688 2.06 0.99 0.33 1.98 0.66 3 1v4h4v4h4c0.33 0.99 0.66 1.98 1 3 0.99 0.33 1.98 0.66 3 1 0.33 0.99 0.66 1.98 1 3 0.99 0.33 1.98 0.66 3 1v4h4c0.33 0.99 0.66 1.98 1 3 2.02 0.733 2.02 0.733 4 1v4h4v4h4c0.103 0.639 0.206 1.28 0.312 1.94 0.227 0.681 0.454 1.36 0.688 2.06 0.99 0.33 1.98 0.66 3 1 0.33 0.99 0.66 1.98 1 3 0.99 0.33 1.98 0.66 3 1 0.33 0.99 0.66 1.98 1 3 0.99 0.33 1.98 0.66 3 1 0.33 0.99 0.66 1.98 1 3 0.99 0.33 1.98 0.66 3 1 0.33 0.99 0.66 1.98 1 3 0.99 0.33 1.98 0.66 3 1 0.33 0.99 0.66 1.98 1 3 0.99 0.33 1.98 0.66 3 1 0.33 0.99 0.66 1.98 1 3 0.99 0.33 1.98 0.66 3 1 0.33 2.31 0.66 4.62 1 7 1.32 0.33 2.64 0.66 4 1v4h4v4h3c0.961 2.88 1.11 4.7 1.06 7.69-0.00902 0.808-0.018 1.62-0.0273 2.45l-0.0352 1.86h4v36h-4v9h-4v8h-4c-0.33 2.64-0.66 5.28-1 8-0.99 0.33-1.98 0.66-3 1-0.33 0.99-0.66 1.98-1 3h-3v4h-4v4c-0.959 0.155-0.959 0.155-1.94 0.312-0.681 0.227-1.36 0.454-2.06 0.688-0.33 0.99-0.66 1.98-1 3-2.31 0.33-4.62 0.66-7 1-0.33 1.32-0.66 2.64-1 4h-8v3c-4.09 1.15-8.03 1.11-12.2 1.06-0.745-0.00451-1.49-0.00902-2.26-0.0137-1.83-0.0117-3.66-0.0297-5.49-0.0488v3c-2.78 0.787-5.23 1.12-8.11 1.1-0.754-0.00322-1.51-0.00645-2.29-0.00977-0.777-0.00838-1.55-0.0168-2.36-0.0254-0.793-0.00451-1.59-0.00902-2.4-0.0137-1.95-0.0117-3.9-0.0297-5.85-0.0488v-4c-0.831 0.0116-1.66 0.0232-2.52 0.0352-1.63 0.0135-1.63 0.0135-3.29 0.0273-1.08 0.0116-2.16 0.0232-3.27 0.0352-2.92-0.0977-2.92-0.0977-5.92-1.1v-3h-5v-4c-1.65-0.33-3.3-0.66-5-1v-3c-2.31-0.33-4.62-0.66-7-1v-4h-4v-4h-4v-4h-4v-4h-4v-4h-5v-4h-4v-4h-4v-4h-4v-4h-4v-4h-4c-0.103-0.639-0.206-1.28-0.312-1.94-0.227-0.681-0.454-1.36-0.688-2.06-0.99-0.33-1.98-0.66-3-1v-4h-4v-4h-4v-4h-4v-4h-4v-4h-4c-0.33-0.99-0.66-1.98-1-3-2.02-0.733-2.02-0.733-4-1v-4h-4v-4h-4v-4h-4v-4h-4v-4h-4v-4h-4c-0.103-0.639-0.206-1.28-0.312-1.94-0.227-0.681-0.454-1.36-0.688-2.06-0.99-0.33-1.98-0.66-3-1-0.33-0.99-0.66-1.98-1-3-0.99-0.33-1.98-0.66-3-1-0.33-0.99-0.66-1.98-1-3-0.99-0.33-1.98-0.66-3-1l-1-3c-0.99-0.33-1.98-0.66-3-1l-1-3c-0.99-0.33-1.98-0.66-3-1l-1-3c-2.02-0.733-2.02-0.733-4-1v-4h-4v-4h-4v-4h-4v-4h-4v-4h-4v-4h-4v-4h-4l-0.312-1.94-0.688-2.06c-0.99-0.33-1.98-0.66-3-1v-4h-4v-4h-4v-4h-4l-1-3c-0.99-0.33-1.98-0.66-3-1l-1-3c-2.02-0.733-2.02-0.733-4-1v-4h-4v-4h-4v-4h-4v-4h-4v-4h-4l-0.312-1.94-0.688-2.06c-0.99-0.33-1.98-0.66-3-1l-1-3c-0.99-0.33-1.98-0.66-3-1v-4h-4v-4h-4v-4h-4l-1-3c-0.99-0.33-1.98-0.66-3-1l-1-3c-2.02-0.733-2.02-0.733-4-1v-4h-4v-4h-4v-4h-4v-4h-4v-4h-4v-4h-4c-0.103-0.639-0.206-1.28-0.312-1.94-0.34-1.02-0.34-1.02-0.688-2.06-0.99-0.33-1.98-0.66-3-1l-1-3c-0.99-0.33-1.98-0.66-3-1l-1-3c-0.99-0.33-1.98-0.66-3-1l-1-3c-0.99-0.33-1.98-0.66-3-1l-1-3c-2.02-0.733-2.02-0.733-4-1v-4h-4v-4h-4v-4h-4v-4h-4v-4h-4v-4h-4c-0.103-0.639-0.206-1.28-0.312-1.94-0.227-0.681-0.454-1.36-0.688-2.06-0.99-0.33-1.98-0.66-3-1v-4h-4v-4h-4v-4h-4v-4h-4c-0.495-3.96-0.495-3.96-1-8h-4v-4h-3v-4h-4l-1-8h-4v-4h-4v-4h-4v-49h4v-4h4c0.33-1.65 0.66-3.3 1-5h3c0.33-2.31 0.66-4.62 1-7h3c0.33-1.65 0.66-3.3 1-5h3c0.33-1.32 0.66-2.64 1-4h3c0.33-1.32 0.66-2.64 1-4h3l1-8h4v-4h4v-4h4v-4h4v-4h4v-4h4v-4h4v-4h4c0.33-1.65 0.66-3.3 1-5h3c0.33-1.32 0.66-2.64 1-4h3c0.33-1.32 0.66-2.64 1-4h3c0.33-1.32 0.66-2.64 1-4h3v-4h5v-4h4v-4c0.99-0.33 1.98-0.66 3-1 0.733-2.02 0.733-2.02 1-4h4v-3h4v-5h4v-4h4v-4h4c0.33-1.32 0.66-2.64 1-4h3c0.33-1.32 0.66-2.64 1-4h3c0.33-1.32 0.66-2.64 1-4h3c0.33-1.32 0.66-2.64 1-4h4v-4h4v-4h4v-4h4v-4h4v-4h4v-4h4v-4h4v-4h4v-4h4c0.33-1.65 0.66-3.3 1-5h3l1-4h4v-4h4v-4h4v-4h4v-4h4v-4h4v-4h4v-4h4v-4h4c0.33-1.65 0.66-3.3 1-5h3l1-4h3l1-4h3l1-4h3v-4h4v-4h5v-4h4v-4h4v-4h4v-4h4v-4h4v-4h4v-4h4v-4h4v-4h4c0.33-1.65 0.66-3.3 1-5h4v-4h4v-4h4v-4h4v-4h4v-4h4v-4h4v-4h4v-4h4v-4h4v-4h4v-4h4c0.33-1.65 0.66-3.3 1-5h3c0.33-1.32 0.66-2.64 1-4h4v-4h4v-4h4v-4h4v-4h7v-4h5v-4h4v-4c2.64-0.33 5.28-0.66 8-1 0.33-0.99 0.66-1.98 1-3z" fill="#000002"/>
</svg>
