<svg width="163" height="28" viewBox="0 0 163 28" fill="none" xmlns="http://www.w3.org/2000/svg">
<path d="M0 11.3988V22.4404H1.04167H2.08333V12.8918V3.34321H4.72656C7.23958 3.34321 7.40885 3.36057 7.95573 3.74251C8.80208 4.33279 9.375 5.54807 9.375 6.74598C9.375 7.97862 9.15365 8.65571 8.48958 9.45432C7.77344 10.3224 7.29167 10.4613 4.98698 10.4613H2.99479V11.937V13.4127H4.66146H6.34115L7.82552 17.8745L9.32292 22.3536L10.5208 22.4057C11.1849 22.4231 11.7188 22.4231 11.7188 22.3883C11.7188 22.3536 11.0156 20.2182 10.1562 17.6661C9.29688 15.0967 8.59375 12.9786 8.59375 12.9439C8.59375 12.9265 8.8151 12.7529 9.10156 12.562C9.85677 12.0411 10.7161 10.8258 11.1458 9.68001C11.4844 8.72515 11.5234 8.4821 11.5234 6.81543C11.5234 5.07932 11.5104 4.94043 11.0807 3.89876C10.5469 2.59668 9.73958 1.55501 8.75 0.947372L8.00781 0.478622L4.01042 0.42654L0 0.374456V11.3988Z" fill="#091A5A"/>
<path d="M54.1925 11.3639L54.2316 22.3535H55.2733H56.3149L56.354 12.8396L56.38 3.3431H58.9582C61.1587 3.3431 61.6014 3.39518 62.0441 3.67296C62.9556 4.21115 63.6717 5.63477 63.6717 6.88476C63.6717 8.29101 62.7212 9.9056 61.6925 10.2528C61.354 10.3743 60.2342 10.4612 59.1925 10.4612H57.2915V11.9368V13.4125H59.2316C60.2863 13.4125 61.4712 13.3257 61.8618 13.2389C64.3228 12.6139 66.0675 9.55838 65.8462 6.27713C65.703 4.12435 64.5441 1.95421 63.0337 0.947264L62.3045 0.478514L58.229 0.426432L54.1665 0.374348L54.1925 11.3639Z" fill="#091A5A"/>
<path d="M67.7085 11.4161V22.4404H68.8022H69.896L69.9481 17.4404C69.9871 12.805 70.0132 12.4057 70.2736 11.6592C70.9116 9.80154 72.1356 8.65571 73.5158 8.65571C74.6746 8.65571 75.2215 9.08974 75.7163 10.3745L76.1069 11.4161L76.146 16.9196L76.1851 22.4404H77.3048H78.4116L78.3595 16.6592C78.2944 10.3397 78.2423 9.88835 77.4741 8.32585C76.9272 7.24946 75.7814 6.24251 74.7397 5.94737C73.3465 5.54807 71.6017 6.15571 70.4689 7.40571C70.2606 7.66612 70.0392 7.8571 70.0002 7.8571C69.9611 7.8571 69.922 6.17307 69.922 4.12446V0.391817H68.8153H67.7085V11.4161Z" fill="#091A5A"/>
<path d="M17.422 6.05162C15.3257 6.7287 13.5939 8.84676 12.9038 11.6245C12.5002 13.2044 12.5262 15.6002 12.9429 17.1627C14.0106 21.069 16.758 23.2738 19.8439 22.6662C24.1017 21.8502 26.4585 15.7391 24.5314 10.4961C23.7111 8.23912 22.3179 6.74607 20.4819 6.12107C19.3361 5.72176 18.4767 5.7044 17.422 6.05162ZM20.5731 9.24607C21.4455 9.83634 22.2007 10.878 22.5913 12.0412C22.9168 13.0134 22.9429 13.2565 22.8908 14.6107C22.8387 15.7738 22.7606 16.2947 22.4871 16.9891C22.0575 18.1176 21.133 19.2113 20.2996 19.5759C19.4663 19.9579 17.8517 19.8711 17.1746 19.437C14.8048 17.8919 14.1017 13.6211 15.7554 10.8259C16.2892 9.92315 17.1616 9.12454 17.8778 8.88148C18.5679 8.63843 19.9741 8.8294 20.5731 9.24607Z" fill="#091A5A"/>
<path d="M29.8437 6.01665C27.3437 6.86734 26.1197 10.1833 27.3567 12.7875C27.9687 14.1069 29.0234 14.9055 31.3541 15.8604C33.4765 16.7111 34.0234 18.1173 32.7343 19.4368C32.2656 19.8882 32.1744 19.9229 30.9374 19.9229C29.7525 19.9229 29.5572 19.8708 28.9322 19.4368C28.5416 19.159 27.9817 18.6382 27.6692 18.2562C27.3697 17.8916 27.0833 17.5791 27.0312 17.5791C26.9791 17.5791 26.9661 18.343 26.9791 19.2632L27.0182 20.9472L27.6301 21.5201C29.7005 23.4993 32.8385 23.3604 34.4921 21.2076C35.8333 19.4889 36.0156 17.2666 34.9869 15.4611C34.44 14.4889 33.4765 13.7423 32.0572 13.1521C29.4531 12.0757 28.8801 11.468 29.1796 10.0444C29.5312 8.34304 32.1874 8.23887 33.9843 9.85345C34.3619 10.1833 34.6874 10.4611 34.7135 10.4611C34.7395 10.4611 34.7656 9.76665 34.7656 8.89859V7.35345L34.2057 6.91943C32.9296 5.91248 31.1979 5.5479 29.8437 6.01665Z" fill="#091A5A"/>
<path d="M42.1092 6.03395C40.6639 6.45062 39.492 7.50965 38.5936 9.17631C37.7342 10.7909 37.3696 12.2492 37.3696 14.211C37.3696 16.6937 37.8774 18.4992 39.0623 20.2353C40.2993 22.0409 41.5493 22.7006 43.6847 22.6833C44.8566 22.6833 45.2603 22.5965 45.8983 22.2666C46.8228 21.7978 47.5389 21.1555 48.203 20.2353C48.6717 19.5756 49.479 17.9784 49.479 17.718C49.479 17.6485 48.9321 17.5791 48.2681 17.5791H47.0701L46.4972 18.3603C45.742 19.402 44.7785 19.8881 43.4894 19.8881C42.3045 19.9055 41.7707 19.6277 40.8983 18.534C40.2733 17.7527 39.8306 16.6763 39.6743 15.5305L39.5962 14.9749H44.7264H49.8696V14.3152C49.8696 13.2909 49.505 11.3291 49.1405 10.3221C48.9582 9.81868 48.4894 8.95062 48.0988 8.39506C46.6274 6.25965 44.3748 5.37423 42.1092 6.03395ZM44.8826 9.0027C45.7811 9.41937 46.5623 10.1833 46.9399 11.0513C47.1222 11.4506 47.2655 11.8846 47.2655 11.9888C47.2655 12.1451 46.3019 12.1971 43.6196 12.1971C40.703 12.1971 39.9738 12.1451 39.9738 11.9715C39.9738 11.8499 40.1431 11.3812 40.3514 10.9298C41.2498 9.07215 43.1899 8.23881 44.8826 9.0027Z" fill="#091A5A"/>
<path d="M85.0002 6.05114C83.8413 6.41573 82.9559 7.11017 82.0314 8.36017C80.7293 10.1136 80.2215 11.7977 80.2085 14.2803C80.2085 16.8498 80.8205 18.7421 82.2528 20.5303C82.6955 21.0859 83.3726 21.7456 83.7762 22.006C85.3127 23.0129 87.4741 22.9956 89.0236 21.9713L89.7788 21.4678L89.8179 19.6796L89.8569 17.8741L89.3101 18.5338C88.4767 19.5234 87.7345 19.9053 86.5887 19.9053C85.3257 19.9053 84.4793 19.4192 83.659 18.256C82.7736 16.9886 82.5002 16.0511 82.5002 14.2803C82.5002 13.1171 82.5653 12.631 82.7996 12.006C83.2424 10.7734 83.9194 9.83587 84.7397 9.29767C85.3778 8.881 85.6382 8.81156 86.5887 8.81156C87.8778 8.81156 88.646 9.21087 89.4663 10.3046C90.5731 11.7803 90.7554 12.9261 90.7554 18.3949V22.4574L91.771 22.4053L92.7736 22.3532V14.2803V6.20739L91.7059 6.15531L90.6252 6.10323V7.07545V8.06503L90.1434 7.5442C88.659 5.99906 86.8101 5.46086 85.0002 6.05114Z" fill="#091A5A"/>
<path d="M98.5155 6.12099C98.1639 6.2946 97.7212 6.65918 97.5259 6.90223C97.0701 7.47515 97.005 7.45779 97.005 6.72862V6.10362L95.9373 6.15571L94.8566 6.20779L94.8175 14.3154L94.7915 22.4404H95.8722H96.966L97.0441 17.4404C97.0962 13.6036 97.1613 12.2495 97.3175 11.5724C97.7342 9.78418 98.6326 8.62099 99.479 8.77724C99.7264 8.82932 100.026 8.91612 100.13 8.96821C100.26 9.03765 100.443 8.81196 100.703 8.2564C100.924 7.78765 101.172 7.24946 101.276 7.04112C101.445 6.67654 101.419 6.64182 100.911 6.2946C100.13 5.7564 99.2837 5.70432 98.5155 6.12099Z" fill="#091A5A"/>
<path d="M107.552 6.01655C106.849 6.27696 106.211 6.71099 105.638 7.28391L105.221 7.70058L105.182 6.95405L105.143 6.20752L104.075 6.15544L102.995 6.10335V14.2804V22.4575L104.075 22.4054L105.143 22.3534L105.208 17.3186C105.273 12.527 105.286 12.2492 105.573 11.4159C105.963 10.2874 106.432 9.64502 107.226 9.14155C108.411 8.39502 109.7 8.77697 110.299 10.0443C110.612 10.7214 110.612 10.7735 110.677 16.5374L110.742 22.3534L111.823 22.4054L112.89 22.4575V18.8811C112.89 13.0825 113.138 11.2249 114.075 9.97488C114.661 9.17627 115.156 8.88113 116.002 8.77697C116.966 8.6728 117.773 9.19363 118.151 10.2006C118.411 10.8603 118.424 11.2422 118.463 16.6589L118.502 22.4402H119.609H120.703V16.8846C120.703 11.0513 120.638 10.0964 120.117 8.72488C118.789 5.27002 115.273 4.83599 113.008 7.85683L112.383 8.69016L111.914 7.85683C111.042 6.2596 109.049 5.42627 107.552 6.01655Z" fill="#091A5A"/>
<path d="M127.474 6.0168C124.648 6.81541 122.526 10.4092 122.526 14.3328C122.539 18.4474 124.844 22.0411 127.864 22.6661C129.036 22.9092 130.351 22.6487 131.354 21.9717L132.096 21.4856L132.135 19.7842L132.174 18.1001L131.588 18.6904C130.729 19.5585 129.909 19.9231 128.841 19.9057C127.265 19.8883 125.976 18.7599 125.247 16.7807C124.44 14.5932 124.752 12.0932 126.042 10.3397C126.927 9.15916 127.591 8.81194 128.971 8.8293C129.935 8.8293 130.247 8.89875 130.703 9.21125C131.562 9.81889 132.252 10.739 132.643 11.8154L133.008 12.805L133.047 17.614L133.086 22.4404H134.127H135.156L135.13 14.3154L135.091 6.20778H134.049H133.008L132.969 7.11055L132.93 8.01333L132.318 7.38833C130.924 5.96472 129.258 5.49597 127.474 6.0168Z" fill="#091A5A"/>
<path d="M142.187 6.05137C139.739 6.74582 137.786 9.19373 137.174 12.284C136.784 14.2979 136.992 16.7111 137.721 18.4819C138.19 19.6278 139.609 21.3812 140.56 21.9889C141.002 22.2666 141.849 22.5965 142.526 22.7528C143.594 22.9785 143.828 22.9785 144.922 22.7354C146.315 22.4229 147.448 21.7458 148.346 20.7041C148.919 20.0271 149.57 18.8639 149.453 18.7076C149.427 18.6555 149.036 18.3257 148.607 17.9437L147.812 17.2666L147.122 18.1694C146.002 19.593 145.39 19.9229 143.75 19.9229C142.513 19.9229 142.305 19.8708 141.64 19.4368C140.143 18.4472 139.258 16.5028 139.271 14.1937C139.284 12.093 140.169 10.2528 141.654 9.2979C142.318 8.86387 142.513 8.81179 143.75 8.81179C144.974 8.82915 145.195 8.86387 145.859 9.2979C146.302 9.59304 146.849 10.1486 147.187 10.6521L147.773 11.5375L148.568 10.8778C149.01 10.5132 149.388 10.166 149.427 10.0791C149.544 9.85345 149.01 8.82915 148.359 8.03054C147.63 7.14512 146.432 6.36387 145.234 6.03401C144.127 5.72151 143.294 5.72151 142.187 6.05137Z" fill="black"/>
<path d="M150.26 5.94721C150.26 6.03402 151.328 9.2979 152.63 13.1868C153.932 17.093 154.987 20.3396 154.987 20.4437C154.987 20.5305 154.505 22.093 153.906 23.916C153.32 25.7215 152.812 27.3187 152.773 27.4403C152.721 27.6139 152.969 27.6486 153.906 27.6139L155.104 27.5618L158.672 16.7111C160.638 10.7562 162.239 5.8604 162.239 5.82568C162.239 5.79096 161.706 5.7736 161.055 5.7736H159.883L159.505 6.84999C159.31 7.45763 158.659 9.41943 158.073 11.2423C156.445 16.2597 156.354 16.5375 156.25 16.5375C156.198 16.5375 155.351 14.1069 154.349 11.1555L152.552 5.7736H151.406C150.742 5.7736 150.26 5.84304 150.26 5.94721Z" fill="black"/>
</svg>
