<?xml version="1.0" encoding="UTF-8"?>
<svg version="1.1" viewBox="0 0 1600 1144" width="1280" height="1280" xmlns="http://www.w3.org/2000/svg">
<path transform="translate(559,589)" d="m0 0h29c0.33 0.66 0.66 1.32 1 2 3.05 0.47 3.05 0.47 6.56 0.625 1.2 0.0748 2.4 0.15 3.63 0.227 0.927 0.049 1.85 0.098 2.81 0.148v3h10v3c3.3 0.33 6.6 0.66 10 1v2c2.97 0.33 5.94 0.66 9 1v3c2.31 0.33 4.62 0.66 7 1v3h6v2h4v3h6c0.33 0.99 0.66 1.98 1 3 1.98 0.33 3.96 0.66 6 1v3h6v3h7v3c1.32 0.33 2.64 0.66 4 1v2c1.98 0.33 3.96 0.66 6 1v3h6v3h4v3c2.31 0.33 4.62 0.66 7 1v2c2.31 0.33 4.62 0.66 7 1v3h6v3c0.969 0.124 1.94 0.247 2.94 0.375 1.01 0.206 2.02 0.413 3.06 0.625 0.33 0.66 0.66 1.32 1 2 3.03 0.658 3.03 0.658 6 1v3h4v3h6c0.33 0.99 0.66 1.98 1 3 1.98 0.33 3.96 0.66 6 1v3h6v3h4v3c0.969 0.124 1.94 0.247 2.94 0.375 1.01 0.206 2.02 0.413 3.06 0.625 0.33 0.66 0.66 1.32 1 2 3.03 0.658 3.03 0.658 6 1v3h6c0.33 0.99 0.66 1.98 1 3 0.99 0.33 1.98 0.66 3 1v2c2.31 0.33 4.62 0.66 7 1v3h6v3c2.31 0.33 4.62 0.66 7 1v3h6v3h7v3c0.969 0.124 1.94 0.247 2.94 0.375 1.01 0.206 2.02 0.413 3.06 0.625 0.33 0.66 0.66 1.32 1 2 0.99 0.33 1.98 0.66 3 1v2c1.98 0.33 3.96 0.66 6 1v3h7v4h4v2c1.98 0.33 3.96 0.66 6 1v3h7v3c1.98 0.33 3.96 0.66 6 1v3h6c0.33 0.66 0.66 1.32 1 2 3.03 0.658 3.03 0.658 6 1v3c1.32 0.33 2.64 0.66 4 1v2c1.98 0.33 3.96 0.66 6 1v3h7v3h6c0.33 0.99 0.66 1.98 1 3 1.98 0.33 3.96 0.66 6 1v3h4v3h6v3c2.31 0.33 4.62 0.66 7 1v3h6v3h4v3c0.969 0.124 1.94 0.247 2.94 0.375 1.01 0.206 2.02 0.413 3.06 0.625 0.33 0.66 0.66 1.32 1 2 3.03 0.658 3.03 0.658 6 1v3h6v3h4v3c0.969 0.124 1.94 0.247 2.94 0.375 1.01 0.206 2.02 0.413 3.06 0.625 0.33 0.66 0.66 1.32 1 2 3.03 0.658 3.03 0.658 6 1v3c0.969 0.124 1.94 0.247 2.94 0.375 1.01 0.206 2.02 0.413 3.06 0.625 0.33 0.66 0.66 1.32 1 2 3.03 0.658 3.03 0.658 6 1v3h4v3h9v3c1.32 0.33 2.64 0.66 4 1v2h6v3h7v3c0.969 0.124 1.94 0.247 2.94 0.375 1.01 0.206 2.02 0.413 3.06 0.625 0.33 0.66 0.66 1.32 1 2 0.99 0.33 1.98 0.66 3 1v2c1.98 0.33 3.96 0.66 6 1v3h7c0.33 0.99 0.66 1.98 1 3 0.804 0.124 1.61 0.247 2.44 0.375 0.846 0.206 1.69 0.413 2.56 0.625 0.33 0.66 0.66 1.32 1 2 0.99 0.33 1.98 0.66 3 1v3h7v3c1.98 0.33 3.96 0.66 6 1v3h7v3h6v3c1.32 0.33 2.64 0.66 4 1v2c1.98 0.33 3.96 0.66 6 1v3h4v3h3v3h3v4h4v3h3v4h3v6h3c0.33 2.31 0.66 4.62 1 7h2c0.33 2.97 0.66 5.94 1 9h3v43h-3c0.0206 1.09 0.0412 2.19 0.0625 3.31-0.0625 3.69-0.0625 3.69-1.06 6.69h-2c-0.33 2.31-0.66 4.62-1 7h-3v7h-3v6h-3c-0.33 1.32-0.66 2.64-1 4h-2c-0.33 1.98-0.66 3.96-1 6h-3v3h-3c-0.33 1.32-0.66 2.64-1 4h-3v3h-3v3h-3v3c-2.31 0.33-4.62 0.66-7 1v3h-3v3c-3.3 0.33-6.6 0.66-10 1v2c-3.3 0.33-6.6 0.66-10 1v2c-2.88 0.961-4.68 1.12-7.67 1.1-0.893-0.00322-1.79-0.00645-2.71-0.00977-0.929-0.00838-1.86-0.0168-2.81-0.0254-1.41-0.00677-1.41-0.00677-2.85-0.0137-2.32-0.0118-4.64-0.0282-6.96-0.0488v3h-7v-3c-0.893 0.00786-0.893 0.00786-1.8 0.0159-2.69 0.0208-5.38 0.0338-8.07 0.0466-0.937 0.00838-1.87 0.0168-2.84 0.0254-1.34 0.00483-1.34 0.00483-2.71 0.00977-1.24 0.00786-1.24 0.00786-2.51 0.0159-2.06-0.114-2.06-0.114-4.06-1.11v-2c-2.64-0.33-5.28-0.66-8-1v-2c-2.97-0.33-5.94-0.66-9-1v-3h-7v-3c-0.969-0.124-1.94-0.247-2.94-0.375-1.52-0.309-1.52-0.309-3.06-0.625-0.33-0.66-0.66-1.32-1-2-3.03-0.658-3.03-0.658-6-1v-3h-4v-3h-6v-3c-2.31-0.33-4.62-0.66-7-1v-3h-6v-3h-4v-3c-0.969-0.124-1.94-0.247-2.94-0.375-1.52-0.309-1.52-0.309-3.06-0.625-0.33-0.66-0.66-1.32-1-2-3.03-0.658-3.03-0.658-6-1v-3c-1.32-0.33-2.64-0.66-4-1v-2c-1.98-0.33-3.96-0.66-6-1v-2c-1.98-0.33-3.96-0.66-6-1v-3h-7v-3c-0.969-0.124-1.94-0.247-2.94-0.375-1.52-0.309-1.52-0.309-3.06-0.625-0.33-0.66-0.66-1.32-1-2-3.03-0.658-3.03-0.658-6-1v-3h-4v-3h-6v-3c-2.31-0.33-4.62-0.66-7-1v-3h-6v-3c-2.31-0.33-4.62-0.66-7-1v-3h-4v-2c-1.98-0.33-3.96-0.66-6-1v-3h-6v-3c-2.31-0.33-4.62-0.66-7-1v-2c-1.98-0.33-3.96-0.66-6-1v-2h-4v-3h-6c-0.33-0.99-0.66-1.98-1-3-1.98-0.33-3.96-0.66-6-1v-3h-13c-0.33 3.96-0.66 7.92-1 12h-3v7h-4v3h-3v4h-2v2c0.99 0.33 1.98 0.66 3 1v3h6c0.33 0.99 0.66 1.98 1 3 1.98 0.33 3.96 0.66 6 1v2c2.31 0.33 4.62 0.66 7 1v3h6v3c2.31 0.33 4.62 0.66 7 1v3h6v3h7v3c1.98 0.33 3.96 0.66 6 1v3h4v3h6v3c2.31 0.33 4.62 0.66 7 1v3h4v3h6v3h6c0.33 0.99 0.66 1.98 1 3 1.98 0.33 3.96 0.66 6 1v3h4v3h6v3c0.969 0.124 1.94 0.247 2.94 0.375 1.52 0.309 1.52 0.309 3.06 0.625 0.33 0.66 0.66 1.32 1 2 3.03 0.658 3.03 0.658 6 1v2c1.32 0.33 2.64 0.66 4 1v2c0.846 0.103 1.69 0.206 2.56 0.312 3.85 0.77 6.88 2.05 10.4 3.69v3h6v3c2.31 0.33 4.62 0.66 7 1v3h6v3h4v3h6v3c2.31 0.33 4.62 0.66 7 1v3h6v3c2.31 0.33 4.62 0.66 7 1v2c2.31 0.33 4.62 0.66 7 1v3h7v3h12v3c4.62 0.33 9.24 0.66 14 1v2h40v-2c4.29-0.33 8.58-0.66 13-1v-3h13v-3c2.31-0.33 4.62-0.66 7-1v-2c1.98-0.33 3.96-0.66 6-1v-3h7v-3h4v-3c1.98-0.33 3.96-0.66 6-1v-3h3v-3h4v-3c1.98-0.33 3.96-0.66 6-1v-3h3c0.33-1.32 0.66-2.64 1-4h2c0.33-1.32 0.66-2.64 1-4h3v-4c0.99-0.33 1.98-0.66 3-1 2.98-2.29 3.5-4.34 4-8h3v-5h3v-5c0.99-0.33 1.98-0.66 3-1 0.33-2.31 0.66-4.62 1-7h3v-9h3c-0.0116-0.687-0.0232-1.37-0.0352-2.08-0.0135-1.35-0.0135-1.35-0.0273-2.73-0.0116-0.893-0.0232-1.79-0.0352-2.71 0.0977-2.48 0.0977-2.48 1.1-5.48h2c0.33-3.63 0.66-7.26 1-11h2v-31h-2c-0.33-3.3-0.66-6.6-1-10h-2v-5h2v-3h7v-3c4.29-0.33 8.58-0.66 13-1v-2c3.3-0.33 6.6-0.66 10-1v-3h11v-3c3.96-0.33 7.92-0.66 12-1v-2c3.63-0.33 7.26-0.66 11-1v-2c2.52-1.26 4.31-1.1 7.12-1.06 0.91 0.00902 1.82 0.018 2.76 0.0273 1.05 0.0174 1.05 0.0174 2.12 0.0352v-3h10v-3c3.63-0.33 7.26-0.66 11-1v-2c2.88-0.961 4.7-1.11 7.69-1.06l2.45 0.0273c0.615 0.0116 1.23 0.0232 1.86 0.0352v-3h11v-3c0.855-0.049 1.71-0.098 2.59-0.148 1.66-0.112 1.66-0.112 3.35-0.227 1.1-0.0696 2.2-0.139 3.34-0.211 0.898-0.137 1.8-0.273 2.72-0.414 0.33-0.66 0.66-1.32 1-2 2.94-0.414 2.94-0.414 6.56-0.625 1.8-0.112 1.8-0.112 3.63-0.227 0.927-0.049 1.85-0.098 2.81-0.148v-3h13v-3h10v-3c4.29-0.33 8.58-0.66 13-1v-3h10v-3c4.29-0.33 8.58-0.66 13-1v-2c3.3-0.33 6.6-0.66 10-1v-2c3.01-1 5.04-1.1 8.19-1.06 0.901 0.00902 1.8 0.018 2.73 0.0273 1.03 0.0174 1.03 0.0174 2.08 0.0352v-3h10v-3c3.3-0.33 6.6-0.66 10-1v-2c2.99-0.872 5.64-1.11 8.75-1.06 0.799 0.00902 1.6 0.018 2.42 0.0273 0.905 0.0174 0.905 0.0174 1.83 0.0352v-3h11v-2c3.01-1 5.04-1.1 8.19-1.06 0.901 0.00902 1.8 0.018 2.73 0.0273 1.03 0.0174 1.03 0.0174 2.08 0.0352v-2c3.01-1 5.04-1.1 8.19-1.06 0.901 0.00902 1.8 0.018 2.73 0.0273 1.03 0.0174 1.03 0.0174 2.08 0.0352v-3h19v-3h34v3h13c0.33 0.99 0.66 1.98 1 3 2.97 0.33 5.94 0.66 9 1v2h6v3h4v3c1.98 0.33 3.96 0.66 6 1v3h4v3h3c0.33 0.99 0.66 1.98 1 3 0.66 0.33 1.32 0.66 2 1v3h3c0.33 1.98 0.66 3.96 1 6h3v3h3v4h3c0.33 2.31 0.66 4.62 1 7h3v9h3c0.186 1.45 0.186 1.45 0.375 2.94 0.309 1.52 0.309 1.52 0.625 3.06 0.66 0.33 1.32 0.66 2 1 0.414 2.94 0.414 2.94 0.625 6.56 0.112 1.8 0.112 1.8 0.227 3.63 0.049 0.927 0.098 1.85 0.148 2.81h3v34h-3c-0.33 4.29-0.66 8.58-1 13h-2c-0.33 2.97-0.66 5.94-1 9h-3v10h-3c-0.33 1.32-0.66 2.64-1 4h-2c-0.33 1.98-0.66 3.96-1 6h-3v3h-3l-0.375 2.94c-0.206 1.01-0.412 2.02-0.625 3.06-0.66 0.33-1.32 0.66-2 1-0.33 0.99-0.66 1.98-1 3h-3v3h-3v4h-4v3h-3v3c-1.98 0.33-3.96 0.66-6 1-0.33 0.99-0.66 1.98-1 3h-3v3h-6v3c-3.3 0.33-6.6 0.66-10 1v2c-3.3 0.33-6.6 0.66-10 1v3h-10v3h-13v3c-4.29 0.33-8.58 0.66-13 1-0.33 0.99-0.66 1.98-1 3h-10v3c-3.96 0.33-7.92 0.66-12 1v2c-3.63 0.33-7.26 0.66-11 1v2c-3.01 1-5.04 1.1-8.19 1.06l-2.73-0.0273c-1.03-0.0174-1.03-0.0174-2.08-0.0352v3h-10v3c-3.96 0.33-7.92 0.66-12 1v2c-3.67 1.18-7.17 1.07-11 1v3h-13v3c-3.3 0.33-6.6 0.66-10 1v2c-3.3 0.33-6.6 0.66-10 1v3h-13v3c-4.29 0.33-8.58 0.66-13 1v2c-3.3 0.33-6.6 0.66-10 1v2c-3.01 1-5.04 1.1-8.19 1.06-1.35-0.0135-1.35-0.0135-2.73-0.0273-1.03-0.0174-1.03-0.0174-2.08-0.0352v3h-11v3c-4.29 0.33-8.58 0.66-13 1v2c-2.88 0.961-4.7 1.11-7.69 1.06-1.21-0.0135-1.21-0.0135-2.45-0.0273-0.615-0.0116-1.23-0.0232-1.86-0.0352v3h-11v3h-10v3c-4.29 0.33-8.58 0.66-13 1v3h-10v3h-10v3c-4.29 0.33-8.58 0.66-13 1v3h-13v3h-10v3c-4.29 0.33-8.58 0.66-13 1-0.33 0.99-0.66 1.98-1 3h-10v3c-0.855 0.049-1.71 0.098-2.59 0.148-1.66 0.112-1.66 0.112-3.35 0.227-1.1 0.0696-2.2 0.139-3.34 0.211-0.898 0.137-1.8 0.273-2.72 0.414-0.33 0.66-0.66 1.32-1 2-2.94 0.414-2.94 0.414-6.56 0.625-1.8 0.112-1.8 0.112-3.63 0.227-0.927 0.049-1.85 0.098-2.81 0.148v2c-3.47 1.16-6.36 1.07-10 1v2c-2.64 1.32-4.68 1.1-7.62 1.06-1-0.00902-2.01-0.018-3.04-0.0273-0.771-0.0116-1.54-0.0232-2.34-0.0352v2c-3.01 1-5.04 1.1-8.19 1.06-1.35-0.0135-1.35-0.0135-2.73-0.0273-1.03-0.0174-1.03-0.0174-2.08-0.0352v2c-3.3 0.33-6.6 0.66-10 1v3h-10v3h-13v3c-3.3 0.33-6.6 0.66-10 1v2c-3.01 1-5.04 1.1-8.19 1.06-0.901-0.00902-1.8-0.018-2.73-0.0273-1.03-0.0174-1.03-0.0174-2.08-0.0352v3h-10v3c-3.3 0.33-6.6 0.66-10 1v2c-2.99 0.872-5.64 1.11-8.75 1.06-0.799-0.00902-1.6-0.018-2.42-0.0273-0.905-0.0174-0.905-0.0174-1.83-0.0352v3h-10v3c-4.29 0.33-8.58 0.66-13 1v2c-2.31 0.33-4.62 0.66-7 1v3h-251v-3c-1.32-0.33-2.64-0.66-4-1v-3h-3v-2c-1.98-0.33-3.96-0.66-6-1v-3c-2.31-0.33-4.62-0.66-7-1v-3h-4v-3h-6v-3c-1.32-0.33-2.64-0.66-4-1v-2c-1.98-0.33-3.96-0.66-6-1v-3h-6v-3h-4v-3c-1.98-0.33-3.96-0.66-6-1v-2c-1.32-0.33-2.64-0.66-4-1v-2h-6v-3c-1.32-0.33-2.64-0.66-4-1v-2c-1.98-0.33-3.96-0.66-6-1v-3h-7v-3c-1.32-0.33-2.64-0.66-4-1v-2c-1.98-0.33-3.96-0.66-6-1v-3h-6v-3h-4v-3c-1.98-0.33-3.96-0.66-6-1v-3h-4v-3h-6v-3c-2.31-0.33-4.62-0.66-7-1v-3h-4v-3h-6v-3c-1.98-0.33-3.96-0.66-6-1v-3h-4v-3h-6v-3c-2.31-0.33-4.62-0.66-7-1v-3h-3v-3h-7v-3c-1.32-0.33-2.64-0.66-4-1v-2c-1.98-0.33-3.96-0.66-6-1v-3h-6v-3h-4v-3c-1.98-0.33-3.96-0.66-6-1v-3h-4v-2c-1.98-0.33-3.96-0.66-6-1v-3c-0.969-0.124-1.94-0.247-2.94-0.375-1.52-0.309-1.52-0.309-3.06-0.625-0.33-0.66-0.66-1.32-1-2-0.99-0.33-1.98-0.66-3-1-0.33-0.66-0.66-1.32-1-2-3.03-0.658-3.03-0.658-6-1v-3h-6c-0.33-0.99-0.66-1.98-1-3-0.99-0.33-1.98-0.66-3-1v-2c-1.98-0.33-3.96-0.66-6-1v-3h-7v-3c-1.98-0.33-3.96-0.66-6-1v-3h-4v-3h-6v-3h-4v-3h-13v3h-7v3h-13v3c-4.29 0.33-8.58 0.66-13 1v2c-3.3 0.33-6.6 0.66-10 1v3h-13v3c-4.29 0.33-8.58 0.66-13 1v2c-4.29 0.33-8.58 0.66-13 1-0.33 0.99-0.66 1.98-1 3h-10v3c-0.638 0.049-1.28 0.098-1.93 0.148-1.24 0.112-1.24 0.112-2.5 0.227-0.824 0.0696-1.65 0.139-2.5 0.211-0.682 0.137-1.36 0.273-2.07 0.414-0.33 0.66-0.66 1.32-1 2-2.94 0.414-2.94 0.414-6.56 0.625-1.2 0.0748-2.4 0.15-3.63 0.227-0.927 0.049-1.85 0.098-2.81 0.148v2c-3.47 1.16-6.36 1.07-10 1v3c-0.855 0.049-1.71 0.098-2.59 0.148-1.66 0.112-1.66 0.112-3.35 0.227-1.1 0.0696-2.2 0.139-3.34 0.211-0.898 0.137-1.8 0.273-2.72 0.414-0.33 0.66-0.66 1.32-1 2-2.29 0.414-2.29 0.414-5.06 0.625-1.38 0.112-1.38 0.112-2.79 0.227-0.71 0.049-1.42 0.098-2.15 0.148v2c-4.29 0.33-8.58 0.66-13 1v3h-10v3h-10v3c-3.96 0.33-7.92 0.66-12 1-0.33 0.99-0.66 1.98-1 3h-13v3h-10v3c-3.63 0.33-7.26 0.66-11 1v2c-2.52 1.26-4.31 1.1-7.12 1.06-0.91-0.00902-1.82-0.018-2.76-0.0273-0.699-0.0116-1.4-0.0232-2.12-0.0352v3h-14v3c-4.29 0.33-8.58 0.66-13 1v2c-3.47 1.16-6.36 1.07-10 1v3c-0.855 0.049-1.71 0.098-2.59 0.148-1.66 0.112-1.66 0.112-3.35 0.227-1.1 0.0696-2.2 0.139-3.34 0.211-0.898 0.137-1.8 0.273-2.72 0.414-0.33 0.66-0.66 1.32-1 2h-9c-0.33-2.97-0.66-5.94-1-9h-3v-14h-3c-0.33-4.29-0.66-8.58-1-13h-2c-0.495-4.95-0.495-4.95-1-10h-3v-13h-3v-10h-3c-0.495-4.95-0.495-4.95-1-10h-2c-1-3.01-1.1-5.04-1.06-8.19 0.00902-0.901 0.018-1.8 0.0273-2.73 0.0116-0.687 0.0232-1.37 0.0352-2.08h-3v-10h-3c-0.33-4.29-0.66-8.58-1-13-0.99-0.33-1.98-0.66-3-1v-9h-3v-10h-3c-0.33-4.29-0.66-8.58-1-13h-2c-0.33-2.97-0.66-5.94-1-9h-3v-10h-3c-0.33-4.29-0.66-8.58-1-13h-2c-0.33-4.29-0.66-8.58-1-13h-3v-11h-3c-0.33-3.96-0.66-7.92-1-12h-2c-0.33-3.3-0.66-6.6-1-10-0.99-0.33-1.98-0.66-3-1v-12h-3v-11h-3c-0.33-3.3-0.66-6.6-1-10h-2c-0.961-2.88-1.11-4.7-1.06-7.69 0.00902-0.808 0.018-1.62 0.0273-2.45 0.0116-0.615 0.0232-1.23 0.0352-1.86h-3v-11h-3c-0.33-4.29-0.66-8.58-1-13h-2c-0.495-4.95-0.495-4.95-1-10h-3v-10h-3v-13h3v-3c5.28-0.33 10.6-0.66 16-1v-2c3.67-1.18 7.17-1.07 11-1v-3h10v-3c0.638-0.049 1.28-0.098 1.93-0.148 0.826-0.0748 1.65-0.15 2.5-0.227 0.824-0.0696 1.65-0.139 2.5-0.211 0.682-0.137 1.36-0.273 2.07-0.414 0.33-0.66 0.66-1.32 1-2 2.72-0.414 2.72-0.414 6.06-0.625 1.66-0.112 1.66-0.112 3.35-0.227 1.28-0.0735 1.28-0.0735 2.59-0.148 0.495-1.49 0.495-1.49 1-3h10v-3h10v-3c4.29-0.33 8.58-0.66 13-1v-2c3.47-1.16 6.36-1.07 10-1v-3h13v-3c4.29-0.33 8.58-0.66 13-1v-2c3.47-1.16 6.36-1.07 10-1v-3h13v-3c4.29-0.33 8.58-0.66 13-1v-2c3.3-0.33 6.6-0.66 10-1v-3h13v-3c0.71-0.049 1.42-0.098 2.15-0.148 1.38-0.112 1.38-0.112 2.79-0.227 0.917-0.0696 1.83-0.139 2.78-0.211 0.754-0.137 1.51-0.273 2.29-0.414 0.33-0.66 0.66-1.32 1-2 2.29-0.414 2.29-0.414 5.06-0.625 1.38-0.112 1.38-0.112 2.79-0.227 0.71-0.049 1.42-0.098 2.15-0.148v-2c2.88-0.961 4.7-1.11 7.69-1.06 0.808 0.00902 1.62 0.018 2.45 0.0273 0.615 0.0116 1.23 0.0232 1.86 0.0352v-3c0.71-0.049 1.42-0.098 2.15-0.148 1.38-0.112 1.38-0.112 2.79-0.227 0.917-0.0696 1.83-0.139 2.78-0.211 0.754-0.137 1.51-0.273 2.29-0.414 0.33-0.66 0.66-1.32 1-2 2.72-0.414 2.72-0.414 6.06-0.625 1.66-0.112 1.66-0.112 3.35-0.227 0.855-0.049 1.71-0.098 2.59-0.148v-2c3.67-1.18 7.17-1.07 11-1v-3h10v-3c0.855-0.049 1.71-0.098 2.59-0.148 1.66-0.112 1.66-0.112 3.35-0.227 1.65-0.104 1.65-0.104 3.34-0.211 0.898-0.137 1.8-0.273 2.72-0.414 0.33-0.66 0.66-1.32 1-2 2.94-0.414 2.94-0.414 6.56-0.625 1.2-0.0748 2.4-0.15 3.63-0.227 0.927-0.049 1.85-0.098 2.81-0.148v-3h13v-3h10v-3c4.29-0.33 8.58-0.66 13-1 0.33-0.99 0.66-1.98 1-3h12v-3h10v-3l10-1v-2c3.01-1 5.04-1.1 8.19-1.06 0.901 0.00902 1.8 0.018 2.73 0.0273 0.687 0.0116 1.37 0.0232 2.08 0.0352v-3h11v-3c0.638-0.049 1.28-0.098 1.93-0.148 0.826-0.0748 1.65-0.15 2.5-0.227 0.824-0.0696 1.65-0.139 2.5-0.211 0.682-0.137 1.36-0.273 2.07-0.414 0.33-0.66 0.66-1.32 1-2 2.72-0.414 2.72-0.414 6.06-0.625 1.1-0.0748 2.21-0.15 3.35-0.227 0.855-0.049 1.71-0.098 2.59-0.148 0.33-0.99 0.66-1.98 1-3h10v-2c3.01-1 5.04-1.1 8.19-1.06 0.901 0.00902 1.8 0.018 2.73 0.0273 0.687 0.0116 1.37 0.0232 2.08 0.0352v-2c4.29-0.33 8.58-0.66 13-1v-3h10v-3c7.92-0.495 7.92-0.495 16-1v-2c4.62-0.33 9.24-0.66 14-1v-2c3.42-1.14 6.09-1.1 9.69-1.06 1.77 0.0135 1.77 0.0135 3.57 0.0273 0.904 0.0116 1.81 0.0232 2.74 0.0352v-3h17v-3z"/>
<path transform="translate(1088)" d="m0 0h118c0.33 11.9 0.66 23.8 1 36 0.99 0.33 1.98 0.66 3 1v2h3v3h10v3c1.36-0.0619 1.36-0.0619 2.75-0.125 3.13 0.12 4.64 0.516 7.25 2.12v2h10v3h9v3h7c0.33 0.99 0.66 1.98 1 3 0.969 0.124 1.94 0.248 2.94 0.375 1.01 0.206 2.02 0.412 3.06 0.625 0.33 0.66 0.66 1.32 1 2 3.03 0.658 3.03 0.658 6 1v3h6c0.33 0.99 0.66 1.98 1 3 0.99 0.33 1.98 0.66 3 1v3h13v-4h3v-3h3v-3c1.49-0.495 1.49-0.495 3-1 0.33-0.99 0.66-1.98 1-3h3v-3h3v-3h4v-3h3v-4h3c0.33-0.99 0.66-1.98 1-3h3v-3h3v-3h3v-3h4v-3h3v-3h3c0.33-1.32 0.66-2.64 1-4h9v3c1.45 0.186 1.45 0.186 2.94 0.375 1.01 0.206 2.02 0.412 3.06 0.625 0.33 0.66 0.66 1.32 1 2 0.99 0.33 1.98 0.66 3 1v3h3v3c1.32 0.33 2.64 0.66 4 1v2h3v3h3v3h3c0.33 0.99 0.66 1.98 1 3 0.99 0.33 1.98 0.66 3 1v3h3v3c1.32 0.33 2.64 0.66 4 1v2c0.99 0.33 1.98 0.66 3 1v3h6c0.33 0.99 0.66 1.98 1 3 0.66 0.33 1.32 0.66 2 1 0.625 2.56 0.625 2.56 1 5 0.99 0.33 1.98 0.66 3 1v3h6c0.33 0.99 0.66 1.98 1 3l1.56 1.44c1.44 1.56 1.44 1.56 1.44 5.56h3v3c1.32 0.33 2.64 0.66 4 1v3h3v6h3v11h-3c-0.33 1.32-0.66 2.64-1 4h-2c-0.186 1.21-0.186 1.21-0.375 2.44-0.206 0.846-0.412 1.69-0.625 2.56-0.66 0.33-1.32 0.66-2 1-0.33 0.99-0.66 1.98-1 3-2.97 0.495-2.97 0.495-6 1-0.33 1.98-0.66 3.96-1 6h-3v3h-3v3c-0.99 0.33-1.98 0.66-3 1-2.37 2-2.99 2.97-4 6h-3v3h-4v3c-1.65 0.33-3.3 0.66-5 1-0.33 0.99-0.66 1.98-1 3h-3v2h-3c-0.33 1.32-0.66 2.64-1 4h-3c0.33 1.98 0.66 3.96 1 6h3v3c0.99 0.33 1.98 0.66 3 1v3h3v6h3c0.33 2.31 0.66 4.62 1 7h3v6h3c0.33 2.31 0.66 4.62 1 7h2c0.124 0.969 0.247 1.94 0.375 2.94 0.206 1.01 0.412 2.02 0.625 3.06 0.66 0.33 1.32 0.66 2 1 0.407 2.32 0.744 4.66 1 7h3v9h3v10h3c0.33 3.3 0.66 6.6 1 10h2c1.48 2.96 1.06 5.74 1 9h3c0.33 0.99 0.66 1.98 1 3 0.727-0.00524 1.45-0.0105 2.2-0.0159 18.6-0.115 37.2 0.24 55.8 1.02 0.33 0.66 0.66 1.32 1 2 2.32 0.407 4.66 0.744 7 1v3h6v10h3v92h-3v4h-3v3c-3.3 0.33-6.6 0.66-10 1v2c-18.5 0.33-37 0.66-56 1-0.33 1.98-0.66 3.96-1 6h-3v13h-3v7h-3c-0.33 3.3-0.66 6.6-1 10h-2c-0.33 2.97-0.66 5.94-1 9h-3v7h-3c-0.33 2.31-0.66 4.62-1 7h-3v9h-3v4h-3c-0.33 1.32-0.66 2.64-1 4h-2c-0.33 1.98-0.66 3.96-1 6h-3v2h3v4h3c0.33 1.98 0.66 3.96 1 6h3v3h3v4h4v3h3v4h3v3h4v3h3v3h3v4h3v3h4v3h3v7h3v7h-3v4h-3c-0.33 1.98-0.66 3.96-1 6h-3v3h-3v4h-3c-0.33 0.99-0.66 1.98-1 3h-3v3h-3v3h-3v3c-0.99 0.33-1.98 0.66-3 1-0.33 0.66-0.66 1.32-1 2h-3v4h-3v3c-0.99 0.33-1.98 0.66-3 1-0.33 0.66-0.66 1.32-1 2h-3v3h-3v4h-3v3h-4v3h-3v4h-3v3c-0.99 0.33-1.98 0.66-3 1-2.37 2-2.99 2.97-4 6h-3v3h-4v3h-12v-3h-4v-3h-3c-0.33-0.99-0.66-1.98-1-3-2-2.37-2.97-2.99-6-4v-3h-3v-3h-3v-4h-3v-3h-4v-4h-3v-3h-3v-3h-4v-3h-3c-0.33-0.99-0.66-1.98-1-3h-9c-0.33 0.99-0.66 1.98-1 3h-6v3h-3v3c-1.98 0.33-3.96 0.66-6 1-0.33 0.99-0.66 1.98-1 3h-6v3h-7v3c-2.97 0.33-5.94 0.66-9 1v2c-2.31 0.33-4.62 0.66-7 1v3h-7v3h-10v3c-4.29 0.33-8.58 0.66-13 1v3h-7v3h-3v56c-0.99 0.33-1.98 0.66-3 1-0.33 1.98-0.66 3.96-1 6h-6v3h-100v-3h-6v-3h-3v-56h-3v-4h-7v-3h-10v-3c-3.3-0.33-6.6-0.66-10-1v-2c-3.3-0.33-6.6-0.66-10-1v-3h-9v-3c-1.13-0.124-2.27-0.248-3.44-0.375-1.18-0.206-2.35-0.412-3.56-0.625-0.33-0.66-0.66-1.32-1-2-3.03-0.658-3.03-0.658-6-1v-3h-6v-3h-7c-0.33-0.99-0.66-1.98-1-3-1.98-0.33-3.96-0.66-6-1v-3h-3v-3h-6c-0.33-0.99-0.66-1.98-1-3h-10v3h-3v3h-3c-0.33 1.32-0.66 2.64-1 4h-2c-0.33 0.99-0.66 1.98-1 3h-2v3h-4c-0.33 1.32-0.66 2.64-1 4h-2c-0.33 0.99-0.66 1.98-1 3h-3v3h-3v3h-3c-0.33 1.32-0.66 2.64-1 4h-3v3h-3v4h-3c-0.33 0.99-0.66 1.98-1 3h-2c-0.33 0.99-0.66 1.98-1 3h-3v3h-7v-3h-6v-4h-4v-3h-3v-3h-3v-3h-3l-1-3c-0.99-0.33-1.98-0.66-3-1v-3h-3v-3h-3l-1-3c-0.99-0.33-1.98-0.66-3-1v-3h-6v-6c-1.32-0.33-2.64-0.66-4-1v-3h-3v-3c-1.98-0.33-3.96-0.66-6-1-0.33-1.65-0.66-3.3-1-5-0.99-0.33-1.98-0.66-3-1v-3h-3v-3h-3v-3h-3v-3h-4v-4h-3v-3h-3l-1-6c-0.99-0.33-1.98-0.66-3-1v-7h3c0.33-1.32 0.66-2.64 1-4h2c0.33-1.65 0.66-3.3 1-5 1.98-0.33 3.96-0.66 6-1v-3h4v-4h3c0.33-1.65 0.66-3.3 1-5 1.65-0.33 3.3-0.66 5-1 0.33-1.32 0.66-2.64 1-4h3v-3h3v-3h3c0.33-1.32 0.66-2.64 1-4h2c0.33-0.99 0.66-1.98 1-3h3v-3h3c0.33-1.98 0.66-3.96 1-6h3v-4h3v-2h-3v-6h-3v-4h-4v-7h-3v-6h-3v-7h-3c-0.495-3.47-0.495-3.47-1-7h-3v-9h-3v-7h-3c-0.33-2.97-0.66-5.94-1-9-0.99-0.33-1.98-0.66-3-1v-7h-3l-0.148-1.93c-0.112-1.24-0.112-1.24-0.227-2.5-0.0696-0.824-0.139-1.65-0.211-2.5-0.137-0.682-0.273-1.36-0.414-2.07-0.66-0.33-1.32-0.66-2-1v-3h-4v-3c-3.12 0.646-3.12 0.646-4 3h-55v-3h-4v-6h-3v-103h3v-3c0.99-0.33 1.98-0.66 3-1l1-2c30.7-0.495 30.7-0.495 62-1v-3h3c0.33-2.97 0.66-5.94 1-9h3v-7h3c0.33-2.97 0.66-5.94 1-9h3v-7h3v-10h3l1-6h2c0.33-2.31 0.66-4.62 1-7h3v-7h3v-6h3c0.33-2.31 0.66-4.62 1-7h3v-6h3v-4h3v-10h-3v-3h-3v-4h-3v-2h-4v-3h-3v-3h-3c-0.33-0.99-0.66-1.98-1-3-0.99-0.33-1.98-0.66-3-1v-3h-3v-3c-1.32-0.33-2.64-0.66-4-1v-2l-3-1v-3h-3v-3h-3v-3h-3c-0.33-0.99-0.66-1.98-1-3l-3-1v-3h-3v-3h-3c-0.33-1.98-0.66-3.96-1-6-0.99-0.33-1.98-0.66-3-1v-4h3c0.33-2.31 0.66-4.62 1-7h3v-3h3v-3c0.99-0.33 1.98-0.66 3-1l1-3h3v-3h3v-3h3c0.495-1.98 0.495-1.98 1-4h3v-3h3v-3h3c0.33-1.32 0.66-2.64 1-4h2c0.33-0.99 0.66-1.98 1-3h3v-3h3v-3c0.99-0.33 1.98-0.66 3-1 0.33-0.99 0.66-1.98 1-3h3v-3h3v-3h4v-2c0.66-0.33 1.32-0.66 2-1 0.33-0.99 0.66-1.98 1-3h3v-3h3v-3c0.99-0.33 1.98-0.66 3-1l1-3h3v-3h4v-3h6v3h6v3h4v4h3v3h3v3h4v3h3v3h3v3h4v3c2.97 0.495 2.97 0.495 6 1v3h3v3h3v3h4v4h3v3h3c0.33 1.98 0.66 3.96 1 6h3v4h10v-3h3c0.33-1.32 0.66-2.64 1-4h6v-3h6v-3c3.46-0.495 3.46-0.495 7-1v-2c3.46-0.495 3.46-0.495 7-1v-3h9v-3c3.3-0.33 6.6-0.66 10-1v-2c4.95-0.495 4.95-0.495 10-1v-3h10v-2c4.95-0.495 4.95-0.495 10-1v-2c1.49-0.495 1.49-0.495 3-1-0.00786-1.48-0.00786-1.48-0.0159-2.98-0.0181-3.65-0.0296-7.3-0.0391-11-0.00503-1.58-0.0119-3.16-0.0205-4.74-0.0121-2.27-0.0178-4.54-0.0222-6.81-0.00516-0.706-0.0103-1.41-0.0156-2.14-3.52e-4 -3.07 0.133-5.43 1.11-8.37zm29 142v3c-1.66-0.0348-1.66-0.0348-3.36-0.0703-1.46-0.0188-2.93-0.037-4.39-0.0547-0.73-0.0168-1.46-0.0335-2.21-0.0508-3.95-0.0359-6.64 0.182-10 2.18-1.74 0.427-3.49 0.801-5.25 1.12-1.34 0.251-1.34 0.251-2.7 0.508-0.675 0.121-1.35 0.242-2.05 0.367v2c-4.45 0.495-4.45 0.495-9 1v2h-7v3c-2.31 0.33-4.62 0.66-7 1v3h-6v3h-4v3c-1.98 0.33-3.96 0.66-6 1v3h-4v3c-1.98 0.33-3.96 0.66-6 1v3h-3c-0.495 0.99-0.495 0.99-1 2-0.99 0.33-1.98 0.66-3 1v3h-3v3h-3c-0.33 0.99-0.66 1.98-1 3-0.99 0.33-1.98 0.66-3 1v3h-3v3h-3c-0.33 0.99-0.66 1.98-1 3-0.99 0.495-0.99 0.495-2 1v3h-4v6h-3v4h-3v3h-3c-0.33 2.31-0.66 4.62-1 7h-3v6h-3c-0.33 0.99-0.66 1.98-1 3-0.99 0.495-0.99 0.495-2 1-0.658 3.03-0.658 3.03-1 6-1.49 0.495-1.49 0.495-3 1v9h-3c-0.124 0.969-0.247 1.94-0.375 2.94-0.206 1.01-0.413 2.02-0.625 3.06-0.99 0.495-0.99 0.495-2 1-1.16 3.47-1.07 6.36-1 10h-3v16h-3v59h3v13h3c-0.0116 0.687-0.0232 1.37-0.0352 2.08-0.00902 0.901-0.018 1.8-0.0273 2.73-0.0116 0.893-0.0232 1.79-0.0352 2.71-0.0124 2.61-0.0124 2.61 1.1 5.48h3v7h3c-0.0206 1.11-0.0412 2.23-0.0625 3.38-0.201 3.46-0.201 3.46 1.06 5.62h2c0.124 1.13 0.247 2.27 0.375 3.44 0.206 1.18 0.413 2.35 0.625 3.56 0.66 0.33 1.32 0.66 2 1 0.625 2.56 0.625 2.56 1 5h3v4h3c0.186 1.45 0.186 1.45 0.375 2.94 0.206 1.01 0.413 2.02 0.625 3.06 0.66 0.33 1.32 0.66 2 1 0.33 0.99 0.66 1.98 1 3h3v4h3v3h3v3h3c0.33 1.98 0.66 3.96 1 6h3v3h3v3c0.99 0.33 1.98 0.66 3 1 0.495 1.48 0.495 1.48 1 3h3v3h3v3h4v3c1.98 0.33 3.96 0.66 6 1v3h4v3h6v3c1.98 0.33 3.96 0.66 6 1 0.495 1.48 0.495 1.48 1 3h3v3h7v3c1.98 0.33 3.96 0.66 6 1 0.495 1.48 0.495 1.48 1 3h6v3h10v3c3.3 0.33 6.6 0.66 10 1v2c3.56 1.19 6.44 1.1 10.2 1.06 1.27-0.00902 2.54-0.018 3.86-0.0273 0.976-0.0116 1.95-0.0232 2.96-0.0352v2c2.45 1.22 4.03 1.13 6.77 1.13 0.991 0.00315 1.98 0.0063 3 0.00955 1.07-0.00202 2.15-0.00405 3.25-0.00613 1.1 9.57e-4 2.2 0.00191 3.33 0.0029 2.33 6.81e-4 4.66-0.00117 6.99-0.00534 3.57-0.00534 7.14-5.64e-5 10.7 0.00635 2.26-6.61e-4 4.52-0.00194 6.78-0.00391 1.61 0.00304 1.61 0.00304 3.25 0.00613 1.49-0.00473 1.49-0.00473 3.01-0.00955 1.31-0.00119 1.31-0.00119 2.65-0.00241 2.42-0.0382 2.42-0.0382 5.25-1.13v-2c1.01 0.0174 1.01 0.0174 2.05 0.0352 0.892 0.00902 1.78 0.018 2.7 0.0273 1.32 0.0174 1.32 0.0174 2.67 0.0352 2.36-0.0894 4.32-0.429 6.58-1.1v-2c3.3-0.33 6.6-0.66 10-1v-3c1.11 0.0206 2.23 0.0412 3.38 0.0625 3.46 0.201 3.46 0.201 5.62-1.06v-2h7c0.33-0.99 0.66-1.98 1-3 1.98-0.33 3.96-0.66 6-1v-3h6v-3h4v-3c1.98-0.33 3.96-0.66 6-1v-3h7v-3c1.32-0.33 2.64-0.66 4-1v-2c1.98-0.33 3.96-0.66 6-1v-3h3v-3h4v-3h3v-4h3v-3h4v-3h3v-4h3v-5h4v-3c0.99-0.33 1.98-0.66 3-1v-3h3v-6h3c0.33-0.99 0.66-1.98 1-3 0.66-0.33 1.32-0.66 2-1 0.658-3.03 0.658-3.03 1-6h3v-7h3c0.33-1.98 0.66-3.96 1-6 0.99-0.33 1.98-0.66 3-1v-6c0.99-0.33 1.98-0.66 3-1v-9h3v-13h3c1.13-3.61 1.1-6.98 1.06-10.8-0.0135-1.76-0.0135-1.76-0.0273-3.55-0.0116-0.892-0.0232-1.78-0.0352-2.7h3c0.0253-6.35 0.0429-12.7 0.0549-19.1 0.00503-2.16 0.0119-4.32 0.0205-6.49 0.0121-3.11 0.0178-6.21 0.0222-9.32 0.00516-0.969 0.0103-1.94 0.0156-2.94 7.55e-5 -0.901 1.51e-4 -1.8 2.29e-4 -2.73 0.00222-0.793 0.00444-1.59 0.00673-2.4-0.0416-2.27-0.0416-2.27-1.12-5.07h-2c0.0174-1.01 0.0174-1.01 0.0352-2.05 0.00902-0.892 0.018-1.78 0.0273-2.7 0.0174-1.32 0.0174-1.32 0.0352-2.67-0.0894-2.36-0.429-4.32-1.1-6.58h-3v-13h-3c0.0206-1.09 0.0412-2.19 0.0625-3.31 0.123-3.63 0.123-3.63-1.06-6.69h-2c-0.124-0.969-0.247-1.94-0.375-2.94-0.309-1.52-0.309-1.52-0.625-3.06-0.66-0.33-1.32-0.66-2-1-0.625-3.06-0.625-3.06-1-6h-3v-7h-3c-0.124-0.969-0.247-1.94-0.375-2.94-0.309-1.52-0.309-1.52-0.625-3.06-0.66-0.33-1.32-0.66-2-1-0.33-0.99-0.66-1.98-1-3h-3v-6h-3v-4h-3c-0.33-1.98-0.66-3.96-1-6h-3v-3h-3v-4h-3v-3h-4v-3h-3v-4h-3v-3h-4v-3h-3v-3c-1.98-0.33-3.96-0.66-6-1v-3h-4v-3h-3v-3c-2.31-0.33-4.62-0.66-7-1v-3h-6v-3h-4v-3c-2.31-0.33-4.62-0.66-7-1v-2c-2.96-1.48-5.74-1.06-9-1v-2h-7v-3c-3.01-1-5.04-1.1-8.19-1.06-0.901 0.00902-1.8 0.018-2.73 0.0273-1.03 0.0174-1.03 0.0174-2.08 0.0352-0.33-0.99-0.66-1.98-1-3-1.07-0.049-2.14-0.098-3.25-0.148-1.4-0.075-2.79-0.151-4.19-0.227-0.707-0.0309-1.41-0.0619-2.14-0.0938-1.81-0.104-3.62-0.31-5.42-0.531-0.33-0.66-0.66-1.32-1-2h-53z"/>
</svg>
