<svg width="37" height="46" viewBox="0 0 37 46" fill="none" xmlns="http://www.w3.org/2000/svg">
<path d="M35.1035 45.9766H2.47852C1.98123 45.9766 1.50432 45.7975 1.15269 45.4789C0.801059 45.1602 0.603516 44.728 0.603516 44.2773V12.0568C0.603516 11.6061 0.801059 11.1739 1.15269 10.8552C1.50432 10.5366 1.98123 10.3575 2.47852 10.3575H35.1035C35.6008 10.3575 36.0777 10.5366 36.4293 10.8552C36.781 11.1739 36.9785 11.6061 36.9785 12.0568V44.2773C36.9785 44.728 36.781 45.1602 36.4293 45.4789C36.0777 45.7975 35.6008 45.9766 35.1035 45.9766ZM4.35352 42.5781H33.2285V13.756H4.35352V42.5781Z" fill="#091A5A"/>
<path d="M26.1021 19.6953C25.6048 19.6953 25.1279 19.5163 24.7762 19.1976C24.4246 18.879 24.2271 18.4468 24.2271 17.9961V8.76368C24.1966 7.47506 23.6103 6.24853 22.5939 5.34696C21.5775 4.44538 20.2118 3.94048 18.7896 3.94048C17.3673 3.94048 16.0016 4.44538 14.9852 5.34696C13.9688 6.24853 13.3825 7.47506 13.3521 8.76368V17.9961C13.3521 18.4468 13.1545 18.879 12.8029 19.1976C12.4512 19.5163 11.9743 19.6953 11.4771 19.6953C10.9798 19.6953 10.5029 19.5163 10.1512 19.1976C9.79959 18.879 9.60205 18.4468 9.60205 17.9961V8.76368C9.64181 6.57923 10.6273 4.49644 12.3459 2.96438C14.0646 1.43232 16.3788 0.57373 18.7896 0.57373C21.2003 0.57373 23.5145 1.43232 25.2332 2.96438C26.9518 4.49644 27.9373 6.57923 27.9771 8.76368V17.9961C27.9771 18.4468 27.7795 18.879 27.4279 19.1976C27.0762 19.5163 26.5993 19.6953 26.1021 19.6953Z" fill="#091A5A"/>
</svg>
