<?xml version="1.0" encoding="UTF-8"?>
<svg version="1.1" viewBox="0 0 1600 1360" width="1280" height="1280" xmlns="http://www.w3.org/2000/svg">
<path transform="translate(268,193)" d="m0 0h335v2h10v-2h142v2h3v-2h275v2h2v-2h7v2c11.9 0.33 23.8 0.66 36 1v2c2.97 0.33 5.94 0.66 9 1v3c0.969 0.124 1.94 0.248 2.94 0.375 1.52 0.309 1.52 0.309 3.06 0.625 0.33 0.66 0.66 1.32 1 2 0.99 0.33 1.98 0.66 3 1v3h3v3h3v3h3v3h3c0.33 0.99 0.66 1.98 1 3 0.99 0.33 1.98 0.66 3 1v6h3c0.33 1.98 0.66 3.96 1 6h2c0.33 2.97 0.66 5.94 1 9h2c0.33 3.3 0.66 6.6 1 10h2c0.919 2.76 1.12 4.36 1.11 7.2-7.55e-5 0.841-1.51e-4 1.68-2.29e-4 2.55-0.00516 0.903-0.0103 1.81-0.0156 2.74-0.00141 0.928-0.00283 1.86-0.00429 2.81-0.0056 2.97-0.0182 5.93-0.0309 8.89-0.00502 2.01-0.00958 4.02-0.0137 6.03-0.011 4.93-0.0283 9.86-0.0488 14.8h3v58h-3v6h3v10h-3v6h3v20h113v3h16v3l1.83-0.0352c0.799-0.00902 1.6-0.018 2.42-0.0273 0.789-0.0116 1.58-0.0232 2.39-0.0352 2.27 0.0938 4.19 0.465 6.36 1.1v3h6c0.33 0.66 0.66 1.32 1 2 3.03 0.658 3.03 0.658 6 1v3h6v3c0.969 0.124 1.94 0.248 2.94 0.375 1.01 0.206 2.02 0.413 3.06 0.625 0.33 0.66 0.66 1.32 1 2 0.99 0.33 1.98 0.66 3 1v2c1.98 0.33 3.96 0.66 6 1v2c1.32 0.33 2.64 0.66 4 1v2h3v3h3c1.02 0.979 2.02 1.98 3 3 0.99 0.33 1.98 0.66 3 1v3h3c0.33 1.98 0.66 3.96 1 6h3v3h3v4h3v3h3l1 6h3v4h3v6h3v3h3l1 7h3v6h3v6h3l1 7h2l1 6c0.99 0.33 1.98 0.66 3 1v6h3v6h3c0.186 1.45 0.186 1.45 0.375 2.94 0.309 1.52 0.309 1.52 0.625 3.06 0.66 0.33 1.32 0.66 2 1 0.625 3.06 0.625 3.06 1 6h2c0.33 2.31 0.66 4.62 1 7h3v6h3v7h3c0.33 2.97 0.66 5.94 1 9h2c0.33 2.31 0.66 4.62 1 7h2c0.33 1.98 0.66 3.96 1 6h3v7h3v6h3c0.186 1.45 0.186 1.45 0.375 2.94 0.309 1.52 0.309 1.52 0.625 3.06 0.66 0.33 1.32 0.66 2 1 0.625 3.06 0.625 3.06 1 6h3v6h3v7h3v3h3v3c1.32 0.33 2.64 0.66 4 1v3h3v3h3c0.33 1.65 0.66 3.3 1 5h5l1 3c0.99 0.33 1.98 0.66 3 1v3h6v3h7v3h6v3c2.31 0.33 4.62 0.66 7 1v2c0.638 0.049 1.28 0.098 1.93 0.148 0.826 0.0748 1.65 0.15 2.5 0.227 0.824 0.0696 1.65 0.139 2.5 0.211 0.682 0.137 1.36 0.273 2.07 0.414 0.33 0.66 0.66 1.32 1 2 3.03 0.658 3.03 0.658 6 1v3h13v3c2.97 0.33 5.94 0.66 9 1v2c3.3 0.33 6.6 0.66 10 1v2c3.3 0.33 6.6 0.66 10 1v3h12v3h7v3c3.3 0.33 6.6 0.66 10 1v3h6v3h3v3h4v3h3v3h3v4h3c0.33 1.98 0.66 3.96 1 6 0.99 0.33 1.98 0.66 3 1v3h3v6h3l1 9h2v7h3l1 13h2l1 9h3v232h-3l-1 6h-3v3h-3v6h-3v4h-3v3h-3v3h-3l-1 4h-3v3h-3v3h-4v3c-1.21 0.186-1.21 0.186-2.44 0.375l-2.56 0.625-1 2c-3.06 0.625-3.06 0.625-6 1v2c-2.31 0.33-4.62 0.66-7 1v2c-2.88 0.961-4.7 1.11-7.69 1.06-1.21-0.0135-1.21-0.0135-2.45-0.0273-0.615-0.0116-1.23-0.0232-1.86-0.0352v3c-20.7 0.739-41.3 1.15-62 1v2h-3v-2c-1.13 0.00524-2.27 0.0105-3.44 0.0159-4.24 0.0182-8.49 0.0296-12.7 0.0391-1.83 5e-3 -3.66 0.0118-5.49 0.0205-2.64 0.0122-5.29 0.0178-7.93 0.0222-0.807 0.00516-1.61 0.0103-2.44 0.0156-0.78 7.55e-5 -1.56 1.51e-4 -2.36 2.29e-4 -0.673 0.00222-1.35 0.00444-2.04 0.00673-3.87-0.181-7.71-0.693-11.6-1.12l-1-25h-2l-1-20h-3v-10h-3l-0.148-1.93-0.227-2.5c-0.0696-0.824-0.139-1.65-0.211-2.5l-0.414-2.07-2-1v-9h-3l-1-9c-0.99-0.33-1.98-0.66-3-1v-6h-3v-7h-3v-5h-3l-1-6c-0.99-0.33-1.98-0.66-3-1v-3h-3v-6h-3v-3h-3l-1-3c-2-2.37-2.97-2.99-6-4v-3h-3v-4h-3v-3h-3v-3h-4v-3h-3v-3l-2.94-0.375c-1.01-0.206-2.02-0.412-3.06-0.625l-1-2c-0.99-0.33-1.98-0.66-3-1v-3h-3v-2c-1.98-0.33-3.96-0.66-6-1v-3h-6v-3c-2.31-0.33-4.62-0.66-7-1v-3h-6l-1-2c-3.03-0.658-3.03-0.658-6-1v-3h-7v-3c-2.97-0.33-5.94-0.66-9-1v-2c-3.3-0.33-6.6-0.66-10-1v-2l-16-1v-3c-21.1 0.33-42.2 0.66-64 1v2c-4.29 0.33-8.58 0.66-13 1v2c-3.3 0.33-6.6 0.66-10 1v2c-3.47 1.16-6.36 1.07-10 1v3h-9v3h-7v3c-1.98 0.33-3.96 0.66-6 1-0.33 0.99-0.66 1.98-1 3h-3v3h-6v3h-4v3c-0.804 0.124-1.61 0.248-2.44 0.375-0.846 0.206-1.69 0.412-2.56 0.625-0.33 0.66-0.66 1.32-1 2h-3v4h-4v3h-5c-0.33 1.32-0.66 2.64-1 4h-3v3h-3v3h-3v3h-3c-0.33 1.98-0.66 3.96-1 6h-3v3h-3v4h-3c-0.33 1.98-0.66 3.96-1 6h-3v4h-3v5h-3v6h-3v4h-3c-0.33 1.98-0.66 3.96-1 6h-2c-0.33 2.31-0.66 4.62-1 7h-3v9h-3v7h-3c-0.33 2.97-0.66 5.94-1 9h-2c-0.049 0.927-0.098 1.85-0.148 2.81-0.0748 1.2-0.15 2.4-0.227 3.63-0.104 1.79-0.104 1.79-0.211 3.62-0.137 0.971-0.273 1.94-0.414 2.94-0.66 0.33-1.32 0.66-2 1-0.259 2.52-0.421 4.97-0.5 7.5-0.0789 2.53-0.241 4.98-0.5 7.5-0.66 0.33-1.32 0.66-2 1-0.33 7.26-0.66 14.5-1 22h-3v3c-40.3 0.151-80.7 0.296-121 0.433-4.79 0.0163-9.58 0.0326-14.4 0.0489-0.953 0.00325-1.91 0.00651-2.89 0.00986-15.3 0.0524-30.6 0.109-46 0.167-15.8 0.0597-31.6 0.115-47.4 0.166-8.84 0.0288-17.7 0.0595-26.5 0.0955-37.6 0.152-75.3 0.149-113-0.921-0.33-8.25-0.66-16.5-1-25h-2c-0.33-5.61-0.66-11.2-1-17h-2c-0.33-3.3-0.66-6.6-1-10h-2c-0.33-2.97-0.66-5.94-1-9h-3v-10h-3c-0.124-0.969-0.247-1.94-0.375-2.94-0.206-1.01-0.412-2.02-0.625-3.06-0.66-0.33-1.32-0.66-2-1v-6h-3c-0.33-1.98-0.66-3.96-1-6-0.99-0.33-1.98-0.66-3-1v-6h-3v-5h-3c-0.103-0.598-0.206-1.2-0.312-1.81-0.528-2.27-0.528-2.27-2.25-3.75l-1.44-1.44v-3h-3v-3h-3v-6h-3c-0.33-0.99-0.66-1.98-1-3-0.66-0.33-1.32-0.66-2-1v-3h-4v-3h-3v-3h-3v-4h-3c-0.33-0.66-0.66-1.32-1-2-0.99-0.33-1.98-0.66-3-1v-3h-3v-3c-1.32-0.33-2.64-0.66-4-1v-2c-0.804-0.124-1.61-0.248-2.44-0.375-0.846-0.206-1.69-0.412-2.56-0.625-0.33-0.66-0.66-1.32-1-2-0.99-0.33-1.98-0.66-3-1v-3h-6v-3h-6v-3h-4v-3c-2.97-0.33-5.94-0.66-9-1v-3h-7v-3h-7v-3h-9v-3c-4.29-0.33-8.58-0.66-13-1v-2c-6.27-0.33-12.5-0.66-19-1v-3h-49v3c-5.28 0.33-10.6 0.66-16 1v2c-4.29 0.33-8.58 0.66-13 1v2c-3.47 1.16-6.36 1.07-10 1v3h-9v3h-6v3c-2.31 0.33-4.62 0.66-7 1v2c-1.98 0.33-3.96 0.66-6 1-0.33 0.99-0.66 1.98-1 3h-6v3h-3v3c-2.31 0.33-4.62 0.66-7 1v3h-3v3h-3v3c-1.98 0.33-3.96 0.66-6 1-0.33 0.99-0.66 1.98-1 3h-2c-0.33 0.99-0.66 1.98-1 3h-3v3h-3v3h-3v3c-0.99 0.33-1.98 0.66-3 1-0.33 0.99-0.66 1.98-1 3h-3v5h-3v4h-4v4h-2c-0.33 1.65-0.66 3.3-1 5h-3v4h-3v5h-3c-0.33 2.31-0.66 4.62-1 7h-2c-0.33 2.31-0.66 4.62-1 7h-2c-0.33 2.97-0.66 5.94-1 9h-3v10h-3c0.0174 1.03 0.0174 1.03 0.0352 2.08 0.00902 0.901 0.018 1.8 0.0273 2.73 0.0116 0.893 0.0232 1.79 0.0352 2.71-0.0977 2.48-0.0977 2.48-1.1 5.48h-2c-0.33 4.29-0.66 8.58-1 13h-2c-0.33 7.26-0.66 14.5-1 22h-3v16c-6.12 0.145-12.2 0.287-18.3 0.427-2.07 0.0478-4.15 0.0963-6.22 0.146-12.1 0.288-24.3 0.507-36.4 0.427v2h-3c-0.33-0.66-0.66-1.32-1-2-2.71-0.312-5.34-0.513-8.06-0.625-0.759-0.0387-1.52-0.0773-2.3-0.117-1.88-0.0945-3.76-0.177-5.64-0.258v-3h-9v-3c-0.969-0.124-1.94-0.248-2.94-0.375-1.01-0.206-2.02-0.412-3.06-0.625-0.33-0.66-0.66-1.32-1-2-0.99-0.33-1.98-0.66-3-1v-3h-4v-3h-5v-3c-1.32-0.33-2.64-0.66-4-1v-3h-3v-3h-3v-3h-3v-6h-3c-0.33-2.31-0.66-4.62-1-7h-3v-6h-3v-7h-3c-1.47-19-1.09-38-1-57h-2v-138h2c0.33-3.3 0.66-6.6 1-10h3v-6h3v-3c1.98-0.33 3.96-0.66 6-1 0.33-0.99 0.66-1.98 1-3h83v-3h220v-3c5.28-0.33 10.6-0.66 16-1v-2c3.3-0.33 6.6-0.66 10-1v-3h6v-3h6v-3c0.99-0.33 1.98-0.66 3-1 0.33-0.99 0.66-1.98 1-3h3v-3h3v-3h3c0.124-0.969 0.247-1.94 0.375-2.94 0.309-1.52 0.309-1.52 0.625-3.06 0.66-0.33 1.32-0.66 2-1 0.165-0.825 0.33-1.65 0.5-2.5 0.165-0.825 0.33-1.65 0.5-2.5 0.66-0.33 1.32-0.66 2-1 0.407-2.32 0.744-4.66 1-7h3v-15c0.99-0.33 1.98-0.66 3-1v-37h-3v-13h-3v-10h-3v-6h-3c-0.33-2.31-0.66-4.62-1-7h-3v-3h-3v-3h-3v-3h-3c-0.33-0.99-0.66-1.98-1-3-0.99-0.33-1.98-0.66-3-1v-3h-6v-3h-4v-3h-9v-3c-11.6-0.33-23.1-0.66-35-1v-2c-0.785 0.00111-1.57 0.00222-2.38 0.00336-57.4 0.0768-115-0.133-172-0.449-11.3-0.0622-22.6-0.122-34-0.181-23.2-0.122-46.3-0.246-69.5-0.373v-2c-3.3-0.33-6.6-0.66-10-1v-3h-6v-3h-3c-0.186-1.45-0.186-1.45-0.375-2.94-0.309-1.52-0.309-1.52-0.625-3.06-0.66-0.33-1.32-0.66-2-1-0.196-3.02-0.382-6.04-0.562-9.06-0.0561-0.848-0.112-1.7-0.17-2.57-0.288-4.97-0.166-9.47 0.732-14.4h2c0.33-2.97 0.66-5.94 1-9h3v-6h3v-3c3.01-1 5.04-1.1 8.19-1.06 0.901 0.00902 1.8 0.018 2.73 0.0273 1.03 0.0174 1.03 0.0174 2.08 0.0352v-3h9v3h4v-3h407v-3c8.25-0.33 16.5-0.66 25-1v-2c2.31-0.33 4.62-0.66 7-1v-2c1.98-0.33 3.96-0.66 6-1v-3h6v-3h4v-3h3v-4h3v-3h3v-3h3c0.33-1.98 0.66-3.96 1-6h3v-7h3v-6h3c0.33-3.3 0.66-6.6 1-10h2v-47h-2c-0.33-3.3-0.66-6.6-1-10h-3v-9h-3v-7h-3v-4h-3c-0.33-1.98-0.66-3.96-1-6h-3v-3h-3v-3c-1.98-0.33-3.96-0.66-6-1v-3h-4v-3h-6v-3h-9v-3c-4.29-0.33-8.58-0.66-13-1v-2c-29.2-0.495-29.2-0.495-59-1v-2c-0.76 3.8e-4 -1.52 7.59e-4 -2.3 0.00115-45.2 0.0224-90.3 0.0396-135 0.0499-5.43 0.00125-10.9 0.00254-16.3 0.00387-1.08 2.62e-4 -2.16 5.25e-4 -3.28 7.95e-4 -17.5 0.00434-34.9 0.0122-52.4 0.0214-18 0.00938-35.9 0.0149-53.9 0.0169-11.1 0.00137-22.1 0.00566-33.2 0.0138-7.6 0.00533-15.2 0.00687-22.8 0.00558-4.37-6.34e-4 -8.75 2.7e-4 -13.1 0.0057-19.1 0.0226-38.2-0.169-57.3-1.12v-3h-3l-1-10h-2v-87h2c0.33-4.29 0.66-8.58 1-13h2c0.33-2.97 0.66-5.94 1-9h3v-3h3l1-6h3v-3h3v-3h3v-4h3c0.33-0.99 0.66-1.98 1-3h3v-3h6v-3c0.99-0.33 1.98-0.66 3-1 0.33-0.66 0.66-1.32 1-2h6v-3c1.98-0.33 3.96-0.66 6-1v-2c3.47-1.16 6.36-1.07 10-1v-3h9v-3c9.9-0.495 9.9-0.495 20-1v-2zm861 263v3h-3v198h48v3h7v-3h196v-2h-2c-0.33-2.31-0.66-4.62-1-7h-3v-6h-3c-0.33-1.98-0.66-3.96-1-6h-2v-4h-3c-0.33-2.31-0.66-4.62-1-7h-3v-6h-3v-6h-3v-6c-0.99-0.33-1.98-0.66-3-1-0.33-1.98-0.66-3.96-1-6h-3v-6h-3v-7h-3v-6h-3c-0.33-2.31-0.66-4.62-1-7h-3v-6h-3v-7h-3v-6h-3c-0.33-1.98-0.66-3.96-1-6h-2l-0.375-2.94-0.625-3.06c-0.66-0.33-1.32-0.66-2-1-0.625-3.06-0.625-3.06-1-6h-3v-6h-3c-0.33-1.32-0.66-2.64-1-4h-2v-5c-0.99-0.33-1.98-0.66-3-1-0.33-1.98-0.66-3.96-1-6h-3v-7h-3c-0.0619-0.908-0.124-1.82-0.188-2.75-1.01-4.03-2.53-4.87-5.81-7.25-0.33-0.99-0.66-1.98-1-3h-3v-3h-3v-3h-3v-3c-0.99-0.33-1.98-0.66-3-1-0.33-0.66-0.66-1.32-1-2-3.03-0.658-3.03-0.658-6-1v-3h-3v-3h-7v-3h-6v-3c-1.98-0.33-3.96-0.66-6-1-0.495-1.48-0.495-1.48-1-3h-6v-2c-3.47-1.16-6.36-1.07-10-1v-3h-10v-3c-31.1-0.839-61.9-1.24-93 0z" fill="#000100"/>
<path transform="translate(116,401)" d="m0 0h519v3c1.09-0.0206 2.19-0.0412 3.31-0.0625 3.69 0.0625 3.69 0.0625 6.69 1.06v3h3c1.38 1.63 2.71 3.3 4 5 0.66 0.33 1.32 0.66 2 1 0.407 2.32 0.744 4.66 1 7h3v48h-3c-0.0213 0.905-0.0213 0.905-0.043 1.83-0.396 6.64-0.396 6.64-3.46 9.55-0.825 0.536-1.65 1.07-2.5 1.62-0.33 0.99-0.66 1.98-1 3h-3v3h-6v3c-3.3 0.33-6.6 0.66-10 1v2h-503v-2c-5.28-0.33-10.6-0.66-16-1v-3h-4v-3h-3v-3h-3v-4h-3v-6h-3c-0.124-0.969-0.248-1.94-0.375-2.94-0.206-1.01-0.412-2.02-0.625-3.06-0.66-0.33-1.32-0.66-2-1v-32h2c0.495-4.45 0.495-4.45 1-9h3v-4h3v-6h4v-3h3v-3h3v-3c1.98-0.33 3.96-0.66 6-1v-3z" fill="#000100"/>
<path transform="translate(479 888)" d="m0 0c1.1 7.55e-5 2.2 1.51e-4 3.34 2.29e-4 1.19 0.00516 2.38 0.0103 3.6 0.0156 1.82 0.00212 1.82 0.00212 3.69 0.00429 3.89 0.00561 7.78 0.0182 11.7 0.0309 2.64 0.00501 5.27 0.00958 7.91 0.0137 6.47 0.011 12.9 0.0278 19.4 0.0488v3c1.03-0.0174 1.03-0.0174 2.08-0.0352 0.901-0.00902 1.8-0.018 2.73-0.0273 0.893-0.0116 1.79-0.0232 2.71-0.0352 2.48 0.0977 2.48 0.0977 5.48 1.1v2c0.855 0.049 1.71 0.098 2.59 0.148 1.1 0.0748 2.21 0.15 3.35 0.227 1.1 0.0696 2.2 0.139 3.34 0.211 0.898 0.137 1.8 0.273 2.72 0.414 0.33 0.66 0.66 1.32 1 2 3.03 0.658 3.03 0.658 6 1v3h6v3h4v3c1.98 0.33 3.96 0.66 6 1v3h4v3h3v3c1.36 0.0928 1.36 0.0928 2.75 0.188 4.05 1.01 4.92 2.44 7.25 5.81 2.12 2.38 2.87 2.96 6 4v3h3v4h3c0.33 1.98 0.66 3.96 1 6h3v3h3v4h3v6h3v6h3c0.33 1.98 0.66 3.96 1 6 0.99 0.33 1.98 0.66 3 1v6h3v9h3v7h3c0.33 4.29 0.66 8.58 1 13h2c0.763 6.09 1.15 12 1.13 18.2 0.00144 1.25 0.00144 1.25 0.0029 2.53 6.75e-4 1.75-0.00113 3.51-0.00534 5.26-0.00537 2.67-2.58e-5 5.34 0.00635 8-6.61e-4 1.71-0.00194 3.43-0.00391 5.14 0.00202 0.789 0.00405 1.58 0.00613 2.39-0.0193 4.6-0.38 8.97-1.14 13.5h-2c-0.33 4.29-0.66 8.58-1 13h-2c-0.33 2.97-0.66 5.94-1 9h-3v7h-3v6h-3c-0.33 2.31-0.66 4.62-1 7h-3v6h-3v4h-3v5h-3c-0.33 1.32-0.66 2.64-1 4h-3v3h-3v3h-3v6h-4v3h-3v3c-1.98 0.33-3.96 0.66-6 1v3h-3c-0.33 0.99-0.66 1.98-1 3h-5v3h-4v3h-6v3h-7v3c-3.3 0.33-6.6 0.66-10 1v3h-9v3h-13v3h-62v-2c-3.96-0.33-7.92-0.66-12-1v-3h-9c-0.495-1.49-0.495-1.49-1-3-0.969-0.124-1.94-0.247-2.94-0.375-1.52-0.309-1.52-0.309-3.06-0.625-0.33-0.66-0.66-1.32-1-2-3.03-0.658-3.03-0.658-6-1v-3h-6v-3h-6v-3c-1.32-0.33-2.64-0.66-4-1v-2c-1.98-0.33-3.96-0.66-6-1v-3h-3v-3h-4v-3h-3v-3h-3v-3h-3v-3h-3v-3h-4v-6h-3v-4h-3c-0.33-1.98-0.66-3.96-1-6h-2c-0.33-0.99-0.66-1.98-1-3-0.66-0.33-1.32-0.66-2-1-0.625-3.06-0.625-3.06-1-6h-3v-7h-3c-0.33-2.97-0.66-5.94-1-9h-2c-0.124-0.969-0.248-1.94-0.375-2.94-0.309-1.52-0.309-1.52-0.625-3.06-0.66-0.33-1.32-0.66-2-1-0.414-2.94-0.414-2.94-0.625-6.56-0.0748-1.2-0.15-2.4-0.227-3.63-0.049-0.927-0.098-1.85-0.148-2.81h-2c-1.21-2.42-1.13-3.97-1.13-6.68-0.00315-0.971-0.0063-1.94-0.00955-2.94 0.00202-1.05 0.00405-2.1 0.00613-3.19-9.57e-4 -1.08-0.00191-2.16-0.0029-3.27-6.81e-4 -2.28 0.00117-4.56 0.00534-6.85 0.00534-3.5 5.64e-5 -7-0.00635-10.5 6.61e-4 -2.21 0.00194-4.43 0.00391-6.64-0.00202-1.05-0.00405-2.1-0.00613-3.18 0.00315-0.974 0.0063-1.95 0.00955-2.95 0.00119-1.29 0.00119-1.29 0.00241-2.6 0.127-2.21 0.127-2.21 1.13-5.21h2c0.33-4.29 0.66-8.58 1-13h2c0.33-2.97 0.66-5.94 1-9h3v-7h3v-6h3c0.33-2.31 0.66-4.62 1-7h3v-3h2c0.33-1.98 0.66-3.96 1-6h3v-4h3c0.0928-1.36 0.0928-1.36 0.188-2.75 1.01-4.03 2.53-4.87 5.81-7.25 0.33-0.99 0.66-1.98 1-3h3v-3h3v-3h3v-3h3c0.33-1.32 0.66-2.64 1-4h3v-3h3v-3h6v-3h4v-3c1.98-0.33 3.96-0.66 6-1v-3h4v-3h8v-3h7v-3c3.3-0.33 6.6-0.66 10-1v-2c3.01-1 5.04-1.1 8.19-1.06 0.901 0.00902 1.8 0.018 2.73 0.0273 0.687 0.0116 1.37 0.0232 2.08 0.0352v-2c3.08-1.03 5.17-1.12 8.39-1.11zm7.61 81.1v2c-5.94 0.495-5.94 0.495-12 1v3c-1.65 0.33-3.3 0.66-5 1v2h-5c-0.33 0.99-0.66 1.98-1 3-0.99 0.33-1.98 0.66-3 1v3h-3v3h-3v3h-3c-0.33 1.98-0.66 3.96-1 6-0.99 0.33-1.98 0.66-3 1v3h-3v7h-3c-0.33 4.95-0.66 9.9-1 15h-2v6h2c0.33 4.29 0.66 8.58 1 13h3v9h3v7h3c0.33 1.32 0.66 2.64 1 4h2c0.33 1.98 0.66 3.96 1 6h3v3h3v3h4v3c1.98 0.33 3.96 0.66 6 1v3h6v3h7v3h32v-3h6c0.495-1.49 0.495-1.49 1-3h6v-3c1.98-0.33 3.96-0.66 6-1v-3h4v-3h3v-3h3c0.495-1.49 0.495-1.49 1-3 0.516-0.474 1.03-0.949 1.56-1.44 1.89-1.7 1.89-1.7 1.44-5.56h3v-3h3v-10h3c0.33-4.29 0.66-8.58 1-13h2v-12h-3v-10h-3v-9h-3c-0.124-0.969-0.247-1.94-0.375-2.94-0.309-1.52-0.309-1.52-0.625-3.06-0.66-0.33-1.32-0.66-2-1-0.495-1.49-0.495-1.49-1-3h-3v-3h-3v-3h-3v-3c-0.99-0.33-1.98-0.66-3-1-0.474-0.516-0.949-1.03-1.44-1.56-1.7-1.89-1.7-1.89-5.56-1.44v-3h-6v-3h-10v-3h-26z" fill="#000100"/>
<path transform="translate(1213,888)" d="m0 0h55v3c0.652-0.0116 1.3-0.0232 1.98-0.0352 4.8-0.0496 9.3 0.041 14 1.04v2c2.97 0.33 5.94 0.66 9 1v3h7v3h6v3c0.969 0.124 1.94 0.247 2.94 0.375 1.01 0.206 2.02 0.413 3.06 0.625 0.33 0.66 0.66 1.32 1 2 2.02 0.652 2.02 0.652 4 1v2c1.65 0.33 3.3 0.66 5 1v3h4v3h3v3c1.32 0.33 2.64 0.66 4 1v2c1.65 0.33 3.3 0.66 5 1v3h4v3h3c0.33 1.98 0.66 3.96 1 6 0.99 0.33 1.98 0.66 3 1v2c0.99 0.33 1.98 0.66 3 1v3h3v3h3v7h3c0.33 1.98 0.66 3.96 1 6h2c0.33 1.98 0.66 3.96 1 6 0.99 0.33 1.98 0.66 3 1v6h3v6h3v10h3c0.33 4.29 0.66 8.58 1 13h2c1.05 8.36 1.15 16.6 1.13 25-0.00534 2.31-3.52e-5 4.63 0.00635 6.94 0.00337 8.39-0.244 16.7-1.14 25h-2c-0.33 4.62-0.66 9.24-1 14h-3v9h-3v7h-3c-0.124 0.969-0.247 1.94-0.375 2.94-0.309 1.52-0.309 1.52-0.625 3.06-0.66 0.33-1.32 0.66-2 1-0.33 0.99-0.66 1.98-1 3h-2c-0.33 1.98-0.66 3.96-1 6h-3v6h-3c-0.33 1.32-0.66 2.64-1 4h-3v3h-3v3h-3v3h-3v3h-3v3h-3v3h-4v3h-3v3c-1.98 0.33-3.96 0.66-6 1-0.33 0.99-0.66 1.98-1 3h-3v2c-1.98 0.33-3.96 0.66-6 1v3c-0.969 0.124-1.94 0.247-2.94 0.375-1.01 0.206-2.02 0.412-3.06 0.625-0.33 0.66-0.66 1.32-1 2h-6v3c-2.97 0.33-5.94 0.66-9 1-0.33 0.99-0.66 1.98-1 3h-6v3h-13v3h-64v-3h-11v-3h-9v-3c-0.638-0.049-1.28-0.098-1.93-0.148-1.24-0.112-1.24-0.112-2.5-0.227-0.824-0.0696-1.65-0.139-2.5-0.211-0.682-0.137-1.36-0.273-2.07-0.414-0.33-0.66-0.66-1.32-1-2-3.03-0.658-3.03-0.658-6-1v-3h-6v-3h-6c-0.33-0.99-0.66-1.98-1-3h-3c-0.33-0.99-0.66-1.98-1-3-0.99-0.33-1.98-0.66-3-1v-2c-1.98-0.33-3.96-0.66-6-1v-3h-3v-3h-3v-4h-3c-0.495-2.47-0.495-2.47-1-5h-3v-3h-3v-4h-3v-6h-3c-0.33-1.98-0.66-3.96-1-6h-2c-0.33-1.98-0.66-3.96-1-6-0.99-0.33-1.98-0.66-3-1v-6h-3c-0.124-0.969-0.247-1.94-0.375-2.94-0.309-1.52-0.309-1.52-0.625-3.06-0.66-0.33-1.32-0.66-2-1v-9h-3c-0.495-4.95-0.495-4.95-1-10h-2c-1.14-3.42-1.1-6.09-1.06-9.69 0.00902-1.18 0.018-2.36 0.0273-3.57 0.0116-0.904 0.0232-1.81 0.0352-2.74h-3v-39h3c-0.0116-0.82-0.0232-1.64-0.0352-2.48-0.00902-1.08-0.018-2.16-0.0273-3.27-0.0116-1.07-0.0232-2.13-0.0352-3.23 0.0826-2.55 0.351-4.59 1.1-7.02h2c0.33-2.97 0.66-5.94 1-9h3v-7h3v-7h3v-6h3c0.124-0.969 0.247-1.94 0.375-2.94 0.206-1.01 0.412-2.02 0.625-3.06 0.99-0.495 0.99-0.495 2-1 0.658-3.03 0.658-3.03 1-6h3v-3h3v-6h3c0.33-1.32 0.66-2.64 1-4h2c0.33-1.98 0.66-3.96 1-6h3v-3h3v-3c2.97-0.495 2.97-0.495 6-1v-3h3v-3h4v-3h3v-3c1.98-0.33 3.96-0.66 6-1 0.495-1.49 0.495-1.49 1-3h3v-3h6v-3h7v-3h6v-3c3.3-0.33 6.6-0.66 10-1v-2c5.36-1.13 10.6-1.1 16-1v-3zm13 81v3h-10v3h-6v3c-2.31 0.33-4.62 0.66-7 1v2h-3v4h-3v3h-4v3h-3v6h-3v4h-3c-0.33 2.97-0.66 5.94-1 9h-2c-1.03 5.92-1.15 11.7-1.12 17.7-0.00387 0.937-0.00773 1.87-0.0117 2.84 0.00129 0.903 0.00258 1.81 0.00391 2.74 0.00113 0.814 0.00226 1.63 0.00342 2.47 0.126 2.22 0.516 4.14 1.13 6.27h2c0.33 2.97 0.66 5.94 1 9h3v7h3v3h3c0.33 1.32 0.66 2.64 1 4h2c0.33 0.99 0.66 1.98 1 3h3v3h3v3h3v3c1.48 0.495 1.48 0.495 3 1 0.495 0.99 0.495 0.99 1 2 3.03 0.658 3.03 0.658 6 1v3h10v3h13v3h6v-3h13v-3h7v-3c1.98-0.33 3.96-0.66 6-1v-2c1.32-0.33 2.64-0.66 4-1v-2c1.65-0.33 3.3-0.66 5-1v-3c1.32-0.33 2.64-0.66 4-1v-3h3c0.33-1.65 0.66-3.3 1-5 0.99-0.33 1.98-0.66 3-1v-3h3v-7h3v-6h3v-35h-3v-9h-3c-0.495-1.98-0.495-1.98-1-4h-2c-0.495-2.97-0.495-2.97-1-6h-3v-3h-3v-3h-3v-3c-0.99-0.33-1.98-0.66-3-1-0.474-0.516-0.949-1.03-1.44-1.56-1.7-1.89-1.7-1.89-5.56-1.44v-3h-6v-3h-7v-3c-10.9-1.27-21.1-0.943-32 0z" fill="#000100"/>
<path transform="translate(150 625)" d="m0 0c6.06 0.00473 12.1 0.00707 18.2 0.00826 65.6 0.0154 131 0.432 197 1.12v2h6v-2h19v2h4v-2h6v2h13v-2h67v2h23v3h6c0.33 0.99 0.66 1.98 1 3h3v3h3v4h3c0.33 1.98 0.66 3.96 1 6h2c0.33 1.98 0.66 3.96 1 6h2c1.15 4.11 1.14 8.07 1.13 12.3 9.57e-4 0.804 0.00191 1.61 0.0029 2.44 6.79e-4 1.7-0.00116 3.39-0.00534 5.09-0.00534 2.59-5.04e-5 5.18 0.00635 7.77-6.61e-4 1.65-0.00194 3.3-0.00391 4.96 0.00202 0.771 0.00405 1.54 0.00613 2.34-0.0323 7.45-0.0323 7.45-1.14 11.1-0.66 0.33-1.32 0.66-2 1-0.658 3.03-0.658 3.03-1 6h-3v4h-3v6h-3v3h-7v3c-12.8 0.789-25.5 1.14-38.3 1.13-1.87 0.00116-3.74 0.00275-5.61 0.00473-5.08 0.00413-10.2 0.00213-15.2-9.86e-4 -5.5-0.00228-11 0.00124-16.5 0.00398-10.8 0.00443-21.5 0.00349-32.3 5.87e-4 -8.74-0.00226-17.5-0.00256-26.2-0.00148-1.25 1.53e-4 -2.5 3.06e-4 -3.78 4.64e-4 -2.53 3.2e-4 -5.07 6.44e-4 -7.6 9.73e-4 -23.1 0.00277-46.1-9.52e-5 -69.2-0.00534-21-0.00475-42-0.00432-63 4.61e-4 -23.7 0.00536-47.3 0.00746-71 0.00439-2.52-3.19e-4 -5.05-6.33e-4 -7.57-9.43e-4 -1.24-1.54e-4 -2.48-3.09e-4 -3.76-4.68e-4 -8.73-8.62e-4 -17.5 5.9e-4 -26.2 0.00295-10.6 0.00281-21.3 0.00203-31.9-0.00328-5.43-0.00262-10.9-0.00367-16.3-3.51e-4 -4.97 3e-3 -9.95 0.00131-14.9-0.00398-1.79-0.00111-3.58-5.65e-4 -5.38 0.00188-23.5 0.0296-23.5 0.0296-31.2-1.13-0.495-0.99-0.495-0.99-1-2l-3-1v-3h-6v-6c-1.32-0.33-2.64-0.66-4-1v-3h-6v-59h3v-3h4v-3h3v-3c1.98-0.33 3.96-0.66 6-1v-2c0.99-0.33 1.98-0.66 3-1 0.412-0.516 0.825-1.03 1.25-1.56 2.73-2.24 5.35-1.63 8.75-1.44v-3h16v-2c35-1.3 70-1.16 105-1.13z" fill="#000100"/>
</svg>
