<svg width="25" height="25" viewBox="0 0 25 25" fill="none" xmlns="http://www.w3.org/2000/svg">
<path d="M18.2046 21.9731H5.46045C5.2662 21.9731 5.0799 21.896 4.94255 21.7586C4.80519 21.6213 4.72803 21.435 4.72803 21.2407V7.35254C4.72803 7.15829 4.80519 6.97199 4.94255 6.83464C5.0799 6.69728 5.2662 6.62012 5.46045 6.62012H18.2046C18.3988 6.62012 18.5851 6.69728 18.7225 6.83464C18.8598 6.97199 18.937 7.15829 18.937 7.35254V21.2407C18.937 21.435 18.8598 21.6213 18.7225 21.7586C18.5851 21.896 18.3988 21.9731 18.2046 21.9731ZM6.19287 20.5083H17.4722V8.08496H6.19287V20.5083Z" fill="white"/>
<path d="M14.6885 10.6449C14.4942 10.6449 14.3079 10.5677 14.1706 10.4304C14.0332 10.293 13.9561 10.1067 13.9561 9.91248V5.93298C13.9441 5.37754 13.7151 4.84887 13.3181 4.46026C12.9211 4.07164 12.3876 3.85402 11.832 3.85402C11.2765 3.85402 10.743 4.07164 10.346 4.46026C9.94893 4.84887 9.71992 5.37754 9.70801 5.93298V9.91248C9.70801 10.1067 9.63084 10.293 9.49349 10.4304C9.35613 10.5677 9.16984 10.6449 8.97559 10.6449C8.78134 10.6449 8.59504 10.5677 8.45768 10.4304C8.32033 10.293 8.24316 10.1067 8.24316 9.91248V5.93298C8.2587 4.99141 8.64364 4.09365 9.31499 3.43328C9.98635 2.77291 10.8903 2.40283 11.832 2.40283C12.7737 2.40283 13.6777 2.77291 14.3491 3.43328C15.0204 4.09365 15.4054 4.99141 15.4209 5.93298V9.91248C15.4209 10.1067 15.3437 10.293 15.2064 10.4304C15.069 10.5677 14.8827 10.6449 14.6885 10.6449Z" fill="white"/>
</svg>
