<svg width="151" height="50" viewBox="0 0 151 50" fill="none" xmlns="http://www.w3.org/2000/svg">
<path d="M16.2688 0.652599C13.4234 1.98293 11.4791 4.84824 10.4832 9.09505L9.96153 11.4487L5.12435 11.6022L0.239746 11.7557L0.287169 15.9513C0.287169 18.2538 0.571709 25.8265 0.903673 32.7851C1.42533 43.837 1.5676 45.5767 2.3738 46.4977C3.22742 47.4698 3.70165 47.521 19.4462 47.521C34.6217 47.521 35.7598 47.4698 36.8031 46.5488C37.8465 45.6278 37.8939 45.2185 38.463 32.6316C38.7949 25.4683 39.1743 17.8445 39.2692 15.6955L39.5063 11.7557L34.4794 11.6022L29.4051 11.4487L29.1206 9.65788C28.4566 5.5134 26.1329 1.98293 23.1926 0.652599C21.2957 -0.217228 18.0235 -0.217228 16.2688 0.652599ZM22.1968 2.18759C25.2318 3.51792 27.9824 8.42989 27.0814 10.937C26.702 12.1139 12.6647 12.0627 12.2379 10.8859C11.7162 9.40205 13.0915 5.87157 14.9884 3.92725C17.3596 1.47126 19.541 0.959599 22.1968 2.18759ZM24.4256 17.7422C26.37 18.5608 26.8917 19.533 26.1329 20.7098C25.469 21.6308 25.3741 21.6308 23.1452 20.761C19.9204 19.533 17.9761 19.6353 16.6008 21.1703C15.9369 21.8355 15.4152 22.7565 15.4152 23.1146C15.4152 24.5473 17.1225 26.0311 20.1101 27.3103C25.8009 29.7151 27.9824 32.1199 27.603 35.7016C27.0814 40.8694 22.3864 43.4789 16.6956 41.688C15.2255 41.2275 13.4709 40.3065 12.7595 39.6925C11.6688 38.6692 11.5739 38.3622 12.0482 37.3901C12.7595 35.9574 13.1863 35.9574 14.941 37.3901C15.8894 38.1575 17.2647 38.5669 19.1617 38.7204C21.7225 38.925 22.1019 38.8227 23.1926 37.6459C24.8999 35.8039 24.805 34.0642 22.8607 32.4781C21.9596 31.7106 20.9637 31.1478 20.6318 31.1478C19.3988 31.1478 14.0874 28.0266 13.376 26.8498C12.0956 24.752 11.9059 23.0635 12.8069 20.9657C14.4667 16.9747 19.541 15.542 24.4256 17.7422Z" fill="#091A5A"/>
<path d="M52.5003 17.6907C49.892 19.0722 48.991 21.3746 49.7498 24.8028C50.1766 26.7983 51.8364 28.1286 55.7251 29.6124C59.6612 31.0963 60.752 31.8126 61.653 33.7569C62.6015 35.6501 62.2695 36.8781 60.42 38.5665C58.4757 40.255 55.4406 40.3062 52.0261 38.5665C49.7972 37.4409 49.4652 37.3897 49.2281 38.1572C48.5168 40.1015 53.9704 42.2505 58.1437 41.7389C61.1788 41.3295 63.1231 39.7945 63.7871 37.3897C64.451 34.7802 64.4036 34.2174 63.3128 32.3243C62.3644 30.5846 59.3293 28.6403 55.82 27.5146C49.6075 25.5191 50.1766 18.8675 56.5787 18.8675C57.622 18.8675 59.2819 19.2257 60.2303 19.6862C61.7004 20.3002 62.0798 20.3513 62.4118 19.8397C62.9809 18.8163 62.0798 17.9977 59.7561 17.3837C56.8633 16.6162 54.3498 16.7185 52.5003 17.6907Z" fill="#091A5A"/>
<path d="M67.4862 24.3425C67.3913 28.5382 67.3913 34.1665 67.4862 36.8783C67.6284 41.5344 67.6759 41.8926 68.5769 41.8926C69.478 41.8926 69.5254 41.5856 69.478 37.9016C69.3831 31.7616 69.3831 31.6593 70.8532 30.0731C72.7502 28.0265 75.0739 28.0265 77.1605 30.0731C78.7255 31.557 78.7255 31.6593 78.8678 36.7248C79.0575 41.5344 79.1049 41.8926 80.0059 41.8926C80.907 41.8926 80.9544 41.6367 80.7647 36.6224C80.575 30.7383 80.0534 29.3057 77.3977 27.5148C75.8801 26.4915 73.3192 26.4403 70.5687 27.3102C69.478 27.6683 69.478 27.6172 69.4305 22.654C69.3831 19.8399 69.3831 17.4351 69.4305 17.1792C69.4305 16.9746 69.0511 16.8211 68.5769 16.8211C67.6759 16.8211 67.6284 17.2816 67.4862 24.3425Z" fill="#091A5A"/>
<path d="M88.0202 27.4634C85.3171 28.896 84.416 30.738 84.416 34.5755C84.416 37.7478 84.5109 37.9525 86.1707 39.5898C89.1583 42.6086 93.379 42.6086 96.4141 39.641C97.9317 38.1571 98.1214 37.5943 98.3111 34.9337C98.4533 32.3753 98.3111 31.6078 97.3626 30.124C96.0347 27.975 93.5687 26.5424 91.2924 26.5424C90.3914 26.5424 88.9212 26.9517 88.0202 27.4634ZM93.5213 29.1007C96.4615 30.2264 97.5049 35.1895 95.3708 38.0036C93.7584 40.1015 90.4862 40.4596 88.2573 38.7711C86.5026 37.492 86.0758 36.5198 86.0758 33.7568C86.0758 32.5288 86.5026 31.6078 87.6882 30.3287C89.3955 28.4867 90.913 28.1285 93.5213 29.1007Z" fill="#091A5A"/>
<path d="M102.105 29.2032C102.01 30.687 101.915 35.9572 101.963 40.8691C102.01 48.8511 102.105 49.8233 102.816 49.9768C103.528 50.1303 103.623 49.6186 103.623 45.5253C103.623 43.0181 103.812 40.818 104.097 40.6133C104.334 40.4598 105.33 40.6645 106.278 41.125C109.645 42.6088 112.538 41.7901 114.72 38.669C117.091 35.292 116.048 29.7149 112.68 27.6682C110.499 26.3379 108.507 26.2356 106.089 27.3101C104.524 28.0264 104.287 28.0264 103.812 27.3101C102.864 25.8774 102.295 26.4914 102.105 29.2032ZM111.637 29.2544C112.254 29.5614 113.202 30.7382 113.724 31.8127C114.957 34.4222 114.388 37.0828 112.206 38.669C107.843 41.8413 102.484 37.6457 104.097 32.3755C105.093 29.2544 108.792 27.6682 111.637 29.2544Z" fill="#091A5A"/>
<path d="M123.54 27.4637C116.806 31.0965 119.509 41.8926 127.145 41.8926C129.848 41.8926 132.551 40.6134 132.551 39.3343C132.551 38.1574 131.745 38.0551 130.464 39.0784C128.425 40.7669 123.351 39.4878 122.118 37.0829C121.122 35.0363 121.786 34.7293 127.666 34.7293H133.167L132.883 32.6315C132.598 30.2266 131.128 28.2823 128.899 27.259C126.86 26.338 125.532 26.338 123.54 27.4637ZM129.753 30.0731C130.512 30.8918 131.128 31.8128 131.128 32.0686C131.128 32.5803 123.635 33.1431 122.592 32.785C121.738 32.478 122.118 31.0965 123.351 29.8685C125.2 28.0265 127.903 28.1288 129.753 30.0731Z" fill="#091A5A"/>
<path d="M140.85 27.259C138.241 28.5382 137.15 30.329 136.913 33.6036C136.771 36.0084 136.913 36.8271 137.862 38.3109C139.237 40.5623 141.656 41.8926 144.311 41.8926C146.73 41.8926 149.623 40.7158 149.623 39.6924C149.623 38.5156 149.101 38.3109 147.678 39.0784C146.113 39.9994 143.031 40.0506 141.466 39.2831C140.043 38.5668 138.573 36.4178 138.905 35.4456C139.095 34.8828 140.28 34.7293 144.691 34.7293H150.239L149.955 32.5803C149.386 28.18 144.643 25.3658 140.85 27.259ZM146.493 29.7661C149.054 32.0175 148.58 32.5803 144.074 32.785C139.285 32.9896 138.81 32.7338 139.569 30.8918C140.612 28.4358 144.264 27.8218 146.493 29.7661Z" fill="#091A5A"/>
</svg>
