<svg width="61" height="33" viewBox="0 0 61 33" fill="none" xmlns="http://www.w3.org/2000/svg">
<path d="M56.1169 6.29456C55.8713 5.8818 55.4679 5.63415 55.047 5.63415H46.8911V1.54784C46.8911 0.701689 46.2948 0 45.5756 0H16.0215C15.3024 0 14.7061 0.701689 14.7061 1.54784V26.561C14.7061 27.4071 15.3024 28.1088 16.0215 28.1088H19.7399C20.4239 30.9156 22.6339 33 25.2298 33C27.8256 33 30.0356 30.9362 30.7197 28.1088H45.295C45.979 30.9156 48.189 33 50.7849 33C53.3807 33 55.5907 30.9362 56.2748 28.1088H58.9934C59.7125 28.1088 60.3088 27.4071 60.3088 26.561V13.8274C60.3088 13.4972 60.2211 13.1876 60.0633 12.94L56.1169 6.29456ZM57.6954 14.2814H51.8022V8.75047H54.3805L57.6954 14.2814ZM17.337 3.11632H44.2602V25.0338H30.8424C30.3338 21.9174 28.0186 19.5647 25.2298 19.5647C22.441 19.5647 20.1082 21.9174 19.6171 25.0338H17.337V3.11632ZM25.2298 29.9043C23.5284 29.9043 22.1428 28.2739 22.1428 26.272C22.1428 24.2702 23.5284 22.6398 25.2298 22.6398C26.9311 22.6398 28.3167 24.2702 28.3167 26.272C28.3167 28.2739 26.9311 29.9043 25.2298 29.9043ZM50.8024 29.9043C49.1011 29.9043 47.7155 28.2739 47.7155 26.272C47.7155 24.2702 49.1011 22.6398 50.8024 22.6398C52.5037 22.6398 53.8894 24.2702 53.8894 26.272C53.8894 28.2739 52.5037 29.9043 50.8024 29.9043ZM56.4151 25.0338C55.9064 21.9174 53.5912 19.5647 50.8024 19.5647C49.294 19.5647 47.9084 20.2664 46.8911 21.4015V8.75047H49.1537V15.8293C49.1537 16.6754 49.75 17.3771 50.4692 17.3771H57.713V25.0338H56.4151Z" fill="black"/>
<path d="M2.00687 3.11607H11.3905C12.1096 3.11607 12.706 2.41438 12.706 1.56823C12.706 0.722074 12.1096 0.0203857 11.3905 0.0203857H2.00687C1.28775 0.0203857 0.691406 0.722074 0.691406 1.56823C0.691406 2.41438 1.28775 3.11607 2.00687 3.11607Z" fill="black"/>
<path d="M11.3904 7.11621H4.1641C3.44498 7.11621 2.84863 7.8179 2.84863 8.66405C2.84863 9.51021 3.44498 10.2119 4.1641 10.2119H11.3904C12.1095 10.2119 12.7059 9.51021 12.7059 8.66405C12.7059 7.8179 12.127 7.11621 11.3904 7.11621Z" fill="black"/>
<path d="M11.3904 14.2119H6.83011C6.11099 14.2119 5.51465 14.9136 5.51465 15.7598C5.51465 16.6059 6.11099 17.3076 6.83011 17.3076H11.3904C12.1095 17.3076 12.7059 16.6059 12.7059 15.7598C12.7059 14.9136 12.1271 14.2119 11.3904 14.2119Z" fill="black"/>
<path d="M11.3906 21.3076H9.81205C9.09293 21.3076 8.49658 22.0093 8.49658 22.8555C8.49658 23.7016 9.09293 24.4033 9.81205 24.4033H11.3906C12.1097 24.4033 12.7061 23.7016 12.7061 22.8555C12.7061 22.0093 12.1273 21.3076 11.3906 21.3076Z" fill="black"/>
</svg>
