<svg width="25" height="25" viewBox="0 0 25 25" fill="none" xmlns="http://www.w3.org/2000/svg">
<path d="M23.2998 6.64396C22.5012 6.99894 21.6417 7.23839 20.7399 7.34555C21.6607 6.79433 22.3667 5.92121 22.6996 4.87964C21.8384 5.39072 20.885 5.76158 19.8694 5.96178C19.0567 5.09571 17.8983 4.5542 16.6164 4.5542C14.1553 4.5542 12.1599 6.5496 12.1599 9.0111C12.1599 9.35991 12.1992 9.6999 12.2755 10.0267C8.5713 9.84057 5.28695 8.06654 3.0887 5.37C2.70506 6.02793 2.48546 6.79345 2.48546 7.61101C2.48546 9.15706 3.27215 10.5214 4.46806 11.3205C3.73781 11.2971 3.05034 11.0965 2.4493 10.7626C2.44885 10.7812 2.44885 10.8001 2.44885 10.8191C2.44885 12.9781 3.9852 14.779 6.02425 15.1891C5.65031 15.2905 5.25652 15.3452 4.84994 15.3452C4.56243 15.3452 4.2833 15.3174 4.01122 15.265C4.57875 17.0355 6.22445 18.3244 8.17443 18.3601C6.64911 19.5556 4.7278 20.2682 2.63935 20.2682C2.27996 20.2682 1.92498 20.2471 1.57617 20.2056C3.54908 21.4707 5.89152 22.2081 8.40814 22.2081C16.6062 22.2081 21.0887 15.4171 21.0887 9.52748C21.0887 9.33433 21.0848 9.14163 21.0764 8.95024C21.9469 8.32318 22.7027 7.53781 23.2998 6.64396Z" fill="#889CBA"/>
</svg>
