<svg width="136" height="30" viewBox="0 0 136 30" fill="none" xmlns="http://www.w3.org/2000/svg">
<path d="M14.1143 0.171871C7.67009 0.999983 3.19572 5.23429 1.64798 11.9842C1.12738 14.2967 1.02889 15.6716 1.02889 21.2028V26.4058L65.3023 26.4527L129.562 26.484L65.2319 26.5308L0.888184 26.5621V28.2808V29.9995H60.9404C125.847 29.9995 122.076 30.0464 124.848 29.2027C126.311 28.7652 128.872 27.3589 129.632 26.5621C129.984 26.2027 130.406 25.8121 130.575 25.6871C131.081 25.2809 132.418 23.3746 133.065 22.109C133.797 20.7028 134.571 18.156 134.922 16.0935C135.119 14.8591 135.176 13.3904 135.232 7.29676L135.288 0L75.2219 0.015625C42.1987 0.03125 14.6912 0.0937481 14.1143 0.171871ZM57.6621 5.56241C58.2389 5.85928 58.5766 6.60927 58.5766 7.56238V8.28112H60.3354C62.7133 8.28112 63.0791 8.48424 63.0791 9.82797C63.0791 10.2498 62.9806 10.5155 62.7133 10.7967C62.3756 11.1404 62.2349 11.1717 60.4621 11.2186L58.5766 11.2811V14.3123C58.5766 17.6247 58.6892 18.2966 59.3083 18.531C59.4771 18.5935 60.3213 18.656 61.1515 18.656C62.5867 18.6716 62.6992 18.6872 62.9525 19.0466C63.2198 19.4059 63.3043 20.2028 63.1354 20.6872C62.8962 21.3903 60.8842 21.9997 59.449 21.8122C57.6058 21.5778 56.4801 20.7965 55.8892 19.3434C55.5515 18.5153 55.5515 18.4997 55.5515 12.5467C55.5515 6.73427 55.5656 6.57802 55.847 6.14053C56.1425 5.68741 56.6771 5.31242 57.0007 5.31242C57.1133 5.31242 57.4088 5.42179 57.6621 5.56241ZM20.3193 7.703C20.8962 8.12487 20.854 8.04675 23.2882 16.7497C23.5415 17.6872 23.8088 18.4216 23.8791 18.3903C23.9495 18.3591 24.5545 16.7654 25.2299 14.8279C26.7073 10.5311 26.9183 10.1092 27.7203 9.67172C28.5505 9.23423 29.1977 9.37485 29.8731 10.1248C30.2952 10.6092 30.6048 11.3748 31.7023 14.5623C32.4339 16.7029 33.0671 18.4372 33.1374 18.4372C33.1937 18.4372 33.5314 17.406 33.8832 16.1247C36.1907 7.953 36.1907 7.96862 36.6691 7.65613C37.3445 7.18739 37.8369 7.24989 38.4138 7.8905C38.8641 8.39049 38.9063 8.49987 38.85 9.17173C38.7937 9.7811 37.5977 14.1873 36.1063 19.2809C35.445 21.5778 33.1796 22.5153 31.3786 21.2497C30.5907 20.7028 30.2811 20.1091 29.2259 17.1404L28.4098 14.8279L27.8048 16.7497C27.4671 17.8122 27.0872 18.9841 26.9605 19.3747C26.6229 20.4216 25.5957 21.4684 24.6671 21.7184C23.3163 22.0778 21.7967 21.3903 21.2198 20.1559C20.9244 19.5153 18.054 9.37485 18.054 8.95298C18.054 8.53111 18.4761 7.828 18.8701 7.59363C19.4048 7.26551 19.7706 7.29676 20.3193 7.703ZM48.854 7.73425C51.3304 8.39049 53.0188 10.2655 53.5113 12.906C53.6098 13.406 53.652 15.156 53.6239 17.3435L53.5817 20.9684L53.1173 21.4215C52.245 22.2809 51.0208 21.7653 50.8098 20.4372C50.7817 20.2341 50.6128 20.2966 49.8671 20.7965C48.6852 21.5934 48.2349 21.734 46.6309 21.8278C45.0409 21.9372 44.056 21.7184 42.8882 21.0309C40.7213 19.7653 39.4409 17.3591 39.4409 14.531C39.455 11.2811 41.3686 8.64049 44.3796 7.74988C45.3786 7.45301 47.7284 7.43738 48.854 7.73425ZM86.3515 7.73425C88.1384 8.24987 89.7284 9.5311 90.5585 11.0936C91.5012 12.906 91.6279 15.6716 90.8259 17.5622C88.4621 23.1559 80.3575 23.2653 77.9234 17.7497C76.1364 13.7029 78.05 9.04673 81.9897 7.79675C83.0872 7.45301 85.254 7.42176 86.3515 7.73425ZM116.687 7.81238C117.742 8.1405 118.165 9.32798 117.545 10.1717C117.278 10.5467 117.236 10.5467 114.056 10.6248C111.833 10.6873 110.749 10.7655 110.538 10.9061C110.102 11.1717 109.976 11.8123 110.285 12.1873C110.609 12.5936 111.087 12.7498 113.17 13.1092C116.251 13.656 117.616 14.3279 118.305 15.6248C118.713 16.4216 118.699 18.2653 118.263 19.1716C117.855 20.0466 116.842 20.8747 115.73 21.2497C114.971 21.5153 114.436 21.5622 112.199 21.5622C108.146 21.5465 107.119 21.1715 107.119 19.6872C107.119 19.2028 107.204 19.0153 107.57 18.6716C107.978 18.281 108.09 18.2497 108.808 18.3435C109.23 18.3903 110.215 18.5153 110.989 18.6091C113.986 18.9685 116.04 18.406 115.787 17.281C115.674 16.7497 114.914 16.4685 112.86 16.1716C110.074 15.781 108.948 15.3279 108.076 14.2498C107.471 13.4998 107.19 12.3748 107.316 11.2029C107.541 9.21861 108.752 8.078 111.059 7.6405C111.875 7.48426 116.068 7.60926 116.687 7.81238ZM101.013 7.828C102.884 8.203 104.474 9.4686 105.234 11.1873L105.642 12.1092L105.684 16.0779C105.712 18.2653 105.698 20.2809 105.656 20.5622C105.445 21.7965 104.08 22.3122 103.222 21.4997L102.828 21.1247L102.743 17.0779C102.659 12.6873 102.603 12.3279 101.829 11.5467C101.266 10.9686 100.52 10.7498 99.2399 10.7498C97.6218 10.7498 96.8198 11.2029 96.243 12.4217C95.9616 12.9998 95.9334 13.3592 95.8631 17.0779L95.7927 21.1247L95.3284 21.5778C94.6108 22.2965 93.5274 22.1403 93.1193 21.2497C92.9224 20.8434 92.9083 20.1559 92.9364 16.4372L92.9786 12.0936L93.443 11.0623C93.9917 9.82797 94.7515 9.01548 95.9334 8.42174C97.3967 7.68738 99.254 7.46863 101.013 7.828ZM73.9696 7.96862C74.2791 8.04675 74.6872 8.23425 74.8842 8.40612C75.1937 8.65611 75.25 8.82799 75.25 9.45298C75.25 10.0936 75.1937 10.2498 74.856 10.5311C74.4761 10.8436 74.3073 10.8592 72.056 10.8123C69.1997 10.7498 68.3977 10.8436 67.8912 11.3279C67.5676 11.6404 67.5394 11.7498 67.652 12.1248C67.8349 12.7029 68.5947 12.9998 70.7897 13.3435C74.6309 13.9685 76.1646 15.156 76.1646 17.4997C76.1505 19.6872 74.7997 21.1715 72.3796 21.6559C70.5927 21.9997 66.8219 21.859 65.5133 21.3903C64.7113 21.109 64.3455 19.8903 64.8379 19.1091C65.246 18.4685 65.8369 18.3903 68.257 18.6716C71.5213 19.0622 73.0832 18.8278 73.2942 17.8747C73.4912 17.031 72.8158 16.7029 70.044 16.3279C67.0188 15.9216 65.851 15.3279 65.1475 13.8279C64.7254 12.9529 64.7394 11.1092 65.1475 10.2342C65.6681 9.15611 66.7234 8.31237 67.9615 7.98425C68.6791 7.79675 73.2801 7.78113 73.9696 7.96862Z" fill="#091A5A"/>
<path d="M45.1397 10.6873C43.3246 11.3279 42.396 12.6716 42.396 14.6872C42.396 16.4684 43.2402 17.8121 44.7739 18.4528C45.4211 18.7184 45.787 18.7653 46.8282 18.7184C48.2211 18.6403 49.1638 18.234 49.8814 17.3903C51.3025 15.7184 51.1055 12.5935 49.5015 11.3591C48.4322 10.5466 46.4342 10.2341 45.1397 10.6873Z" fill="#091A5A"/>
<path d="M82.4045 11.4635C80.5753 12.3228 79.717 14.0259 80.0829 16.0728C80.3502 17.604 81.3492 18.7915 82.6999 19.229C83.6004 19.4946 85.4859 19.3383 86.2035 18.9321C87.5683 18.1509 88.2296 16.9477 88.2296 15.229C88.2296 12.7447 86.8085 11.2603 84.3602 11.1353C83.4035 11.0885 83.108 11.1353 82.4045 11.4635Z" fill="#091A5A"/>
</svg>
